IBM Plex Sans Var-Condensed Italic.ufo
<glyph name="exclam" format="1">
  <advance width="256"/>
  <unicode hex="0021"/>
  <outline>
    <contour>
      <point x="133" y="183" type="line" name="hr00"/>
      <point x="215" y="493" type="line"/>
      <point x="256" y="698" type="line"/>
      <point x="177" y="698" type="line"/>
      <point x="136" y="493" type="line"/>
      <point x="97" y="183" type="line"/>
    </contour>
    <contour>
      <point x="80" y="-12" type="curve" smooth="yes"/>
      <point x="122" y="-12"/>
      <point x="139" y="5"/>
      <point x="145" y="32" type="curve" smooth="yes"/>
      <point x="148" y="45"/>
      <point x="150" y="59"/>
      <point x="150" y="68" type="curve" smooth="yes"/>
      <point x="150" y="93"/>
      <point x="132" y="106"/>
      <point x="102" y="106" type="curve" smooth="yes"/>
      <point x="60" y="106"/>
      <point x="43" y="89"/>
      <point x="37" y="62" type="curve" smooth="yes"/>
      <point x="34" y="49"/>
      <point x="32" y="35"/>
      <point x="32" y="26" type="curve" smooth="yes"/>
      <point x="32" y="1"/>
      <point x="50" y="-12"/>
    </contour>
  </outline>
</glyph>
<glyph name="dollar" format="1">
  <advance width="523"/>
  <unicode hex="0024"/>
  <outline>
    <contour>
      <point x="218" y="-82" type="line"/>
      <point x="239" y="29" type="line"/>
      <point x="239" y="39" type="line"/>
      <point x="364" y="659" type="line"/>
      <point x="368" y="669" type="line"/>
      <point x="391" y="780" type="line"/>
      <point x="329" y="780" type="line"/>
      <point x="306" y="669" type="line"/>
      <point x="306" y="659" type="line"/>
      <point x="181" y="39" type="line"/>
      <point x="177" y="29" type="line"/>
      <point x="156" y="-82" type="line"/>
    </contour>
    <contour>
      <point x="461" y="209" type="curve" smooth="yes"/>
      <point x="461" y="305"/>
      <point x="410" y="353"/>
      <point x="324" y="384" type="curve" smooth="yes"/>
      <point x="261" y="407" type="line" smooth="yes"/>
      <point x="200" y="429"/>
      <point x="172" y="458"/>
      <point x="172" y="516" type="curve" smooth="yes"/>
      <point x="172" y="592"/>
      <point x="224" y="634"/>
      <point x="306" y="634" type="curve" smooth="yes"/>
      <point x="402" y="634"/>
      <point x="437" y="589"/>
      <point x="462" y="546" type="curve"/>
      <point x="518" y="591" type="line"/>
      <point x="486" y="644"/>
      <point x="433" y="700"/>
      <point x="317" y="700" type="curve" smooth="yes"/>
      <point x="178" y="700"/>
      <point x="98" y="615"/>
      <point x="98" y="509" type="curve" smooth="yes"/>
      <point x="98" y="425"/>
      <point x="146" y="376"/>
      <point x="231" y="345" type="curve" smooth="yes"/>
      <point x="291" y="323" type="line" smooth="yes"/>
      <point x="351" y="301"/>
      <point x="385" y="271"/>
      <point x="385" y="206" type="curve" smooth="yes"/>
      <point x="385" y="126"/>
      <point x="330" y="59"/>
      <point x="219" y="59" type="curve" smooth="yes"/>
      <point x="133" y="59"/>
      <point x="94" y="102"/>
      <point x="64" y="163" type="curve"/>
      <point x="10" y="124" type="line"/>
      <point x="42" y="51"/>
      <point x="109" y="-2"/>
      <point x="218" y="-2" type="curve" smooth="yes"/>
      <point x="378" y="-2"/>
      <point x="461" y="91"/>
    </contour>
  </outline>
</glyph>
<glyph name="ampersand" format="1">
  <advance width="609"/>
  <unicode hex="0026"/>
  <outline>
    <contour>
      <point x="439" y="0" type="line"/>
      <point x="521" y="0" type="line"/>
      <point x="433" y="141" type="line"/>
      <point x="460" y="188"/>
      <point x="483" y="243"/>
      <point x="501" y="302" type="curve"/>
      <point x="564" y="302" type="line"/>
      <point x="577" y="366" type="line"/>
      <point x="455" y="366" type="line"/>
      <point x="442" y="308"/>
      <point x="423" y="250"/>
      <point x="397" y="198" type="curve"/>
      <point x="298" y="360" type="line"/>
      <point x="389" y="408"/>
      <point x="476" y="471"/>
      <point x="476" y="581" type="curve" smooth="yes"/>
      <point x="476" y="673"/>
      <point x="416" y="710"/>
      <point x="343" y="710" type="curve" smooth="yes"/>
      <point x="233" y="710"/>
      <point x="165" y="627"/>
      <point x="165" y="517" type="curve" smooth="yes"/>
      <point x="165" y="466"/>
      <point x="180" y="424"/>
      <point x="208" y="380" type="curve"/>
      <point x="117" y="333"/>
      <point x="32" y="269"/>
      <point x="32" y="147" type="curve" smooth="yes"/>
      <point x="32" y="48"/>
      <point x="88" y="-12"/>
      <point x="189" y="-12" type="curve" smooth="yes" name="hr01"/>
      <point x="278" y="-12"/>
      <point x="336" y="28"/>
      <point x="364" y="107" type="curve" name="hr02"/>
      <point x="374" y="107" type="line"/>
    </contour>
    <contour>
      <point x="333" y="649" type="curve" smooth="yes"/>
      <point x="381" y="649"/>
      <point x="403" y="625"/>
      <point x="403" y="572" type="curve" smooth="yes"/>
      <point x="403" y="493"/>
      <point x="354" y="453"/>
      <point x="269" y="408" type="curve"/>
      <point x="242" y="453"/>
      <point x="233" y="481"/>
      <point x="233" y="508" type="curve" smooth="yes"/>
      <point x="233" y="525"/>
      <point x="236" y="545"/>
      <point x="239" y="559" type="curve" smooth="yes"/>
      <point x="250" y="610"/>
      <point x="272" y="649"/>
    </contour>
    <contour>
      <point x="212" y="51" type="curve" smooth="yes" name="hr03"/>
      <point x="143" y="51"/>
      <point x="108" y="86"/>
      <point x="108" y="146" type="curve" smooth="yes"/>
      <point x="108" y="164"/>
      <point x="111" y="187"/>
      <point x="114" y="202" type="curve" smooth="yes"/>
      <point x="127" y="267"/>
      <point x="166" y="293"/>
      <point x="237" y="332" type="curve"/>
      <point x="355" y="139" type="line"/>
      <point x="320" y="86"/>
      <point x="281" y="51"/>
    </contour>
  </outline>
</glyph>
<glyph name="plus" format="1">
  <advance width="540"/>
  <unicode hex="002B"/>
  <outline>
    <contour>
      <point x="272" y="91" type="line" name="hr00"/>
      <point x="309" y="274" type="line"/>
      <point x="483" y="274" type="line"/>
      <point x="495" y="336" type="line"/>
      <point x="321" y="336" type="line"/>
      <point x="358" y="519" type="line"/>
      <point x="288" y="519" type="line"/>
      <point x="251" y="336" type="line"/>
      <point x="77" y="336" type="line"/>
      <point x="65" y="274" type="line"/>
      <point x="239" y="274" type="line"/>
      <point x="202" y="91" type="line"/>
    </contour>
  </outline>
</glyph>
<glyph name="hyphen" format="1">
  <advance width="347"/>
  <unicode hex="002D"/>
  <outline>
    <contour>
      <point x="290" y="265" type="line" name="hr00"/>
      <point x="306" y="343" type="line"/>
      <point x="77" y="343" type="line"/>
      <point x="61" y="265" type="line"/>
    </contour>
  </outline>
</glyph>
<glyph name="period" format="1">
  <advance width="244"/>
  <unicode hex="002E"/>
  <outline>
    <contour>
      <point x="69" y="-12" type="curve" smooth="yes" name="hr00"/>
      <point x="111" y="-12"/>
      <point x="128" y="5"/>
      <point x="134" y="32" type="curve" smooth="yes"/>
      <point x="137" y="45"/>
      <point x="139" y="59"/>
      <point x="139" y="68" type="curve" smooth="yes"/>
      <point x="139" y="93"/>
      <point x="121" y="106"/>
      <point x="91" y="106" type="curve" smooth="yes"/>
      <point x="49" y="106"/>
      <point x="32" y="89"/>
      <point x="26" y="62" type="curve" smooth="yes"/>
      <point x="23" y="49"/>
      <point x="21" y="35"/>
      <point x="21" y="26" type="curve" smooth="yes"/>
      <point x="21" y="1"/>
      <point x="39" y="-12"/>
    </contour>
  </outline>
</glyph>
<glyph name="slash" format="1">
  <advance width="360"/>
  <unicode hex="002F"/>
  <outline>
    <contour>
      <point x="4" y="-151" type="line" name="hr00"/>
      <point x="411" y="740" type="line"/>
      <point x="343" y="740" type="line"/>
      <point x="-64" y="-151" type="line"/>
    </contour>
  </outline>
</glyph>
<glyph name="one" format="1">
  <advance width="540"/>
  <unicode hex="0031"/>
  <outline>
    <contour>
      <point x="444" y="0" type="line" name=""/>
      <point x="457" y="68" type="line"/>
      <point x="299" y="68" type="line"/>
      <point x="425" y="698" type="line"/>
      <point x="303" y="698" type="line"/>
      <point x="126" y="557" type="line"/>
      <point x="164" y="508" type="line"/>
      <point x="330" y="639" type="line"/>
      <point x="337" y="639" type="line"/>
      <point x="222" y="68" type="line"/>
      <point x="56" y="68" type="line"/>
      <point x="42" y="0" type="line"/>
    </contour>
  </outline>
</glyph>
<glyph name="four" format="1">
  <advance width="540"/>
  <unicode hex="0034"/>
  <outline>
    <contour>
      <point x="355" y="0" type="line" name="hr00"/>
      <point x="383" y="137" type="line"/>
      <point x="469" y="137" type="line"/>
      <point x="482" y="201" type="line"/>
      <point x="395" y="201" type="line"/>
      <point x="495" y="698" type="line"/>
      <point x="380" y="698" type="line"/>
      <point x="39" y="211" type="line"/>
      <point x="24" y="137" type="line"/>
      <point x="308" y="137" type="line"/>
      <point x="280" y="0" type="line"/>
    </contour>
    <contour>
      <point x="394" y="621" type="line"/>
      <point x="404" y="621" type="line"/>
      <point x="320" y="201" type="line"/>
      <point x="108" y="201" type="line"/>
    </contour>
  </outline>
</glyph>
<glyph name="eight" format="1">
  <advance width="540"/>
  <unicode hex="0038"/>
  <outline>
    <contour>
      <point x="235" y="-12" type="curve" smooth="yes"/>
      <point x="386" y="-12"/>
      <point x="471" y="88"/>
      <point x="471" y="220" type="curve" smooth="yes"/>
      <point x="471" y="298"/>
      <point x="441" y="343"/>
      <point x="368" y="360" type="curve"/>
      <point x="370" y="370" type="line"/>
      <point x="460" y="386"/>
      <point x="514" y="467"/>
      <point x="514" y="558" type="curve" smooth="yes" name="hr01"/>
      <point x="514" y="649"/>
      <point x="461" y="710"/>
      <point x="348" y="710" type="curve" smooth="yes"/>
      <point x="211" y="710"/>
      <point x="132" y="620"/>
      <point x="132" y="506" type="curve" smooth="yes"/>
      <point x="132" y="434"/>
      <point x="163" y="392"/>
      <point x="220" y="375" type="curve"/>
      <point x="218" y="365" type="line"/>
      <point x="111" y="354"/>
      <point x="49" y="264"/>
      <point x="49" y="159" type="curve" smooth="yes"/>
      <point x="49" y="52"/>
      <point x="114" y="-12"/>
    </contour>
    <contour>
      <point x="243" y="55" type="curve" smooth="yes"/>
      <point x="169" y="55"/>
      <point x="127" y="89"/>
      <point x="127" y="147" type="curve" smooth="yes"/>
      <point x="127" y="170"/>
      <point x="133" y="210"/>
      <point x="139" y="232" type="curve" smooth="yes"/>
      <point x="156" y="295"/>
      <point x="196" y="335"/>
      <point x="278" y="335" type="curve" smooth="yes"/>
      <point x="352" y="335"/>
      <point x="394" y="301"/>
      <point x="394" y="243" type="curve" smooth="yes" name="hr02"/>
      <point x="394" y="220"/>
      <point x="388" y="180"/>
      <point x="382" y="158" type="curve" smooth="yes"/>
      <point x="365" y="95"/>
      <point x="325" y="55"/>
    </contour>
    <contour>
      <point x="306" y="399" type="curve" smooth="yes"/>
      <point x="234" y="399"/>
      <point x="206" y="431"/>
      <point x="206" y="488" type="curve" smooth="yes"/>
      <point x="206" y="503"/>
      <point x="208" y="519"/>
      <point x="212" y="538" type="curve" smooth="yes"/>
      <point x="227" y="606"/>
      <point x="257" y="643"/>
      <point x="335" y="643" type="curve" smooth="yes"/>
      <point x="407" y="643"/>
      <point x="435" y="611"/>
      <point x="435" y="554" type="curve" smooth="yes" name="hr03"/>
      <point x="435" y="539"/>
      <point x="433" y="523"/>
      <point x="429" y="504" type="curve" smooth="yes"/>
      <point x="414" y="436"/>
      <point x="384" y="399"/>
    </contour>
  </outline>
</glyph>
<glyph name="equal" format="1">
  <advance width="540"/>
  <unicode hex="003D"/>
  <outline>
    <contour>
      <point x="503" y="374" type="line" name="hr00"/>
      <point x="515" y="436" type="line"/>
      <point x="97" y="436" type="line"/>
      <point x="85" y="374" type="line"/>
    </contour>
    <contour>
      <point x="463" y="176" type="line"/>
      <point x="475" y="238" type="line"/>
      <point x="57" y="238" type="line"/>
      <point x="45" y="176" type="line"/>
    </contour>
  </outline>
</glyph>
<glyph name="greater" format="1">
  <advance width="540"/>
  <unicode hex="003E"/>
  <outline>
    <contour>
      <point x="37" y="-12" type="line" name="hr00"/>
      <point x="456" y="235" type="line"/>
      <point x="470" y="306" type="line"/>
      <point x="152" y="562" type="line"/>
      <point x="137" y="488" type="line"/>
      <point x="388" y="282" type="line"/>
      <point x="386" y="272" type="line"/>
      <point x="54" y="75" type="line"/>
    </contour>
  </outline>
</glyph>
<glyph name="A" format="1">
  <advance width="559"/>
  <unicode hex="0041"/>
  <outline>
    <contour>
      <point x="489" y="0" type="line" name="hr00"/>
      <point x="419" y="698" type="line"/>
      <point x="315" y="698" type="line"/>
      <point x="-31" y="0" type="line"/>
      <point x="51" y="0" type="line"/>
      <point x="152" y="210" type="line"/>
      <point x="392" y="210" type="line"/>
      <point x="411" y="0" type="line"/>
    </contour>
    <contour>
      <point x="386" y="275" type="line"/>
      <point x="185" y="275" type="line"/>
      <point x="306" y="534" type="line"/>
      <point x="348" y="631" type="line"/>
      <point x="358" y="631" type="line"/>
      <point x="363" y="534" type="line"/>
    </contour>
    <contour>
      <point x="237" y="0" type="move" name="bottom"/>
    </contour>
    <contour>
      <point x="495" y="0" type="move" name="bottomright"/>
    </contour>
    <contour>
      <point x="368" y="698" type="move" name="top"/>
    </contour>
  </outline>
</glyph>
<glyph name="E" format="1">
  <advance width="516"/>
  <unicode hex="0045"/>
  <outline>
    <contour>
      <point x="421" y="0" type="line" name="hr00"/>
      <point x="435" y="67" type="line"/>
      <point x="124" y="67" type="line"/>
      <point x="175" y="321" type="line"/>
      <point x="440" y="321" type="line"/>
      <point x="454" y="388" type="line"/>
      <point x="189" y="388" type="line"/>
      <point x="237" y="631" type="line"/>
      <point x="530" y="631" type="line"/>
      <point x="544" y="698" type="line"/>
      <point x="174" y="698" type="line"/>
      <point x="34" y="0" type="line"/>
    </contour>
    <contour>
      <point x="234" y="0" type="move" name="bottom"/>
    </contour>
    <contour>
      <point x="421" y="0" type="move" name="bottomright"/>
    </contour>
    <contour>
      <point x="363" y="698" type="move" name="top"/>
    </contour>
  </outline>
</glyph>
<glyph name="F" format="1">
  <advance width="495"/>
  <unicode hex="0046"/>
  <outline>
    <contour>
      <point x="111" y="0" type="line" name="hr00"/>
      <point x="175" y="321" type="line"/>
      <point x="434" y="321" type="line"/>
      <point x="448" y="388" type="line"/>
      <point x="189" y="388" type="line"/>
      <point x="237" y="631" type="line"/>
      <point x="520" y="631" type="line"/>
      <point x="534" y="698" type="line"/>
      <point x="174" y="698" type="line"/>
      <point x="34" y="0" type="line"/>
    </contour>
    <contour>
      <point x="72" y="0" type="move" name="bottom"/>
    </contour>
    <contour>
      <point x="356" y="698" type="move" name="top"/>
    </contour>
  </outline>
</glyph>
<glyph name="H" format="1">
  <advance width="628"/>
  <unicode hex="0048"/>
  <outline>
    <contour>
      <point x="413" y="0" type="line" name="hr00"/>
      <point x="490" y="0" type="line"/>
      <point x="630" y="698" type="line"/>
      <point x="553" y="698" type="line"/>
      <point x="491" y="388" type="line"/>
      <point x="189" y="388" type="line"/>
      <point x="251" y="698" type="line"/>
      <point x="174" y="698" type="line"/>
      <point x="34" y="0" type="line"/>
      <point x="111" y="0" type="line"/>
      <point x="175" y="321" type="line"/>
      <point x="477" y="321" type="line"/>
    </contour>
    <contour>
      <point x="261" y="0" type="move" name="bottom"/>
    </contour>
    <contour>
      <point x="401" y="698" type="move" name="top"/>
    </contour>
  </outline>
</glyph>
<glyph name="I" format="1">
  <advance width="359"/>
  <unicode hex="0049"/>
  <outline>
    <contour>
      <point x="249" y="0" type="line" name="hr00"/>
      <point x="262" y="64" type="line"/>
      <point x="179" y="64" type="line"/>
      <point x="293" y="634" type="line"/>
      <point x="376" y="634" type="line"/>
      <point x="389" y="698" type="line"/>
      <point x="146" y="698" type="line"/>
      <point x="133" y="634" type="line"/>
      <point x="216" y="634" type="line"/>
      <point x="102" y="64" type="line"/>
      <point x="19" y="64" type="line"/>
      <point x="6" y="0" type="line"/>
    </contour>
    <contour>
      <point x="122" y="0" type="move" name="bottom"/>
    </contour>
    <contour>
      <point x="249" y="0" type="move" name="bottomright"/>
    </contour>
    <contour>
      <point x="273" y="698" type="move" name="top"/>
    </contour>
  </outline>
</glyph>
<glyph name="V" format="1">
  <advance width="529"/>
  <unicode hex="0056"/>
  <outline>
    <contour>
      <point x="261" y="0" type="line" name="hr00"/>
      <point x="603" y="698" type="line"/>
      <point x="521" y="698" type="line"/>
      <point x="308" y="247" type="line"/>
      <point x="231" y="67" type="line"/>
      <point x="221" y="67" type="line"/>
      <point x="215" y="247" type="line"/>
      <point x="180" y="698" type="line"/>
      <point x="104" y="698" type="line"/>
      <point x="165" y="0" type="line"/>
    </contour>
    <contour>
      <point x="209" y="0" type="move" name="bottom"/>
    </contour>
    <contour>
      <point x="340" y="698" type="move" name="top"/>
    </contour>
  </outline>
</glyph>
<glyph name="W" format="1">
  <advance width="783"/>
  <unicode hex="0057"/>
  <outline>
    <contour>
      <point x="213" y="0" type="line" name="hr00"/>
      <point x="364" y="367" type="line"/>
      <point x="459" y="621" type="line"/>
      <point x="469" y="621" type="line"/>
      <point x="462" y="374" type="line"/>
      <point x="468" y="0" type="line"/>
      <point x="566" y="0" type="line"/>
      <point x="856" y="698" type="line"/>
      <point x="774" y="698" type="line"/>
      <point x="595" y="247" type="line"/>
      <point x="536" y="67" type="line"/>
      <point x="526" y="67" type="line"/>
      <point x="534" y="247" type="line"/>
      <point x="526" y="698" type="line"/>
      <point x="428" y="698" type="line"/>
      <point x="243" y="247" type="line"/>
      <point x="182" y="67" type="line"/>
      <point x="173" y="67" type="line"/>
      <point x="180" y="247" type="line"/>
      <point x="180" y="698" type="line"/>
      <point x="104" y="698" type="line"/>
      <point x="115" y="0" type="line"/>
    </contour>
    <contour>
      <point x="342" y="0" type="move" name="bottom"/>
    </contour>
    <contour>
      <point x="476" y="698" type="move" name="top"/>
    </contour>
  </outline>
</glyph>
<glyph name="Y" format="1">
  <advance width="519"/>
  <unicode hex="0059"/>
  <outline>
    <contour>
      <point x="247" y="0" type="line" name="hr00"/>
      <point x="301" y="270" type="line"/>
      <point x="599" y="698" type="line"/>
      <point x="511" y="698" type="line"/>
      <point x="283" y="353" type="line"/>
      <point x="273" y="353" type="line"/>
      <point x="180" y="698" type="line"/>
      <point x="102" y="698" type="line"/>
      <point x="224" y="270" type="line"/>
      <point x="170" y="0" type="line"/>
    </contour>
    <contour>
      <point x="206" y="0" type="move" name="bottom"/>
    </contour>
    <contour>
      <point x="336" y="698" type="move" name="top"/>
    </contour>
  </outline>
</glyph>
<glyph name="bracketleft" format="1">
  <advance width="299"/>
  <unicode hex="005B"/>
  <outline>
    <contour>
      <point x="156" y="-138" type="line" name="hr00"/>
      <point x="168" y="-80" type="line"/>
      <point x="88" y="-80" type="line"/>
      <point x="244" y="702" type="line"/>
      <point x="324" y="702" type="line"/>
      <point x="336" y="760" type="line"/>
      <point x="190" y="760" type="line"/>
      <point x="10" y="-138" type="line"/>
    </contour>
  </outline>
</glyph>
<glyph name="bracketright" format="1">
  <advance width="298"/>
  <unicode hex="005D"/>
  <outline>
    <contour>
      <point x="165" y="760" type="line" name="hr00"/>
      <point x="153" y="702" type="line"/>
      <point x="233" y="702" type="line"/>
      <point x="77" y="-80" type="line"/>
      <point x="-3" y="-80" type="line"/>
      <point x="-15" y="-138" type="line"/>
      <point x="131" y="-138" type="line"/>
      <point x="311" y="760" type="line"/>
    </contour>
  </outline>
</glyph>
<glyph name="asciicircum" format="1">
  <advance width="540"/>
  <unicode hex="005E"/>
  <outline>
    <contour>
      <point x="505" y="317" type="line" name="hr00"/>
      <point x="397" y="698" type="line"/>
      <point x="319" y="698" type="line"/>
      <point x="70" y="333" type="line"/>
      <point x="122" y="297" type="line"/>
      <point x="345" y="627" type="line"/>
      <point x="355" y="627" type="line"/>
      <point x="445" y="297" type="line"/>
    </contour>
  </outline>
</glyph>
<glyph name="underscore" format="1">
  <advance width="490"/>
  <unicode hex="005F"/>
  <outline>
    <contour>
      <point x="390" y="-161" type="line" name="hr00"/>
      <point x="402" y="-100" type="line"/>
      <point x="-36" y="-100" type="line"/>
      <point x="-48" y="-161" type="line"/>
    </contour>
  </outline>
</glyph>
<glyph name="grave" format="1">
  <advance width="540"/>
  <unicode hex="0060"/>
  <outline>
    <contour>
      <point x="269" y="585" type="line" name="hr00"/>
      <point x="313" y="605" type="line"/>
      <point x="260" y="779" type="line"/>
      <point x="192" y="750" type="line"/>
    </contour>
    <contour>
      <point x="270" y="540" type="move" name="_top"/>
    </contour>
  </outline>
</glyph>
<glyph name="b" format="1">
  <advance width="515"/>
  <unicode hex="0062"/>
  <outline>
    <contour>
      <point x="29" y="0" type="line"/>
      <point x="103" y="0" type="line"/>
      <point x="120" y="84" type="line"/>
      <point x="130" y="84" type="line"/>
      <point x="136" y="21"/>
      <point x="188" y="-12"/>
      <point x="247" y="-12" type="curve" smooth="yes" name="hr01"/>
      <point x="360" y="-12"/>
      <point x="432" y="74"/>
      <point x="463" y="229" type="curve" smooth="yes"/>
      <point x="471" y="271"/>
      <point x="477" y="322"/>
      <point x="477" y="358" type="curve" smooth="yes"/>
      <point x="477" y="459"/>
      <point x="431" y="528"/>
      <point x="342" y="528" type="curve" smooth="yes"/>
      <point x="274" y="528"/>
      <point x="225" y="488"/>
      <point x="194" y="405" type="curve"/>
      <point x="184" y="405" type="line"/>
      <point x="251" y="740" type="line" name="hr02"/>
      <point x="177" y="740" type="line"/>
    </contour>
    <contour>
      <point x="236" y="53" type="curve" smooth="yes" name="hr03"/>
      <point x="166" y="53"/>
      <point x="126" y="114"/>
      <point x="135" y="160" type="curve" smooth="yes"/>
      <point x="163" y="300" type="line" smooth="yes"/>
      <point x="170" y="334"/>
      <point x="194" y="379"/>
      <point x="220" y="412" type="curve" smooth="yes"/>
      <point x="246" y="445"/>
      <point x="275" y="462"/>
      <point x="313" y="462" type="curve" smooth="yes"/>
      <point x="369" y="462"/>
      <point x="403" y="430"/>
      <point x="403" y="357" type="curve" smooth="yes"/>
      <point x="403" y="344"/>
      <point x="403" y="325"/>
      <point x="399" y="307" type="curve" smooth="yes"/>
      <point x="376" y="191" type="line" smooth="yes"/>
      <point x="358" y="102"/>
      <point x="311" y="53"/>
    </contour>
    <contour>
      <point x="230" y="0" type="move" name="bottom"/>
    </contour>
  </outline>
</glyph>
<glyph name="f" format="1">
  <advance width="293"/>
  <unicode hex="0066"/>
  <outline>
    <contour>
      <point x="218" y="452" type="line" name="hr00"/>
      <point x="309" y="452" type="line"/>
      <point x="322" y="516" type="line"/>
      <point x="231" y="516" type="line"/>
      <point x="263" y="676" type="line"/>
      <point x="354" y="676" type="line"/>
      <point x="367" y="740" type="line"/>
      <point x="271" y="740" type="line" smooth="yes"/>
      <point x="221" y="740"/>
      <point x="198" y="719"/>
      <point x="188" y="669" type="curve" smooth="yes"/>
      <point x="157" y="516" type="line"/>
      <point x="82" y="516" type="line"/>
      <point x="69" y="452" type="line"/>
      <point x="144" y="452" type="line"/>
      <point x="27" y="-136" type="line"/>
      <point x="-55" y="-136" type="line"/>
      <point x="-68" y="-200" type="line"/>
      <point x="19" y="-200" type="line" smooth="yes"/>
      <point x="69" y="-200"/>
      <point x="92" y="-179"/>
      <point x="102" y="-129" type="curve" smooth="yes"/>
    </contour>
  </outline>
</glyph>
<glyph name="j" format="1">
  <advance width="243"/>
  <unicode hex="006A"/>
  <outline>
    <contour>
      <point x="7" y="-136" type="line" name="hr00"/>
      <point x="-67" y="-136" type="line"/>
      <point x="-80" y="-200" type="line"/>
      <point x="-2" y="-200" type="line" smooth="yes"/>
      <point x="49" y="-200"/>
      <point x="72" y="-179"/>
      <point x="82" y="-129" type="curve" smooth="yes"/>
      <point x="211" y="516" type="line"/>
      <point x="137" y="516" type="line"/>
    </contour>
    <contour>
      <point x="200" y="641" type="curve" smooth="yes"/>
      <point x="230" y="641"/>
      <point x="246" y="657"/>
      <point x="252" y="680" type="curve" smooth="yes"/>
      <point x="255" y="691"/>
      <point x="256" y="699"/>
      <point x="256" y="704" type="curve" smooth="yes"/>
      <point x="256" y="728"/>
      <point x="240" y="739"/>
      <point x="216" y="739" type="curve" smooth="yes"/>
      <point x="186" y="739"/>
      <point x="170" y="723"/>
      <point x="164" y="700" type="curve" smooth="yes"/>
      <point x="161" y="689"/>
      <point x="160" y="681"/>
      <point x="160" y="676" type="curve" smooth="yes"/>
      <point x="160" y="652"/>
      <point x="176" y="641"/>
    </contour>
  </outline>
</glyph>
<glyph name="l" format="1">
  <advance width="248"/>
  <unicode hex="006C"/>
  <outline>
    <contour>
      <point x="171" y="0" type="line" name="hr00"/>
      <point x="184" y="64" type="line"/>
      <point x="115" y="64" type="line"/>
      <point x="250" y="740" type="line"/>
      <point x="176" y="740" type="line"/>
      <point x="43" y="75" type="line" smooth="yes"/>
      <point x="41" y="65"/>
      <point x="39" y="55"/>
      <point x="39" y="45" type="curve" smooth="yes"/>
      <point x="39" y="14"/>
      <point x="57" y="0"/>
      <point x="89" y="0" type="curve" smooth="yes"/>
    </contour>
    <contour>
      <point x="102" y="0" type="move" name="bottom"/>
    </contour>
    <contour>
      <point x="212" y="740" type="move" name="top"/>
    </contour>
    <contour>
      <point x="306" y="740" type="move" name="topright"/>
    </contour>
  </outline>
</glyph>
<glyph name="t" format="1">
  <advance width="293"/>
  <unicode hex="0074"/>
  <outline>
    <contour>
      <point x="208" y="0" type="line" name="hr00"/>
      <point x="221" y="64" type="line"/>
      <point x="128" y="64" type="line"/>
      <point x="205" y="452" type="line"/>
      <point x="303" y="452" type="line"/>
      <point x="316" y="516" type="line"/>
      <point x="218" y="516" type="line"/>
      <point x="247" y="658" type="line"/>
      <point x="177" y="658" type="line"/>
      <point x="157" y="558" type="line" smooth="yes"/>
      <point x="150" y="524"/>
      <point x="144" y="516"/>
      <point x="112" y="516" type="curve" smooth="yes"/>
      <point x="76" y="516" type="line"/>
      <point x="63" y="452" type="line"/>
      <point x="131" y="452" type="line"/>
      <point x="56" y="75" type="line" smooth="yes"/>
      <point x="54" y="65"/>
      <point x="52" y="55"/>
      <point x="52" y="45" type="curve" smooth="yes"/>
      <point x="52" y="14"/>
      <point x="70" y="0"/>
      <point x="102" y="0" type="curve" smooth="yes"/>
    </contour>
    <contour>
      <point x="124" y="0" type="move" name="bottom"/>
    </contour>
    <contour>
      <point x="319" y="751" type="move" name="topright"/>
    </contour>
  </outline>
</glyph>
<glyph name="z" format="1">
  <advance width="412"/>
  <unicode hex="007A"/>
  <outline>
    <contour>
      <point x="332" y="0" type="line" name="hr00"/>
      <point x="345" y="64" type="line"/>
      <point x="93" y="64" type="line"/>
      <point x="410" y="456" type="line"/>
      <point x="422" y="516" type="line"/>
      <point x="96" y="516" type="line"/>
      <point x="83" y="452" type="line"/>
      <point x="322" y="452" type="line"/>
      <point x="5" y="60" type="line"/>
      <point x="-7" y="0" type="line"/>
    </contour>
    <contour>
      <point x="163" y="0" type="move" name="bottom"/>
    </contour>
    <contour>
      <point x="265" y="540" type="move" name="top"/>
    </contour>
  </outline>
</glyph>
<glyph name="bar" format="1">
  <advance width="294"/>
  <unicode hex="007C"/>
  <outline>
    <contour>
      <point x="100" y="-138" type="line" name="hr00"/>
      <point x="280" y="760" type="line"/>
      <point x="217" y="760" type="line"/>
      <point x="37" y="-138" type="line"/>
    </contour>
  </outline>
</glyph>
<glyph name="braceright" format="1">
  <advance width="303"/>
  <unicode hex="007D"/>
  <outline>
    <contour>
      <point x="-24" y="-138" type="line"/>
      <point x="77" y="-138" type="line" smooth="yes"/>
      <point x="107" y="-138"/>
      <point x="126" y="-118"/>
      <point x="134" y="-79" type="curve" smooth="yes"/>
      <point x="192" y="211" type="line" smooth="yes"/>
      <point x="202" y="259"/>
      <point x="229" y="274"/>
      <point x="286" y="274" type="curve"/>
      <point x="301" y="348" type="line"/>
      <point x="259" y="348"/>
      <point x="231" y="362"/>
      <point x="231" y="395" type="curve" smooth="yes"/>
      <point x="231" y="405"/>
      <point x="232" y="413"/>
      <point x="235" y="426" type="curve" smooth="yes"/>
      <point x="286" y="680" type="line" smooth="yes"/>
      <point x="290" y="699"/>
      <point x="291" y="709"/>
      <point x="291" y="718" type="curve" smooth="yes" name="hr01"/>
      <point x="291" y="742"/>
      <point x="273" y="760"/>
      <point x="240" y="760" type="curve" smooth="yes"/>
      <point x="156" y="760" type="line"/>
      <point x="144" y="702" type="line"/>
      <point x="224" y="702" type="line"/>
      <point x="171" y="436" type="line" smooth="yes"/>
      <point x="168" y="423"/>
      <point x="165" y="406"/>
      <point x="165" y="394" type="curve" smooth="yes" name="hr02"/>
      <point x="165" y="353"/>
      <point x="192" y="331"/>
      <point x="240" y="321" type="curve"/>
      <point x="238" y="309" type="line"/>
      <point x="163" y="299"/>
      <point x="136" y="261"/>
      <point x="124" y="203" type="curve" smooth="yes"/>
      <point x="68" y="-80" type="line"/>
      <point x="-12" y="-80" type="line"/>
    </contour>
  </outline>
</glyph>
<glyph name="sterling" format="1">
  <advance width="528"/>
  <unicode hex="00A3"/>
  <outline>
    <contour>
      <point x="410" y="0" type="line"/>
      <point x="423" y="67" type="line"/>
      <point x="87" y="67" type="line"/>
      <point x="89" y="76" type="line"/>
      <point x="162" y="102"/>
      <point x="215" y="185"/>
      <point x="215" y="284" type="curve" smooth="yes"/>
      <point x="215" y="285"/>
      <point x="215.0" y="287"/>
      <point x="215" y="288" type="curve"/>
      <point x="386" y="288" type="line"/>
      <point x="399" y="351" type="line"/>
      <point x="214" y="351" type="line"/>
      <point x="212" y="382"/>
      <point x="210" y="416"/>
      <point x="210" y="445" type="curve" smooth="yes" name=""/>
      <point x="210" y="576"/>
      <point x="262" y="643"/>
      <point x="359" y="643" type="curve" smooth="yes"/>
      <point x="428" y="643"/>
      <point x="452" y="608"/>
      <point x="477" y="552" type="curve"/>
      <point x="543" y="594" type="line"/>
      <point x="511" y="661"/>
      <point x="464" y="710"/>
      <point x="364" y="710" type="curve" smooth="yes"/>
      <point x="220" y="710"/>
      <point x="133" y="609"/>
      <point x="133" y="451" type="curve" smooth="yes"/>
      <point x="133" y="423"/>
      <point x="136" y="386"/>
      <point x="138" y="351" type="curve"/>
      <point x="74" y="351" type="line"/>
      <point x="61" y="288" type="line"/>
      <point x="140" y="288" type="line" name=""/>
      <point x="140" y="287"/>
      <point x="140" y="286"/>
      <point x="140" y="285" type="curve" smooth="yes"/>
      <point x="140" y="229"/>
      <point x="126" y="126"/>
      <point x="43" y="94" type="curve"/>
      <point x="24" y="0" type="line"/>
    </contour>
  </outline>
</glyph>
<glyph name="currency" format="1">
  <advance width="544"/>
  <unicode hex="00A4"/>
  <outline>
    <contour>
      <point x="252" y="119" type="curve" smooth="yes" name="hr00"/>
      <point x="288" y="119"/>
      <point x="320" y="125"/>
      <point x="348" y="138" type="curve"/>
      <point x="397" y="23" type="line"/>
      <point x="459" y="56" type="line"/>
      <point x="407" y="178" type="line"/>
      <point x="447" y="217"/>
      <point x="474" y="273"/>
      <point x="486" y="343" type="curve" smooth="yes"/>
      <point x="489" y="362"/>
      <point x="491" y="379"/>
      <point x="491" y="396" type="curve" smooth="yes"/>
      <point x="491" y="442"/>
      <point x="480" y="481"/>
      <point x="459" y="512" type="curve"/>
      <point x="557" y="638" type="line"/>
      <point x="497" y="675" type="line"/>
      <point x="407" y="558" type="line"/>
      <point x="384" y="571"/>
      <point x="352" y="579"/>
      <point x="317" y="579" type="curve" smooth="yes"/>
      <point x="281" y="579"/>
      <point x="249" y="573"/>
      <point x="221" y="560" type="curve"/>
      <point x="172" y="675" type="line"/>
      <point x="110" y="642" type="line"/>
      <point x="162" y="520" type="line"/>
      <point x="122" y="481"/>
      <point x="95" y="425"/>
      <point x="83" y="355" type="curve" smooth="yes"/>
      <point x="80" y="336"/>
      <point x="78" y="319"/>
      <point x="78" y="302" type="curve" smooth="yes"/>
      <point x="78" y="256"/>
      <point x="89" y="217"/>
      <point x="110" y="186" type="curve"/>
      <point x="12" y="60" type="line"/>
      <point x="72" y="23" type="line"/>
      <point x="162" y="140" type="line"/>
      <point x="185" y="127"/>
      <point x="217" y="119"/>
    </contour>
    <contour>
      <point x="257" y="185" type="curve" smooth="yes"/>
      <point x="197" y="185"/>
      <point x="158" y="218"/>
      <point x="158" y="283" type="curve" smooth="yes"/>
      <point x="158" y="294"/>
      <point x="159" y="307"/>
      <point x="161" y="319" type="curve" smooth="yes"/>
      <point x="171" y="381" type="line" smooth="yes"/>
      <point x="186" y="469"/>
      <point x="241" y="513"/>
      <point x="312" y="513" type="curve" smooth="yes"/>
      <point x="372" y="513"/>
      <point x="411" y="480"/>
      <point x="411" y="415" type="curve" smooth="yes"/>
      <point x="411" y="404"/>
      <point x="410" y="391"/>
      <point x="408" y="379" type="curve" smooth="yes"/>
      <point x="398" y="317" type="line" smooth="yes"/>
      <point x="383" y="229"/>
      <point x="328" y="185"/>
    </contour>
  </outline>
</glyph>
<glyph name="yen" format="1">
  <advance width="538"/>
  <unicode hex="00A5"/>
  <outline>
    <contour>
      <point x="435" y="146" type="line" name="hr00"/>
      <point x="448" y="209" type="line"/>
      <point x="298" y="209" type="line"/>
      <point x="318" y="309" type="line"/>
      <point x="467" y="309" type="line"/>
      <point x="480" y="372" type="line"/>
      <point x="365" y="372" type="line"/>
      <point x="596" y="698" type="line"/>
      <point x="508" y="698" type="line"/>
      <point x="296" y="382" type="line"/>
      <point x="286" y="382" type="line"/>
      <point x="201" y="698" type="line"/>
      <point x="123" y="698" type="line"/>
      <point x="218" y="372" type="line"/>
      <point x="103" y="372" type="line"/>
      <point x="90" y="309" type="line"/>
      <point x="241" y="309" type="line"/>
      <point x="221" y="209" type="line"/>
      <point x="71" y="209" type="line"/>
      <point x="58" y="146" type="line"/>
      <point x="208" y="146" type="line"/>
      <point x="179" y="0" type="line"/>
      <point x="256" y="0" type="line"/>
      <point x="285" y="146" type="line"/>
    </contour>
  </outline>
</glyph>
<glyph name="section" format="1">
  <advance width="512"/>
  <unicode hex="00A7"/>
  <outline>
    <contour>
      <point x="452" y="293" type="curve" smooth="yes" name=""/>
      <point x="452" y="354"/>
      <point x="425" y="400"/>
      <point x="348" y="429" type="curve" smooth="yes"/>
      <point x="287" y="452" type="line" smooth="yes"/>
      <point x="239" y="470"/>
      <point x="224" y="501"/>
      <point x="224" y="543" type="curve" smooth="yes"/>
      <point x="224" y="606"/>
      <point x="268" y="645"/>
      <point x="337" y="645" type="curve" smooth="yes"/>
      <point x="383" y="645"/>
      <point x="420" y="628"/>
      <point x="445" y="601" type="curve"/>
      <point x="496" y="653" type="line"/>
      <point x="460" y="691"/>
      <point x="406" y="710"/>
      <point x="345" y="710" type="curve" smooth="yes"/>
      <point x="231" y="710"/>
      <point x="150" y="643"/>
      <point x="150" y="535" type="curve" smooth="yes"/>
      <point x="150" y="491"/>
      <point x="164" y="452"/>
      <point x="197" y="422" type="curve"/>
      <point x="195" y="414" type="line"/>
      <point x="123" y="401"/>
      <point x="68" y="349"/>
      <point x="68" y="263" type="curve" smooth="yes"/>
      <point x="68" y="202"/>
      <point x="95" y="156"/>
      <point x="172" y="127" type="curve" smooth="yes"/>
      <point x="233" y="104" type="line" smooth="yes"/>
      <point x="280" y="86"/>
      <point x="296" y="55"/>
      <point x="296" y="13" type="curve" smooth="yes"/>
      <point x="296" y="-50"/>
      <point x="252" y="-89"/>
      <point x="183" y="-89" type="curve" smooth="yes"/>
      <point x="137" y="-89"/>
      <point x="100" y="-72"/>
      <point x="75" y="-45" type="curve"/>
      <point x="24" y="-97" type="line"/>
      <point x="60" y="-135"/>
      <point x="114" y="-154"/>
      <point x="175" y="-154" type="curve" smooth="yes"/>
      <point x="289" y="-154"/>
      <point x="370" y="-87"/>
      <point x="370" y="21" type="curve" smooth="yes"/>
      <point x="370" y="65"/>
      <point x="356" y="104"/>
      <point x="323" y="134" type="curve"/>
      <point x="325" y="142" type="line"/>
      <point x="397" y="155"/>
      <point x="452" y="207"/>
    </contour>
    <contour>
      <point x="378" y="274" type="curve" smooth="yes"/>
      <point x="378" y="216"/>
      <point x="346" y="176"/>
      <point x="295" y="152" type="curve"/>
      <point x="284" y="156"/>
      <point x="279" y="158"/>
      <point x="263" y="164" type="curve" smooth="yes"/>
      <point x="220" y="180" type="line" smooth="yes"/>
      <point x="173" y="198"/>
      <point x="142" y="225"/>
      <point x="142" y="282" type="curve" smooth="yes"/>
      <point x="142" y="340"/>
      <point x="174" y="380"/>
      <point x="225" y="404" type="curve"/>
      <point x="236" y="400"/>
      <point x="241" y="398"/>
      <point x="257" y="392" type="curve" smooth="yes"/>
      <point x="300" y="376" type="line" smooth="yes"/>
      <point x="347" y="358"/>
      <point x="378" y="331"/>
    </contour>
  </outline>
</glyph>
<glyph name="dieresis" format="1">
  <advance width="540"/>
  <unicode hex="00A8"/>
  <outline>
    <contour>
      <point x="200" y="620" type="curve" smooth="yes" name="hr00"/>
      <point x="234" y="620"/>
      <point x="249" y="631"/>
      <point x="256" y="661" type="curve" smooth="yes"/>
      <point x="259" y="674"/>
      <point x="260" y="680"/>
      <point x="260" y="689" type="curve" smooth="yes"/>
      <point x="260" y="707"/>
      <point x="246" y="718"/>
      <point x="220" y="718" type="curve" smooth="yes"/>
      <point x="186" y="718"/>
      <point x="171" y="707"/>
      <point x="164" y="677" type="curve" smooth="yes"/>
      <point x="161" y="664"/>
      <point x="160" y="658"/>
      <point x="160" y="649" type="curve" smooth="yes"/>
      <point x="160" y="631"/>
      <point x="174" y="620"/>
    </contour>
    <contour>
      <point x="368" y="620" type="curve" smooth="yes"/>
      <point x="402" y="620"/>
      <point x="417" y="631"/>
      <point x="424" y="661" type="curve" smooth="yes"/>
      <point x="427" y="674"/>
      <point x="428" y="680"/>
      <point x="428" y="689" type="curve" smooth="yes"/>
      <point x="428" y="707"/>
      <point x="414" y="718"/>
      <point x="388" y="718" type="curve" smooth="yes"/>
      <point x="354" y="718"/>
      <point x="339" y="707"/>
      <point x="332" y="677" type="curve" smooth="yes"/>
      <point x="329" y="664"/>
      <point x="328" y="658"/>
      <point x="328" y="649" type="curve" smooth="yes"/>
      <point x="328" y="631"/>
      <point x="342" y="620"/>
    </contour>
    <contour>
      <point x="270" y="540" type="move" name="_top"/>
    </contour>
  </outline>
</glyph>
<glyph name="ordfeminine" format="1">
  <advance width="353"/>
  <unicode hex="00AA"/>
  <outline>
    <contour>
      <point x="343" y="402" type="line"/>
      <point x="311" y="402" type="line"/>
      <point x="344" y="564" type="line" smooth="yes"/>
      <point x="348" y="582"/>
      <point x="349" y="596"/>
      <point x="349" y="609" type="curve" smooth="yes"/>
      <point x="349" y="673"/>
      <point x="311" y="704"/>
      <point x="243" y="704" type="curve" smooth="yes"/>
      <point x="182" y="704"/>
      <point x="139" y="671"/>
      <point x="113" y="635" type="curve"/>
      <point x="146" y="604" type="line"/>
      <point x="165" y="634"/>
      <point x="196" y="656"/>
      <point x="235" y="656" type="curve" smooth="yes"/>
      <point x="277" y="656"/>
      <point x="291" y="640"/>
      <point x="291" y="606" type="curve" smooth="yes"/>
      <point x="291" y="595"/>
      <point x="290" y="586"/>
      <point x="288" y="575" type="curve" smooth="yes"/>
      <point x="282" y="546" type="line"/>
      <point x="215" y="546" type="line" smooth="yes"/>
      <point x="119" y="546"/>
      <point x="68.0" y="504"/>
      <point x="68" y="420" type="curve" smooth="yes"/>
      <point x="68" y="374"/>
      <point x="97" y="344"/>
      <point x="149" y="344" type="curve" smooth="yes" name=""/>
      <point x="199" y="344"/>
      <point x="231" y="367"/>
      <point x="248" y="402" type="curve" name=""/>
      <point x="286" y="402" type="line"/>
      <point x="262" y="434" type="line"/>
      <point x="260" y="424" type="line" smooth="yes"/>
      <point x="255" y="400"/>
      <point x="254.0" y="389"/>
      <point x="254" y="382" type="curve" smooth="yes"/>
      <point x="254" y="362"/>
      <point x="264" y="350"/>
      <point x="290" y="350" type="curve" smooth="yes"/>
      <point x="332" y="350" type="line"/>
    </contour>
    <contour>
      <point x="274" y="503" type="line"/>
      <point x="264" y="456" type="line" smooth="yes"/>
      <point x="256" y="419"/>
      <point x="217" y="392"/>
      <point x="170" y="392" type="curve" smooth="yes" name=""/>
      <point x="141" y="392"/>
      <point x="126" y="404"/>
      <point x="126" y="425" type="curve" smooth="yes"/>
      <point x="126" y="430"/>
      <point x="127" y="437"/>
      <point x="130" y="454" type="curve" smooth="yes"/>
      <point x="136" y="487"/>
      <point x="161" y="503"/>
      <point x="207" y="503" type="curve" smooth="yes"/>
    </contour>
  </outline>
</glyph>
<glyph name="logicalnot" format="1">
  <advance width="540"/>
  <unicode hex="00AC"/>
  <outline>
    <contour>
      <point x="443" y="78" type="line" name="hr00"/>
      <point x="495" y="336" type="line"/>
      <point x="77" y="336" type="line"/>
      <point x="65" y="274" type="line"/>
      <point x="413" y="274" type="line"/>
      <point x="373" y="78" type="line"/>
    </contour>
  </outline>
</glyph>
<glyph name="macron" format="1">
  <advance width="540"/>
  <unicode hex="00AF"/>
  <outline>
    <contour>
      <point x="162" y="640" type="line" name="hr00"/>
      <point x="408" y="640" type="line"/>
      <point x="420" y="702" type="line"/>
      <point x="174" y="702" type="line"/>
    </contour>
    <contour>
      <point x="270" y="540" type="move" name="_top"/>
    </contour>
  </outline>
</glyph>
<glyph name="degree" format="1">
  <advance width="420"/>
  <unicode hex="00B0"/>
  <outline>
    <contour>
      <point x="244" y="384" type="curve" smooth="yes" name="hr00"/>
      <point x="351" y="384"/>
      <point x="423" y="465"/>
      <point x="423" y="571" type="curve" smooth="yes"/>
      <point x="423" y="655"/>
      <point x="367" y="710"/>
      <point x="288" y="710" type="curve" smooth="yes"/>
      <point x="182" y="710"/>
      <point x="109" y="629"/>
      <point x="109" y="523" type="curve" smooth="yes"/>
      <point x="109" y="439"/>
      <point x="166" y="384"/>
    </contour>
    <contour>
      <point x="252" y="441" type="curve" smooth="yes"/>
      <point x="203" y="441"/>
      <point x="172" y="475"/>
      <point x="172" y="526" type="curve" smooth="yes"/>
      <point x="172" y="599"/>
      <point x="214" y="653"/>
      <point x="279" y="653" type="curve" smooth="yes"/>
      <point x="330" y="653"/>
      <point x="360" y="619"/>
      <point x="360" y="568" type="curve" smooth="yes"/>
      <point x="360" y="494"/>
      <point x="319" y="441"/>
    </contour>
  </outline>
</glyph>
<glyph name="plusminus" format="1">
  <advance width="540"/>
  <unicode hex="00B1"/>
  <outline>
    <contour>
      <point x="288" y="169" type="line" name="hr00"/>
      <point x="325" y="352" type="line"/>
      <point x="499" y="352" type="line"/>
      <point x="511" y="414" type="line"/>
      <point x="337" y="414" type="line"/>
      <point x="374" y="597" type="line"/>
      <point x="304" y="597" type="line"/>
      <point x="267" y="414" type="line"/>
      <point x="93" y="414" type="line"/>
      <point x="81" y="352" type="line"/>
      <point x="255" y="352" type="line"/>
      <point x="218" y="169" type="line"/>
    </contour>
    <contour>
      <point x="428" y="0" type="line"/>
      <point x="440" y="62" type="line"/>
      <point x="22" y="62" type="line"/>
      <point x="10" y="0" type="line"/>
    </contour>
  </outline>
</glyph>
<glyph name="acute" format="1">
  <advance width="540"/>
  <unicode hex="00B4"/>
  <outline>
    <contour>
      <point x="403" y="742" type="line" name="hr00"/>
      <point x="342" y="779" type="line"/>
      <point x="244" y="611" type="line"/>
      <point x="289" y="585" type="line"/>
    </contour>
    <contour>
      <point x="270" y="540" type="move" name="_top"/>
    </contour>
  </outline>
</glyph>
<glyph name="mu" format="1">
  <advance width="514"/>
  <unicode hex="00B5"/>
  <outline>
    <contour>
      <point x="60" y="-200" type="line"/>
      <point x="91" y="-44" type="line"/>
      <point x="99" y="42" type="line"/>
      <point x="107" y="42" type="line"/>
      <point x="109" y="7"/>
      <point x="140" y="-12"/>
      <point x="178" y="-12" type="curve" smooth="yes"/>
      <point x="234" y="-12"/>
      <point x="284" y="30"/>
      <point x="310" y="101" type="curve"/>
      <point x="320" y="101" type="line"/>
      <point x="315" y="77" type="line" smooth="yes"/>
      <point x="313" y="67"/>
      <point x="311" y="57"/>
      <point x="311" y="47" type="curve" smooth="yes"/>
      <point x="311" y="16"/>
      <point x="329" y="0"/>
      <point x="360" y="0" type="curve" smooth="yes" name="hr01"/>
      <point x="438" y="0" type="line"/>
      <point x="451" y="64" type="line"/>
      <point x="387" y="64" type="line"/>
      <point x="477" y="516" type="line"/>
      <point x="403" y="516" type="line"/>
      <point x="343" y="216" type="line" smooth="yes"/>
      <point x="336" y="180"/>
      <point x="314" y="128"/>
      <point x="286" y="95" type="curve" smooth="yes"/>
      <point x="263" y="68"/>
      <point x="236" y="54"/>
      <point x="200" y="54" type="curve" smooth="yes" name="hr02"/>
      <point x="155" y="54"/>
      <point x="131" y="75"/>
      <point x="131" y="128" type="curve" smooth="yes"/>
      <point x="131" y="146"/>
      <point x="134" y="170"/>
      <point x="139" y="194" type="curve" smooth="yes"/>
      <point x="203" y="516" type="line"/>
      <point x="129" y="516" type="line"/>
      <point x="-14" y="-200" type="line"/>
    </contour>
  </outline>
</glyph>
<glyph name="paragraph" format="1">
  <advance width="567"/>
  <unicode hex="00B6"/>
  <outline>
    <contour>
      <point x="127" y="-149" type="line" name="hr00"/>
      <point x="194" y="-149" type="line"/>
      <point x="351" y="635" type="line"/>
      <point x="445" y="635" type="line"/>
      <point x="288" y="-149" type="line"/>
      <point x="353" y="-149" type="line"/>
      <point x="510" y="635" type="line"/>
      <point x="567" y="635" type="line"/>
      <point x="580" y="698" type="line"/>
      <point x="297" y="698" type="line" smooth="yes"/>
      <point x="172" y="698"/>
      <point x="84" y="612"/>
      <point x="84" y="472" type="curve" smooth="yes"/>
      <point x="84" y="382"/>
      <point x="135" y="304"/>
      <point x="218" y="304" type="curve"/>
    </contour>
  </outline>
</glyph>
<glyph name="onesuperior" format="1">
  <advance width="320"/>
  <unicode hex="00B9"/>
  <outline>
    <contour>
      <point x="303" y="329" type="line" name="hr00"/>
      <point x="312" y="376" type="line"/>
      <point x="229" y="376" type="line"/>
      <point x="294" y="698" type="line"/>
      <point x="209" y="698" type="line"/>
      <point x="107" y="618" type="line"/>
      <point x="134" y="584" type="line"/>
      <point x="223" y="653" type="line"/>
      <point x="229" y="653" type="line"/>
      <point x="173" y="376" type="line"/>
      <point x="79" y="376" type="line"/>
      <point x="70" y="329" type="line"/>
    </contour>
  </outline>
</glyph>
<glyph name="oslash" format="1">
  <advance width="491"/>
  <unicode hex="00F8"/>
  <outline>
    <contour>
      <point x="207" y="-12" type="curve" smooth="yes" name=""/>
      <point x="328" y="-12"/>
      <point x="409" y="74"/>
      <point x="439" y="225" type="curve" smooth="yes"/>
      <point x="447" y="265"/>
      <point x="453" y="314"/>
      <point x="453" y="349" type="curve" smooth="yes"/>
      <point x="453" y="380"/>
      <point x="448" y="408"/>
      <point x="438" y="432" type="curve"/>
      <point x="516" y="518" type="line"/>
      <point x="478" y="552" type="line"/>
      <point x="411" y="478" type="line"/>
      <point x="383" y="510"/>
      <point x="340" y="528"/>
      <point x="284" y="528" type="curve" smooth="yes"/>
      <point x="163" y="528"/>
      <point x="82" y="442"/>
      <point x="52" y="291" type="curve" smooth="yes"/>
      <point x="44" y="251"/>
      <point x="38" y="202"/>
      <point x="38" y="167" type="curve" smooth="yes"/>
      <point x="38" y="136"/>
      <point x="43" y="108"/>
      <point x="53" y="84" type="curve"/>
      <point x="-25" y="-2" type="line"/>
      <point x="13" y="-36" type="line"/>
      <point x="80" y="38" type="line"/>
      <point x="108" y="6"/>
      <point x="151" y="-12"/>
    </contour>
    <contour>
      <point x="213" y="53" type="curve" smooth="yes"/>
      <point x="175" y="53"/>
      <point x="146" y="66"/>
      <point x="129" y="94" type="curve"/>
      <point x="317" y="301" type="line"/>
      <point x="384" y="385" type="line"/>
      <point x="391" y="385" type="line"/>
      <point x="389" y="375"/>
      <point x="385" y="354"/>
      <point x="383" y="344" type="curve" smooth="yes"/>
      <point x="381" y="334"/>
      <point x="377" y="313"/>
      <point x="375" y="303" type="curve"/>
      <point x="352" y="187" type="line" smooth="yes"/>
      <point x="335" y="100"/>
      <point x="288" y="53"/>
    </contour>
    <contour>
      <point x="278" y="463" type="curve" smooth="yes"/>
      <point x="316" y="463"/>
      <point x="345" y="450"/>
      <point x="362" y="422" type="curve"/>
      <point x="174" y="215" type="line"/>
      <point x="107" y="131" type="line"/>
      <point x="100" y="131" type="line"/>
      <point x="102" y="141"/>
      <point x="106" y="162"/>
      <point x="108" y="172" type="curve" smooth="yes"/>
      <point x="110" y="182"/>
      <point x="114" y="203"/>
      <point x="116" y="213" type="curve"/>
      <point x="139" y="329" type="line" smooth="yes"/>
      <point x="156" y="416"/>
      <point x="203" y="463"/>
    </contour>
    <contour>
      <point x="194.0" y="0.0" type="move" name="bottom"/>
    </contour>
    <contour>
      <point x="302.0" y="540.0" type="move" name="top"/>
    </contour>
  </outline>
</glyph>
<glyph name="aogonek" format="1">
  <advance width="523"/>
  <unicode hex="0105"/>
  <outline>
    <contour>
      <point x="460" y="64" type="line"/>
      <point x="396" y="64" type="line"/>
      <point x="486" y="516" type="line"/>
      <point x="412" y="516" type="line"/>
      <point x="395" y="432" type="line"/>
      <point x="385" y="432" type="line"/>
      <point x="379" y="495"/>
      <point x="327" y="528"/>
      <point x="268" y="528" type="curve" smooth="yes" name=""/>
      <point x="155" y="528"/>
      <point x="83" y="442"/>
      <point x="52" y="287" type="curve" smooth="yes"/>
      <point x="44" y="245"/>
      <point x="38" y="194"/>
      <point x="38" y="158" type="curve" smooth="yes"/>
      <point x="38" y="57"/>
      <point x="84" y="-12"/>
      <point x="173" y="-12" type="curve" smooth="yes"/>
      <point x="241" y="-12"/>
      <point x="290" y="28"/>
      <point x="321" y="111" type="curve"/>
      <point x="331" y="111" type="line"/>
      <point x="324" y="77" type="line" smooth="yes"/>
      <point x="322" y="67"/>
      <point x="320" y="57"/>
      <point x="320" y="47" type="curve" smooth="yes"/>
      <point x="320" y="16"/>
      <point x="339" y="0"/>
      <point x="371" y="0" type="curve" smooth="yes" name=""/>
      <point x="421" y="0" type="line"/>
      <point x="398" y="29" type="line"/>
      <point x="389" y="-9" type="line"/>
      <point x="336" y="-37"/>
      <point x="272" y="-76"/>
      <point x="272" y="-138" type="curve" smooth="yes"/>
      <point x="272" y="-182"/>
      <point x="308" y="-207"/>
      <point x="359" y="-207" type="curve" smooth="yes"/>
      <point x="404" y="-207"/>
      <point x="432" y="-189"/>
      <point x="448" y="-171" type="curve"/>
      <point x="418" y="-132" type="line"/>
      <point x="403" y="-148"/>
      <point x="384" y="-156"/>
      <point x="366" y="-156" type="curve" smooth="yes"/>
      <point x="346" y="-156"/>
      <point x="335" y="-142"/>
      <point x="335" y="-126" type="curve" smooth="yes"/>
      <point x="335" y="-90"/>
      <point x="358" y="-53"/>
      <point x="447" y="0" type="curve"/>
    </contour>
    <contour>
      <point x="202" y="54" type="curve" smooth="yes" name=""/>
      <point x="146" y="54"/>
      <point x="112" y="86"/>
      <point x="112" y="159" type="curve" smooth="yes"/>
      <point x="112" y="172"/>
      <point x="112" y="191"/>
      <point x="116" y="209" type="curve" smooth="yes"/>
      <point x="139" y="325" type="line" smooth="yes"/>
      <point x="157" y="414"/>
      <point x="204" y="463"/>
      <point x="279" y="463" type="curve" smooth="yes"/>
      <point x="349" y="463"/>
      <point x="389" y="402"/>
      <point x="380" y="356" type="curve" smooth="yes"/>
      <point x="352" y="216" type="line" smooth="yes"/>
      <point x="345" y="182"/>
      <point x="321" y="137"/>
      <point x="295" y="104" type="curve" smooth="yes"/>
      <point x="269" y="71"/>
      <point x="240" y="54"/>
    </contour>
    <contour>
      <point x="289.0" y="540.0" type="move" name="top"/>
    </contour>
  </outline>
</glyph>
<glyph name="Hbar" format="1">
  <advance width="640"/>
  <unicode hex="0126"/>
  <outline>
    <contour>
      <point x="419" y="0" type="line" name="hr00"/>
      <point x="496" y="0" type="line"/>
      <point x="600" y="520" type="line"/>
      <point x="660" y="520" type="line"/>
      <point x="672" y="578" type="line"/>
      <point x="612" y="578" type="line"/>
      <point x="636" y="698" type="line"/>
      <point x="559" y="698" type="line"/>
      <point x="535" y="578" type="line"/>
      <point x="233" y="578" type="line"/>
      <point x="257" y="698" type="line"/>
      <point x="180" y="698" type="line"/>
      <point x="156" y="578" type="line"/>
      <point x="96" y="578" type="line"/>
      <point x="84" y="520" type="line"/>
      <point x="144" y="520" type="line"/>
      <point x="40" y="0" type="line"/>
      <point x="117" y="0" type="line"/>
      <point x="181" y="321" type="line"/>
      <point x="483" y="321" type="line"/>
    </contour>
    <contour>
      <point x="195" y="388" type="line"/>
      <point x="221" y="520" type="line"/>
      <point x="523" y="520" type="line"/>
      <point x="497" y="388" type="line"/>
    </contour>
  </outline>
</glyph>
<glyph name="iogonek" format="1">
  <advance width="248"/>
  <unicode hex="012F"/>
  <outline>
    <contour>
      <point x="180" y="64" type="line"/>
      <point x="116" y="64" type="line"/>
      <point x="206" y="516" type="line"/>
      <point x="132" y="516" type="line"/>
      <point x="44" y="75" type="line" smooth="yes"/>
      <point x="42" y="65"/>
      <point x="40" y="55"/>
      <point x="40" y="45" type="curve" smooth="yes"/>
      <point x="40" y="14"/>
      <point x="58" y="0"/>
      <point x="90" y="0" type="curve" smooth="yes"/>
      <point x="111" y="0" type="line"/>
      <point x="109" y="-9" type="line"/>
      <point x="56" y="-37"/>
      <point x="-8" y="-76"/>
      <point x="-8" y="-138" type="curve" smooth="yes" name="hr01"/>
      <point x="-8" y="-182"/>
      <point x="28" y="-207"/>
      <point x="79" y="-207" type="curve" smooth="yes"/>
      <point x="124" y="-207"/>
      <point x="152" y="-189"/>
      <point x="168" y="-171" type="curve"/>
      <point x="138" y="-132" type="line"/>
      <point x="123" y="-148"/>
      <point x="104" y="-156"/>
      <point x="86" y="-156" type="curve" smooth="yes"/>
      <point x="66" y="-156"/>
      <point x="55" y="-142"/>
      <point x="55" y="-126" type="curve" smooth="yes"/>
      <point x="55" y="-90"/>
      <point x="78" y="-53"/>
      <point x="167" y="0" type="curve"/>
    </contour>
    <contour>
      <point x="195" y="641" type="curve" smooth="yes"/>
      <point x="225" y="641"/>
      <point x="241" y="657"/>
      <point x="247" y="680" type="curve" smooth="yes"/>
      <point x="250" y="691"/>
      <point x="251" y="699"/>
      <point x="251" y="704" type="curve" smooth="yes"/>
      <point x="251" y="728"/>
      <point x="235" y="739"/>
      <point x="211" y="739" type="curve" smooth="yes"/>
      <point x="181" y="739"/>
      <point x="165" y="723"/>
      <point x="159" y="700" type="curve" smooth="yes"/>
      <point x="156" y="689"/>
      <point x="155" y="681"/>
      <point x="155" y="676" type="curve" smooth="yes"/>
      <point x="155" y="652"/>
      <point x="171" y="641"/>
    </contour>
  </outline>
</glyph>
<glyph name="Lcommaaccent" format="1">
  <advance width="439"/>
  <unicode hex="013B"/>
  <outline>
    <component base="L"/>
    <component base="commabelowcomb" xOffset="201"/>
    <contour>
      <point x="212.0" y="698.0" type="move" name="top"/>
    </contour>
    <contour>
      <point x="328.0" y="740.0" type="move" name="topright"/>
    </contour>
  </outline>
</glyph>
<glyph name="lcaron" format="1">
  <advance width="248"/>
  <unicode hex="013E"/>
  <outline>
    <component base="l"/>
    <component base="caronslovak" xOffset="36"/>
    <contour>
      <point x="102.0" y="0.0" type="move" name="bottom"/>
    </contour>
    <contour>
      <point x="212.0" y="740.0" type="move" name="top"/>
    </contour>
  </outline>
</glyph>
<glyph name="Lslash" format="1">
  <advance width="447"/>
  <unicode hex="0141"/>
  <outline>
    <contour>
      <point x="390" y="67" type="line" name="hr00"/>
      <point x="132" y="67" type="line"/>
      <point x="179" y="302" type="line"/>
      <point x="344" y="360" type="line"/>
      <point x="358" y="426" type="line"/>
      <point x="192" y="365" type="line"/>
      <point x="259" y="698" type="line"/>
      <point x="182" y="698" type="line"/>
      <point x="109" y="335" type="line"/>
      <point x="12" y="300" type="line"/>
      <point x="0" y="239" type="line"/>
      <point x="97" y="273" type="line"/>
      <point x="42" y="0" type="line"/>
      <point x="376" y="0" type="line"/>
    </contour>
  </outline>
</glyph>
<glyph name="lslash" format="1">
  <advance width="256"/>
  <unicode hex="0142"/>
  <outline>
    <contour>
      <point x="187" y="64" type="line" name="hr00"/>
      <point x="118" y="64" type="line"/>
      <point x="176" y="353" type="line"/>
      <point x="273" y="386" type="line"/>
      <point x="286" y="449" type="line"/>
      <point x="188" y="416" type="line"/>
      <point x="253" y="740" type="line"/>
      <point x="179" y="740" type="line"/>
      <point x="109" y="389" type="line"/>
      <point x="45" y="367" type="line"/>
      <point x="32" y="304" type="line"/>
      <point x="97" y="326" type="line"/>
      <point x="46" y="75" type="line" smooth="yes"/>
      <point x="44" y="65"/>
      <point x="42" y="55"/>
      <point x="42" y="45" type="curve" smooth="yes"/>
      <point x="42" y="14"/>
      <point x="60" y="0"/>
      <point x="92" y="0" type="curve" smooth="yes"/>
      <point x="174" y="0" type="line"/>
    </contour>
  </outline>
</glyph>
<glyph name="Eng" format="1">
  <advance width="628"/>
  <unicode hex="014A"/>
  <outline>
    <contour>
      <point x="109" y="0" type="line" name="hr00"/>
      <point x="200" y="453" type="line"/>
      <point x="222" y="608" type="line"/>
      <point x="232" y="608" type="line"/>
      <point x="267" y="453" type="line"/>
      <point x="397" y="0" type="line"/>
      <point x="415" y="0" type="line"/>
      <point x="388" y="-136" type="line"/>
      <point x="315" y="-136" type="line"/>
      <point x="302" y="-200" type="line"/>
      <point x="380" y="-200" type="line" smooth="yes"/>
      <point x="431" y="-200"/>
      <point x="454" y="-179"/>
      <point x="464" y="-129" type="curve" smooth="yes"/>
      <point x="630" y="698" type="line"/>
      <point x="555" y="698" type="line"/>
      <point x="464" y="245" type="line"/>
      <point x="442" y="90" type="line"/>
      <point x="432" y="90" type="line"/>
      <point x="397" y="245" type="line"/>
      <point x="267" y="698" type="line"/>
      <point x="174" y="698" type="line"/>
      <point x="34" y="0" type="line"/>
    </contour>
  </outline>
</glyph>
<glyph name="OE" format="1">
  <advance width="853"/>
  <unicode hex="0152"/>
  <outline>
    <contour>
      <point x="758" y="0" type="line"/>
      <point x="772" y="67" type="line"/>
      <point x="461" y="67" type="line"/>
      <point x="512" y="321" type="line"/>
      <point x="777" y="321" type="line"/>
      <point x="791" y="388" type="line"/>
      <point x="526" y="388" type="line"/>
      <point x="574" y="631" type="line"/>
      <point x="867" y="631" type="line"/>
      <point x="881" y="698" type="line"/>
      <point x="504" y="698" type="line"/>
      <point x="472" y="705"/>
      <point x="424" y="710"/>
      <point x="377" y="710" type="curve" smooth="yes" name="hr01"/>
      <point x="210" y="710"/>
      <point x="111" y="588"/>
      <point x="71" y="401" type="curve" smooth="yes"/>
      <point x="60" y="349"/>
      <point x="47" y="272"/>
      <point x="47" y="219" type="curve" smooth="yes"/>
      <point x="47" y="91"/>
      <point x="117" y="-12"/>
      <point x="271" y="-12" type="curve" smooth="yes"/>
      <point x="297" y="-12"/>
      <point x="335" y="-8"/>
      <point x="368" y="0" type="curve" name="hr02"/>
    </contour>
    <contour>
      <point x="278" y="56" type="curve" smooth="yes" name="hr03"/>
      <point x="173" y="56"/>
      <point x="126" y="117"/>
      <point x="126" y="221" type="curve" smooth="yes"/>
      <point x="126" y="242"/>
      <point x="128" y="268"/>
      <point x="134" y="298" type="curve" smooth="yes"/>
      <point x="160" y="428" type="line" smooth="yes"/>
      <point x="187" y="563"/>
      <point x="250" y="642"/>
      <point x="370" y="642" type="curve" smooth="yes"/>
      <point x="416" y="642"/>
      <point x="460" y="636"/>
      <point x="496" y="627" type="curve"/>
      <point x="386" y="73" type="line"/>
      <point x="352" y="62"/>
      <point x="313" y="56"/>
    </contour>
  </outline>
</glyph>
<glyph name="rcommaaccent" format="1">
  <advance width="336"/>
  <unicode hex="0157"/>
  <outline>
    <component base="r"/>
    <component base="commabelowcomb" xOffset="65"/>
    <contour>
      <point x="247.0" y="540.0" type="move" name="top"/>
    </contour>
  </outline>
</glyph>
<glyph name="tcedilla" format="1">
  <advance width="293"/>
  <unicode hex="0163"/>
  <outline>
    <contour>
      <point x="109" y="-207" type="curve" smooth="yes" name=""/>
      <point x="169" y="-207"/>
      <point x="211" y="-177"/>
      <point x="211" y="-110" type="curve" smooth="yes"/>
      <point x="211" y="-69"/>
      <point x="195" y="-54"/>
      <point x="167" y="-54" type="curve" smooth="yes"/>
      <point x="147" y="-54"/>
      <point x="139" y="-62"/>
      <point x="133" y="-72" type="curve"/>
      <point x="125" y="-72" type="line"/>
      <point x="148" y="0" type="line"/>
      <point x="208" y="0" type="line"/>
      <point x="221" y="64" type="line"/>
      <point x="128" y="64" type="line"/>
      <point x="205" y="452" type="line"/>
      <point x="303" y="452" type="line"/>
      <point x="316" y="516" type="line"/>
      <point x="218" y="516" type="line"/>
      <point x="247" y="658" type="line"/>
      <point x="177" y="658" type="line"/>
      <point x="157" y="558" type="line" smooth="yes"/>
      <point x="150" y="524"/>
      <point x="144" y="516"/>
      <point x="112" y="516" type="curve" smooth="yes"/>
      <point x="76" y="516" type="line"/>
      <point x="63" y="452" type="line"/>
      <point x="131" y="452" type="line"/>
      <point x="56" y="75" type="line" smooth="yes"/>
      <point x="54" y="65"/>
      <point x="52" y="55"/>
      <point x="52" y="45" type="curve"/>
      <point x="52" y="14"/>
      <point x="70" y="0"/>
      <point x="102" y="0" type="curve" smooth="yes"/>
      <point x="126" y="0" type="line" name=""/>
      <point x="112" y="32" type="line"/>
      <point x="76" y="-87" type="line"/>
      <point x="109" y="-87" type="line" smooth="yes"/>
      <point x="140" y="-87"/>
      <point x="151" y="-96"/>
      <point x="151" y="-119" type="curve" smooth="yes"/>
      <point x="151" y="-143"/>
      <point x="138" y="-157"/>
      <point x="109" y="-157" type="curve" smooth="yes"/>
      <point x="81" y="-157"/>
      <point x="66" y="-144"/>
      <point x="58" y="-130" type="curve"/>
      <point x="20" y="-168" type="line"/>
      <point x="33" y="-189"/>
      <point x="62" y="-207"/>
    </contour>
  </outline>
</glyph>
<glyph name="Tbar" format="1">
  <advance width="499"/>
  <unicode hex="0166"/>
  <outline>
    <contour>
      <point x="445" y="343" type="line" name="hr00"/>
      <point x="457" y="401" type="line"/>
      <point x="317" y="401" type="line"/>
      <point x="363" y="631" type="line"/>
      <point x="553" y="631" type="line"/>
      <point x="567" y="698" type="line"/>
      <point x="110" y="698" type="line"/>
      <point x="96" y="631" type="line"/>
      <point x="286" y="631" type="line"/>
      <point x="240" y="401" type="line"/>
      <point x="100" y="401" type="line"/>
      <point x="88" y="343" type="line"/>
      <point x="228" y="343" type="line"/>
      <point x="160" y="0" type="line"/>
      <point x="237" y="0" type="line"/>
      <point x="305" y="343" type="line"/>
    </contour>
  </outline>
</glyph>
<glyph name="florin" format="1">
  <advance width="445"/>
  <unicode hex="0192"/>
  <outline>
    <contour>
      <point x="-64" y="-134" type="line" name="hr00"/>
      <point x="67" y="-134" type="line" smooth="yes"/>
      <point x="116" y="-134"/>
      <point x="145" y="-111"/>
      <point x="156" y="-67" type="curve" smooth="yes"/>
      <point x="253" y="307" type="line"/>
      <point x="406" y="307" type="line"/>
      <point x="419" y="371" type="line"/>
      <point x="270" y="371" type="line"/>
      <point x="338" y="634" type="line"/>
      <point x="472" y="634" type="line"/>
      <point x="485" y="698" type="line"/>
      <point x="349" y="698" type="line" smooth="yes"/>
      <point x="300" y="698"/>
      <point x="271" y="675"/>
      <point x="260" y="631" type="curve" smooth="yes"/>
      <point x="193" y="371" type="line"/>
      <point x="75" y="371" type="line"/>
      <point x="62" y="307" type="line"/>
      <point x="176" y="307" type="line"/>
      <point x="78" y="-70" type="line"/>
      <point x="-51" y="-70" type="line"/>
    </contour>
  </outline>
</glyph>
<glyph name="commaturnedtop" format="1">
  <advance width="540"/>
  <unicode hex="02BB"/>
  <outline>
    <contour>
      <point x="281" y="596" type="curve" smooth="yes" name="hr00"/>
      <point x="317" y="596"/>
      <point x="330" y="612"/>
      <point x="336" y="634" type="curve" smooth="yes"/>
      <point x="339" y="645"/>
      <point x="341" y="657"/>
      <point x="341" y="664" type="curve" smooth="yes"/>
      <point x="341" y="681"/>
      <point x="328" y="693"/>
      <point x="307" y="693" type="curve"/>
      <point x="320" y="721"/>
      <point x="338" y="747"/>
      <point x="371" y="774" type="curve"/>
      <point x="318" y="774" type="line"/>
      <point x="280" y="741"/>
      <point x="253" y="693"/>
      <point x="244" y="659" type="curve" smooth="yes"/>
      <point x="241" y="648"/>
      <point x="240" y="636"/>
      <point x="240" y="628" type="curve" smooth="yes"/>
      <point x="240" y="607"/>
      <point x="255" y="596"/>
    </contour>
    <contour>
      <point x="270" y="540" type="move" name="_top"/>
    </contour>
  </outline>
</glyph>
<glyph name="caronslovak" format="1">
  <advance width="540"/>
  <unicode hex="02BC"/>
  <outline>
    <contour>
      <point x="363" y="740" type="line" name="hr00"/>
      <point x="275" y="740" type="line"/>
      <point x="238" y="555" type="line"/>
      <point x="288" y="555" type="line"/>
    </contour>
    <contour>
      <point x="270" y="740" type="move" name="_topright"/>
    </contour>
  </outline>
</glyph>
<glyph name="circumflex" format="1">
  <advance width="540"/>
  <unicode hex="02C6"/>
  <outline>
    <contour>
      <point x="258" y="765" type="line" name="hr00"/>
      <point x="127" y="621" type="line"/>
      <point x="166" y="591" type="line"/>
      <point x="294" y="709" type="line"/>
      <point x="376" y="591" type="line"/>
      <point x="417" y="618" type="line"/>
      <point x="341" y="765" type="line"/>
    </contour>
    <contour>
      <point x="270" y="540" type="move" name="_top"/>
    </contour>
  </outline>
</glyph>
<glyph name="caron" format="1">
  <advance width="540"/>
  <unicode hex="02C7"/>
  <outline>
    <contour>
      <point x="319" y="599" type="line" name="hr00"/>
      <point x="450" y="743" type="line"/>
      <point x="411" y="773" type="line"/>
      <point x="283" y="655" type="line"/>
      <point x="201" y="773" type="line"/>
      <point x="160" y="746" type="line"/>
      <point x="236" y="599" type="line"/>
    </contour>
    <contour>
      <point x="270" y="540" type="move" name="_top"/>
    </contour>
  </outline>
</glyph>
<glyph name="breve" format="1">
  <advance width="540"/>
  <unicode hex="02D8"/>
  <outline>
    <contour>
      <point x="277" y="596" type="curve" smooth="yes" name="hr00"/>
      <point x="366" y="596"/>
      <point x="406" y="674"/>
      <point x="432" y="727" type="curve"/>
      <point x="390" y="743" type="line"/>
      <point x="375" y="723" type="line" smooth="yes"/>
      <point x="335" y="670"/>
      <point x="318" y="653"/>
      <point x="284" y="653" type="curve" smooth="yes"/>
      <point x="245" y="653"/>
      <point x="234" y="673"/>
      <point x="214" y="723" type="curve" smooth="yes"/>
      <point x="206" y="743" type="line"/>
      <point x="163" y="727" type="line"/>
      <point x="174" y="660"/>
      <point x="209" y="596"/>
    </contour>
    <contour>
      <point x="270" y="540" type="move" name="_top"/>
    </contour>
  </outline>
</glyph>
<glyph name="dotaccent" format="1">
  <advance width="540"/>
  <unicode hex="02D9"/>
  <outline>
    <contour>
      <point x="286" y="618" type="curve" smooth="yes" name="hr00"/>
      <point x="320" y="618"/>
      <point x="335" y="629"/>
      <point x="342" y="659" type="curve" smooth="yes"/>
      <point x="345" y="672"/>
      <point x="346" y="678"/>
      <point x="346" y="687" type="curve" smooth="yes"/>
      <point x="346" y="705"/>
      <point x="332" y="716"/>
      <point x="306" y="716" type="curve" smooth="yes"/>
      <point x="272" y="716"/>
      <point x="257" y="705"/>
      <point x="250" y="675" type="curve" smooth="yes"/>
      <point x="247" y="662"/>
      <point x="246" y="656"/>
      <point x="246" y="647" type="curve" smooth="yes"/>
      <point x="246" y="629"/>
      <point x="260" y="618"/>
    </contour>
    <contour>
      <point x="270" y="540" type="move" name="_top"/>
    </contour>
  </outline>
</glyph>
<glyph name="ring" format="1">
  <advance width="540"/>
  <unicode hex="02DA"/>
  <outline>
    <contour>
      <point x="277" y="576" type="curve" smooth="yes" name="hr00"/>
      <point x="353" y="576"/>
      <point x="405" y="626"/>
      <point x="405" y="709" type="curve" smooth="yes"/>
      <point x="405" y="778"/>
      <point x="369" y="806"/>
      <point x="313" y="806" type="curve" smooth="yes"/>
      <point x="237" y="806"/>
      <point x="185" y="756"/>
      <point x="185" y="673" type="curve" smooth="yes"/>
      <point x="185" y="604"/>
      <point x="221" y="576"/>
    </contour>
    <contour>
      <point x="286" y="622" type="curve" smooth="yes"/>
      <point x="253" y="622"/>
      <point x="237" y="637"/>
      <point x="237" y="661" type="curve" smooth="yes"/>
      <point x="237" y="671"/>
      <point x="241" y="695"/>
      <point x="246" y="719" type="curve" smooth="yes"/>
      <point x="251" y="742"/>
      <point x="266" y="760"/>
      <point x="303" y="760" type="curve" smooth="yes"/>
      <point x="336" y="760"/>
      <point x="352" y="745"/>
      <point x="352" y="721" type="curve" smooth="yes"/>
      <point x="352" y="711"/>
      <point x="348" y="687"/>
      <point x="343" y="663" type="curve" smooth="yes"/>
      <point x="338" y="640"/>
      <point x="323" y="622"/>
    </contour>
    <contour>
      <point x="270" y="540" type="move" name="_top"/>
    </contour>
  </outline>
</glyph>
<glyph name="hungarumlaut" format="1">
  <advance width="540"/>
  <unicode hex="02DD"/>
  <outline>
    <contour>
      <point x="331" y="744" type="line" name="hr00"/>
      <point x="274" y="779" type="line"/>
      <point x="175" y="608" type="line"/>
      <point x="216" y="585" type="line"/>
    </contour>
    <contour>
      <point x="475" y="744" type="line"/>
      <point x="418" y="779" type="line"/>
      <point x="319" y="608" type="line"/>
      <point x="360" y="585" type="line"/>
    </contour>
    <contour>
      <point x="270" y="540" type="move" name="_top"/>
    </contour>
  </outline>
</glyph>
<glyph name="horncomb" format="1">
  <advance width="0"/>
  <unicode hex="031B"/>
  <outline>
    <contour>
      <point x="89" y="628" type="line" name="hr00"/>
      <point x="23" y="628" type="line"/>
      <point x="1" y="516" type="line"/>
      <point x="-74" y="516" type="line"/>
      <point x="-84" y="467" type="line"/>
      <point x="11" y="467" type="line" smooth="yes"/>
      <point x="48" y="467"/>
      <point x="60" y="484"/>
      <point x="65" y="508" type="curve" smooth="yes"/>
    </contour>
  </outline>
</glyph>
<glyph name="dotbelowcomb" format="1">
  <advance width="0"/>
  <unicode hex="0323"/>
  <outline>
    <contour>
      <point x="-28" y="-166" type="curve" smooth="yes" name="hr00"/>
      <point x="6" y="-166"/>
      <point x="21" y="-155"/>
      <point x="28" y="-125" type="curve" smooth="yes"/>
      <point x="31" y="-112"/>
      <point x="32" y="-106"/>
      <point x="32" y="-97" type="curve" smooth="yes"/>
      <point x="32" y="-79"/>
      <point x="18" y="-68"/>
      <point x="-8" y="-68" type="curve" smooth="yes"/>
      <point x="-42" y="-68"/>
      <point x="-57" y="-79"/>
      <point x="-64" y="-109" type="curve" smooth="yes"/>
      <point x="-67" y="-122"/>
      <point x="-68" y="-128"/>
      <point x="-68" y="-137" type="curve" smooth="yes"/>
      <point x="-68" y="-155"/>
      <point x="-54" y="-166"/>
    </contour>
    <contour>
      <point x="0" y="0" type="move" name="_bottom"/>
    </contour>
  </outline>
</glyph>
<glyph name="commabelowcomb" format="1">
  <advance width="0"/>
  <unicode hex="0326"/>
  <outline>
    <contour>
      <point x="-8" y="-68" type="curve" smooth="yes" name="hr00"/>
      <point x="-44" y="-68"/>
      <point x="-57" y="-84"/>
      <point x="-63" y="-106" type="curve" smooth="yes"/>
      <point x="-66" y="-117"/>
      <point x="-68" y="-129"/>
      <point x="-68" y="-136" type="curve" smooth="yes"/>
      <point x="-68" y="-153"/>
      <point x="-55" y="-165"/>
      <point x="-34" y="-165" type="curve"/>
      <point x="-47" y="-193"/>
      <point x="-65" y="-219"/>
      <point x="-98" y="-246" type="curve"/>
      <point x="-45" y="-246" type="line"/>
      <point x="-7" y="-213"/>
      <point x="20" y="-165"/>
      <point x="29" y="-131" type="curve" smooth="yes"/>
      <point x="32" y="-120"/>
      <point x="33" y="-108"/>
      <point x="33" y="-100" type="curve" smooth="yes"/>
      <point x="33" y="-79"/>
      <point x="18" y="-68"/>
    </contour>
    <contour>
      <point x="0" y="0" type="move" name="_bottom"/>
    </contour>
  </outline>
</glyph>
<glyph name="pi" format="1">
  <advance width="568"/>
  <unicode hex="03C0"/>
  <outline>
    <contour>
      <point x="477" y="0" type="line" name="hr00"/>
      <point x="490" y="64" type="line"/>
      <point x="413" y="64" type="line"/>
      <point x="490" y="452" type="line"/>
      <point x="568" y="452" type="line"/>
      <point x="581" y="516" type="line"/>
      <point x="87" y="516" type="line"/>
      <point x="74" y="452" type="line"/>
      <point x="152" y="452" type="line"/>
      <point x="62" y="0" type="line"/>
      <point x="136" y="0" type="line"/>
      <point x="226" y="452" type="line"/>
      <point x="416" y="452" type="line"/>
      <point x="341" y="75" type="line" smooth="yes"/>
      <point x="339" y="65"/>
      <point x="337" y="55"/>
      <point x="337" y="45" type="curve" smooth="yes"/>
      <point x="337" y="18"/>
      <point x="356" y="0"/>
      <point x="391" y="0" type="curve" smooth="yes"/>
    </contour>
  </outline>
</glyph>
<glyph name="Germandbls" format="1">
  <advance width="642"/>
  <unicode hex="1E9E"/>
  <outline>
    <contour>
      <point x="355" y="54" type="curve" smooth="yes" name=""/>
      <point x="302" y="54"/>
      <point x="263" y="77"/>
      <point x="237" y="136" type="curve"/>
      <point x="177" y="94" type="line"/>
      <point x="208" y="19"/>
      <point x="271" y="-12"/>
      <point x="352" y="-12" type="curve" smooth="yes"/>
      <point x="471" y="-12"/>
      <point x="543" y="55"/>
      <point x="565" y="162" type="curve" smooth="yes"/>
      <point x="569" y="181"/>
      <point x="576" y="226"/>
      <point x="576" y="256" type="curve" smooth="yes"/>
      <point x="576" y="331"/>
      <point x="528" y="397"/>
      <point x="411" y="401" type="curve"/>
      <point x="412" y="404" type="line"/>
      <point x="618" y="623" type="line"/>
      <point x="633" y="698" type="line"/>
      <point x="174" y="698" type="line"/>
      <point x="34" y="0" type="line"/>
      <point x="111" y="0" type="line"/>
      <point x="237" y="631" type="line"/>
      <point x="536" y="631" type="line"/>
      <point x="329" y="406" type="line"/>
      <point x="316" y="340" type="line"/>
      <point x="396" y="340" type="line" smooth="yes"/>
      <point x="460" y="340"/>
      <point x="496" y="306"/>
      <point x="496" y="252" type="curve" smooth="yes"/>
      <point x="496" y="237"/>
      <point x="493" y="219"/>
      <point x="483" y="169" type="curve" smooth="yes"/>
      <point x="468" y="93"/>
      <point x="425" y="54"/>
    </contour>
  </outline>
</glyph>
<glyph name="endash" format="1">
  <advance width="507"/>
  <unicode hex="2013"/>
  <outline>
    <contour>
      <point x="480" y="270" type="line" name="hr00"/>
      <point x="494" y="338" type="line"/>
      <point x="47" y="338" type="line"/>
      <point x="33" y="270" type="line"/>
    </contour>
  </outline>
</glyph>
<glyph name="emdash" format="1">
  <advance width="673"/>
  <unicode hex="2014"/>
  <outline>
    <contour>
      <point x="646" y="270" type="line" name="hr00"/>
      <point x="660" y="338" type="line"/>
      <point x="47" y="338" type="line"/>
      <point x="33" y="270" type="line"/>
    </contour>
  </outline>
</glyph>
<glyph name="horizontalbar" format="1">
  <advance width="900"/>
  <unicode hex="2015"/>
  <outline>
    <contour>
      <point x="903" y="270" type="line" name=""/>
      <point x="917" y="338" type="line"/>
      <point x="17" y="338" type="line"/>
      <point x="3" y="270" type="line"/>
    </contour>
  </outline>
</glyph>
<glyph name="dagger" format="1">
  <advance width="486"/>
  <unicode hex="2020"/>
  <outline>
    <contour>
      <point x="185" y="-200" type="line" name="hr00"/>
      <point x="316" y="460" type="line"/>
      <point x="480" y="460" type="line"/>
      <point x="491" y="516" type="line"/>
      <point x="327" y="516" type="line"/>
      <point x="372" y="740" type="line"/>
      <point x="308" y="740" type="line"/>
      <point x="263" y="516" type="line"/>
      <point x="99" y="516" type="line"/>
      <point x="88" y="460" type="line"/>
      <point x="252" y="460" type="line"/>
      <point x="121" y="-200" type="line"/>
    </contour>
  </outline>
</glyph>
<glyph name="daggerdbl" format="1">
  <advance width="486"/>
  <unicode hex="2021"/>
  <outline>
    <contour>
      <point x="185" y="-200" type="line"/>
      <point x="229" y="24" type="line"/>
      <point x="393" y="24" type="line"/>
      <point x="404" y="80" type="line"/>
      <point x="241" y="80" type="line"/>
      <point x="316" y="460" type="line"/>
      <point x="480" y="460" type="line"/>
      <point x="491" y="516" type="line"/>
      <point x="327" y="516" type="line"/>
      <point x="372" y="740" type="line"/>
      <point x="308" y="740" type="line"/>
      <point x="263" y="516" type="line"/>
      <point x="99" y="516" type="line"/>
      <point x="88" y="460" type="line"/>
      <point x="252" y="460" type="line"/>
      <point x="177" y="80" type="line"/>
      <point x="12" y="80" type="line"/>
      <point x="1" y="24" type="line"/>
      <point x="165" y="24" type="line"/>
      <point x="121" y="-200" type="line" name="hr00"/>
    </contour>
  </outline>
</glyph>
<glyph name="bullet" format="1">
  <advance width="352"/>
  <unicode hex="2022"/>
  <outline>
    <contour>
      <point x="166" y="190" type="curve" smooth="yes" name="hr00"/>
      <point x="244" y="190"/>
      <point x="277" y="226"/>
      <point x="290" y="287" type="curve" smooth="yes"/>
      <point x="296" y="315"/>
      <point x="299" y="337"/>
      <point x="299" y="345" type="curve" smooth="yes"/>
      <point x="299" y="391"/>
      <point x="270" y="418"/>
      <point x="206" y="418" type="curve" smooth="yes"/>
      <point x="128" y="418"/>
      <point x="95" y="382"/>
      <point x="82" y="321" type="curve" smooth="yes"/>
      <point x="76" y="293"/>
      <point x="73" y="271"/>
      <point x="73" y="263" type="curve" smooth="yes"/>
      <point x="73" y="217"/>
      <point x="102" y="190"/>
    </contour>
  </outline>
</glyph>
<glyph name="prime" format="1">
  <advance width="212"/>
  <unicode hex="2032"/>
  <outline>
    <contour>
      <point x="145" y="396" type="line" name=""/>
      <point x="259" y="698" type="line"/>
      <point x="188" y="698" type="line"/>
      <point x="74" y="396" type="line"/>
    </contour>
  </outline>
</glyph>
<glyph name="guilsinglleft" format="1">
  <advance width="268"/>
  <unicode hex="2039"/>
  <outline>
    <contour>
      <point x="203" y="138" type="line" name="hr00"/>
      <point x="104" y="277" type="line"/>
      <point x="106" y="287" type="line"/>
      <point x="261" y="423" type="line"/>
      <point x="232" y="472" type="line"/>
      <point x="42" y="321" type="line"/>
      <point x="29" y="255" type="line"/>
      <point x="164" y="98" type="line"/>
    </contour>
  </outline>
</glyph>
<glyph name="guilsinglright" format="1">
  <advance width="268"/>
  <unicode hex="203A"/>
  <outline>
    <contour>
      <point x="47" y="98" type="line" name="hr00"/>
      <point x="237" y="249" type="line"/>
      <point x="250" y="315" type="line"/>
      <point x="115" y="472" type="line"/>
      <point x="76" y="432" type="line"/>
      <point x="175" y="293" type="line"/>
      <point x="173" y="283" type="line"/>
      <point x="18" y="147" type="line"/>
    </contour>
  </outline>
</glyph>
<glyph name="fraction" format="1">
  <advance width="96"/>
  <unicode hex="2044"/>
  <outline>
    <contour>
      <point x="-251" y="0" type="line"/>
      <point x="-182" y="0" type="line"/>
      <point x="384" y="698" type="line"/>
      <point x="315" y="698" type="line"/>
    </contour>
  </outline>
</glyph>
<glyph name="foursuperior" format="1">
  <advance width="320"/>
  <unicode hex="2074"/>
  <outline>
    <contour>
      <point x="252" y="329" type="line" name="hr00"/>
      <point x="267" y="402" type="line"/>
      <point x="312" y="402" type="line"/>
      <point x="321" y="446" type="line"/>
      <point x="275" y="446" type="line"/>
      <point x="326" y="698" type="line"/>
      <point x="254" y="698" type="line"/>
      <point x="59" y="452" type="line"/>
      <point x="49" y="402" type="line"/>
      <point x="212" y="402" type="line"/>
      <point x="197" y="329" type="line"/>
    </contour>
    <contour>
      <point x="220" y="446" type="line"/>
      <point x="108" y="446" type="line"/>
      <point x="252" y="633" type="line"/>
      <point x="258" y="633" type="line"/>
    </contour>
  </outline>
</glyph>
<glyph name="sixsuperior" format="1">
  <advance width="320"/>
  <unicode hex="2076"/>
  <outline>
    <contour>
      <point x="183" y="323" type="curve" smooth="yes" name="hr00"/>
      <point x="274" y="323"/>
      <point x="323" y="381"/>
      <point x="323" y="462" type="curve" smooth="yes"/>
      <point x="323" y="521"/>
      <point x="298" y="559"/>
      <point x="236" y="559" type="curve" smooth="yes"/>
      <point x="192" y="559"/>
      <point x="172" y="541"/>
      <point x="154" y="509" type="curve"/>
      <point x="148" y="509" type="line"/>
      <point x="173" y="577"/>
      <point x="236" y="646"/>
      <point x="330" y="698" type="curve"/>
      <point x="247" y="698" type="line"/>
      <point x="175" y="659"/>
      <point x="97" y="564"/>
      <point x="81" y="477" type="curve" smooth="yes"/>
      <point x="78" y="460"/>
      <point x="75" y="441"/>
      <point x="75" y="422" type="curve" smooth="yes"/>
      <point x="75" y="360"/>
      <point x="111" y="323"/>
    </contour>
    <contour>
      <point x="189" y="368" type="curve" smooth="yes"/>
      <point x="149" y="368"/>
      <point x="133" y="387"/>
      <point x="133" y="417" type="curve" smooth="yes"/>
      <point x="133" y="430"/>
      <point x="136" y="446"/>
      <point x="138" y="456" type="curve" smooth="yes"/>
      <point x="147" y="502"/>
      <point x="177" y="515"/>
      <point x="210" y="515" type="curve" smooth="yes"/>
      <point x="250" y="515"/>
      <point x="266" y="496"/>
      <point x="266" y="466" type="curve" smooth="yes"/>
      <point x="266" y="453"/>
      <point x="263" y="437"/>
      <point x="261" y="427" type="curve" smooth="yes"/>
      <point x="252" y="381"/>
      <point x="222" y="368"/>
    </contour>
  </outline>
</glyph>
<glyph name="sevensuperior" format="1">
  <advance width="320"/>
  <unicode hex="2077"/>
  <outline>
    <contour>
      <point x="163" y="329" type="line" name="hr00"/>
      <point x="345" y="645" type="line"/>
      <point x="356" y="698" type="line"/>
      <point x="110" y="698" type="line"/>
      <point x="86" y="580" type="line"/>
      <point x="137" y="580" type="line"/>
      <point x="151" y="651" type="line"/>
      <point x="287" y="651" type="line"/>
      <point x="99" y="329" type="line"/>
    </contour>
  </outline>
</glyph>
<glyph name="oneinferior" format="1">
  <advance width="320"/>
  <unicode hex="2081"/>
  <outline>
    <contour>
      <point x="237" y="0" type="line" name="hr00"/>
      <point x="246" y="47" type="line"/>
      <point x="163" y="47" type="line"/>
      <point x="228" y="369" type="line"/>
      <point x="143" y="369" type="line"/>
      <point x="41" y="289" type="line"/>
      <point x="68" y="255" type="line"/>
      <point x="157" y="324" type="line"/>
      <point x="163" y="324" type="line"/>
      <point x="107" y="47" type="line"/>
      <point x="13" y="47" type="line"/>
      <point x="4" y="0" type="line"/>
    </contour>
  </outline>
</glyph>
<glyph name="twoinferior" format="1">
  <advance width="320"/>
  <unicode hex="2082"/>
  <outline>
    <contour>
      <point x="232" y="46" type="line" name="hr00"/>
      <point x="60" y="46" type="line"/>
      <point x="183" y="143" type="line" smooth="yes"/>
      <point x="243" y="191"/>
      <point x="266" y="227"/>
      <point x="266" y="278" type="curve" smooth="yes"/>
      <point x="266" y="344"/>
      <point x="225" y="375"/>
      <point x="162" y="375" type="curve" smooth="yes"/>
      <point x="92" y="375"/>
      <point x="53" y="338"/>
      <point x="35" y="286" type="curve"/>
      <point x="82" y="263" type="line"/>
      <point x="93" y="301"/>
      <point x="118" y="327"/>
      <point x="154" y="327" type="curve" smooth="yes"/>
      <point x="184" y="327"/>
      <point x="205" y="309"/>
      <point x="205" y="282" type="curve" smooth="yes"/>
      <point x="205" y="275"/>
      <point x="204" y="261"/>
      <point x="201" y="249" type="curve" smooth="yes"/>
      <point x="195" y="223"/>
      <point x="185" y="206"/>
      <point x="148" y="176" type="curve" smooth="yes"/>
      <point x="-5" y="53" type="line"/>
      <point x="-15" y="0" type="line"/>
      <point x="221" y="0" type="line"/>
    </contour>
  </outline>
</glyph>
<glyph name="fourinferior" format="1">
  <advance width="320"/>
  <unicode hex="2084"/>
  <outline>
    <contour>
      <point x="186" y="0" type="line" name="hr00"/>
      <point x="201" y="73" type="line"/>
      <point x="246" y="73" type="line"/>
      <point x="255" y="117" type="line"/>
      <point x="209" y="117" type="line"/>
      <point x="260" y="369" type="line"/>
      <point x="188" y="369" type="line"/>
      <point x="-7" y="123" type="line"/>
      <point x="-17" y="73" type="line"/>
      <point x="146" y="73" type="line"/>
      <point x="131" y="0" type="line"/>
    </contour>
    <contour>
      <point x="154" y="117" type="line"/>
      <point x="42" y="117" type="line"/>
      <point x="186" y="304" type="line"/>
      <point x="192" y="304" type="line"/>
    </contour>
  </outline>
</glyph>
<glyph name="seveninferior" format="1">
  <advance width="320"/>
  <unicode hex="2087"/>
  <outline>
    <contour>
      <point x="97" y="0" type="line" name="hr00"/>
      <point x="279" y="316" type="line"/>
      <point x="290" y="369" type="line"/>
      <point x="44" y="369" type="line"/>
      <point x="20" y="251" type="line"/>
      <point x="71" y="251" type="line"/>
      <point x="85" y="322" type="line"/>
      <point x="221" y="322" type="line"/>
      <point x="33" y="0" type="line"/>
    </contour>
  </outline>
</glyph>
<glyph name="eightinferior" format="1">
  <advance width="320"/>
  <unicode hex="2088"/>
  <outline>
    <contour>
      <point x="119" y="-6" type="curve" smooth="yes"/>
      <point x="202" y="-6"/>
      <point x="260" y="40"/>
      <point x="260" y="120" type="curve" smooth="yes"/>
      <point x="260" y="162"/>
      <point x="239" y="185"/>
      <point x="202" y="191" type="curve"/>
      <point x="203" y="197" type="line"/>
      <point x="249" y="203"/>
      <point x="282" y="238"/>
      <point x="282" y="291" type="curve" smooth="yes" name="hr01"/>
      <point x="282" y="345"/>
      <point x="244" y="375"/>
      <point x="181" y="375" type="curve" smooth="yes"/>
      <point x="102" y="375"/>
      <point x="51" y="329"/>
      <point x="51" y="263" type="curve" smooth="yes"/>
      <point x="51" y="226"/>
      <point x="70" y="203"/>
      <point x="100" y="197" type="curve"/>
      <point x="99" y="191" type="line"/>
      <point x="40" y="185"/>
      <point x="8" y="145"/>
      <point x="8" y="84" type="curve" smooth="yes" name="hr02"/>
      <point x="8" y="26"/>
      <point x="48" y="-6"/>
    </contour>
    <contour>
      <point x="124" y="39" type="curve" smooth="yes"/>
      <point x="89" y="39"/>
      <point x="64" y="51"/>
      <point x="64" y="81" type="curve" smooth="yes"/>
      <point x="64" y="88"/>
      <point x="67" y="103"/>
      <point x="70" y="118" type="curve" smooth="yes"/>
      <point x="76" y="149"/>
      <point x="95" y="169"/>
      <point x="144" y="169" type="curve" smooth="yes"/>
      <point x="179" y="169"/>
      <point x="204" y="157"/>
      <point x="204" y="127" type="curve" smooth="yes"/>
      <point x="204" y="120"/>
      <point x="201" y="105"/>
      <point x="198" y="90" type="curve" smooth="yes"/>
      <point x="192" y="58"/>
      <point x="173" y="39"/>
    </contour>
    <contour>
      <point x="156" y="214" type="curve" smooth="yes"/>
      <point x="127" y="214"/>
      <point x="105" y="230"/>
      <point x="105" y="253" type="curve" smooth="yes" name="hr03"/>
      <point x="105" y="262"/>
      <point x="106" y="274"/>
      <point x="109" y="285" type="curve" smooth="yes"/>
      <point x="118" y="319"/>
      <point x="138" y="330"/>
      <point x="175" y="330" type="curve" smooth="yes"/>
      <point x="204" y="330"/>
      <point x="226" y="314"/>
      <point x="226" y="291" type="curve" smooth="yes"/>
      <point x="226" y="282"/>
      <point x="225" y="270"/>
      <point x="222" y="259" type="curve" smooth="yes"/>
      <point x="213" y="225"/>
      <point x="193" y="214"/>
    </contour>
  </outline>
</glyph>
<glyph name="coloncurrency" format="1">
  <advance width="546"/>
  <unicode hex="20A1"/>
  <outline>
    <contour>
      <point x="47" y="219" type="curve" smooth="yes"/>
      <point x="47.0" y="72.0"/>
      <point x="131" y="-2.0"/>
      <point x="258" y="-2" type="curve" smooth="yes"/>
      <point x="374" y="-2.0"/>
      <point x="455" y="56"/>
      <point x="505" y="155" type="curve"/>
      <point x="441" y="187" type="line"/>
      <point x="410" y="108"/>
      <point x="354" y="64"/>
      <point x="265" y="64" type="curve" smooth="yes"/>
      <point x="177" y="64"/>
      <point x="126.0" y="111.0"/>
      <point x="126" y="221" type="curve" smooth="yes"/>
      <point x="126" y="242"/>
      <point x="128" y="268"/>
      <point x="134" y="298" type="curve" smooth="yes"/>
      <point x="160" y="428" type="line" smooth="yes"/>
      <point x="186" y="558"/>
      <point x="246" y="634"/>
      <point x="357" y="634" type="curve" smooth="yes"/>
      <point x="442" y="634"/>
      <point x="490" y="597"/>
      <point x="503" y="525" type="curve"/>
      <point x="567" y="553" type="line"/>
      <point x="547" y="634"/>
      <point x="483" y="700"/>
      <point x="364" y="700" type="curve" smooth="yes"/>
      <point x="203" y="700"/>
      <point x="109" y="586"/>
      <point x="71" y="401" type="curve" smooth="yes"/>
      <point x="60" y="349"/>
      <point x="47" y="272"/>
    </contour>
    <contour>
      <point x="154" y="-82" type="line"/>
      <point x="189" y="40" type="line"/>
      <point x="189" y="50" type="line"/>
      <point x="361" y="647" type="line"/>
      <point x="367" y="658" type="line"/>
      <point x="402" y="780" type="line"/>
      <point x="340" y="780" type="line"/>
      <point x="305" y="658" type="line"/>
      <point x="305" y="647" type="line"/>
      <point x="133" y="50" type="line"/>
      <point x="127" y="40" type="line"/>
      <point x="92" y="-82" type="line"/>
    </contour>
    <contour>
      <point x="264" y="-82" type="line"/>
      <point x="299" y="40" type="line"/>
      <point x="299" y="50" type="line"/>
      <point x="471" y="647" type="line"/>
      <point x="477" y="658" type="line"/>
      <point x="512" y="780" type="line"/>
      <point x="450" y="780" type="line"/>
      <point x="415" y="658" type="line"/>
      <point x="415" y="647" type="line"/>
      <point x="243" y="50" type="line"/>
      <point x="237" y="40" type="line"/>
      <point x="202" y="-82" type="line"/>
    </contour>
  </outline>
</glyph>
<glyph name="lira" format="1">
  <advance width="538"/>
  <unicode hex="20A4"/>
  <outline>
    <contour>
      <point x="433.0" y="67.0" type="line"/>
      <point x="87.0" y="67.0" type="line"/>
      <point x="89.0" y="76.0" type="line"/>
      <point x="150" y="97"/>
      <point x="216.0" y="169"/>
      <point x="216" y="297" type="curve" smooth="yes" name=""/>
      <point x="216.0" y="343"/>
      <point x="210.0" y="386"/>
      <point x="210" y="449" type="curve" smooth="yes" name=""/>
      <point x="210" y="573"/>
      <point x="263" y="643"/>
      <point x="364.0" y="643.0" type="curve" smooth="yes"/>
      <point x="436" y="643"/>
      <point x="462.0" y="608.0"/>
      <point x="487.0" y="552.0" type="curve"/>
      <point x="553.0" y="594.0" type="line"/>
      <point x="521.0" y="661.0"/>
      <point x="472" y="710"/>
      <point x="369.0" y="710.0" type="curve" smooth="yes"/>
      <point x="221" y="710"/>
      <point x="133" y="608"/>
      <point x="133" y="450" type="curve" smooth="yes"/>
      <point x="133.0" y="392"/>
      <point x="140" y="324"/>
      <point x="140" y="288" type="curve" smooth="yes" name=""/>
      <point x="140" y="209"/>
      <point x="115" y="121"/>
      <point x="43.0" y="94.0" type="curve"/>
      <point x="24.0" y="0.0" type="line"/>
      <point x="420.0" y="0.0" type="line"/>
    </contour>
    <contour>
      <point x="77" y="399" type="line"/>
      <point x="418" y="399" type="line"/>
      <point x="431" y="462" type="line"/>
      <point x="90" y="462" type="line"/>
    </contour>
    <contour>
      <point x="45" y="236" type="line"/>
      <point x="386" y="236" type="line"/>
      <point x="399" y="299" type="line"/>
      <point x="58" y="299" type="line"/>
    </contour>
  </outline>
</glyph>
<glyph name="rupee" format="1">
  <advance width="663"/>
  <unicode hex="20A8"/>
  <outline>
    <contour>
      <point x="34" y="0" type="line"/>
      <point x="109" y="0" type="line"/>
      <point x="174" y="324" type="line"/>
      <point x="248" y="324" type="line"/>
      <point x="303" y="127" type="line" smooth="yes"/>
      <point x="329" y="35"/>
      <point x="366" y="-12"/>
      <point x="455" y="-12" type="curve" smooth="yes" name="hr01"/>
      <point x="554" y="-12"/>
      <point x="602" y="45"/>
      <point x="602" y="126" type="curve" smooth="yes"/>
      <point x="602" y="177"/>
      <point x="583" y="210"/>
      <point x="556" y="245" type="curve" smooth="yes"/>
      <point x="536" y="271" type="line" smooth="yes"/>
      <point x="516" y="297"/>
      <point x="506" y="318"/>
      <point x="506" y="344" type="curve" smooth="yes"/>
      <point x="506" y="388"/>
      <point x="534" y="413"/>
      <point x="570" y="413" type="curve" smooth="yes"/>
      <point x="589" y="413"/>
      <point x="614" y="406"/>
      <point x="625" y="393" type="curve"/>
      <point x="663" y="439" type="line"/>
      <point x="643" y="459"/>
      <point x="608" y="473"/>
      <point x="571" y="473" type="curve" smooth="yes"/>
      <point x="496" y="473"/>
      <point x="435" y="415"/>
      <point x="435" y="336" type="curve" smooth="yes"/>
      <point x="435" y="295"/>
      <point x="452" y="260"/>
      <point x="476" y="228" type="curve" smooth="yes"/>
      <point x="497" y="200" type="line" smooth="yes"/>
      <point x="518" y="172"/>
      <point x="528" y="147"/>
      <point x="528" y="119" type="curve" smooth="yes"/>
      <point x="528" y="77"/>
      <point x="505" y="50"/>
      <point x="460" y="50" type="curve" smooth="yes"/>
      <point x="420" y="50"/>
      <point x="395" y="72"/>
      <point x="373" y="148" type="curve" smooth="yes"/>
      <point x="319" y="334" type="line"/>
      <point x="410" y="360"/>
      <point x="459" y="460"/>
      <point x="459" y="560" type="curve" smooth="yes" name="hr02"/>
      <point x="459" y="658"/>
      <point x="412" y="698"/>
      <point x="340" y="698" type="curve" smooth="yes"/>
      <point x="174" y="698" type="line"/>
    </contour>
    <contour>
      <point x="187" y="390" type="line"/>
      <point x="235" y="632" type="line"/>
      <point x="323" y="632" type="line" smooth="yes"/>
      <point x="361" y="632"/>
      <point x="383" y="612"/>
      <point x="383" y="573" type="curve" smooth="yes"/>
      <point x="383" y="565"/>
      <point x="382" y="547"/>
      <point x="378" y="525" type="curve" smooth="yes"/>
      <point x="367" y="470" type="line" smooth="yes"/>
      <point x="357" y="419"/>
      <point x="320" y="390"/>
      <point x="272" y="390" type="curve" smooth="yes"/>
    </contour>
  </outline>
</glyph>
<glyph name="won" format="1">
  <advance width="796"/>
  <unicode hex="20A9"/>
  <outline>
    <contour>
      <point x="478" y="0" type="line" name=""/>
      <point x="565" y="0" type="line"/>
      <point x="664" y="236" type="line"/>
      <point x="771" y="236" type="line"/>
      <point x="783" y="299" type="line"/>
      <point x="690" y="299" type="line"/>
      <point x="732" y="399" type="line"/>
      <point x="804" y="399" type="line"/>
      <point x="816" y="462" type="line"/>
      <point x="759" y="462" type="line"/>
      <point x="858" y="698" type="line"/>
      <point x="780" y="698" type="line"/>
      <point x="686" y="462" type="line"/>
      <point x="532" y="462" type="line"/>
      <point x="527" y="698" type="line"/>
      <point x="434" y="698" type="line"/>
      <point x="337" y="462" type="line"/>
      <point x="185" y="462" type="line"/>
      <point x="185" y="698" type="line"/>
      <point x="113" y="698" type="line"/>
      <point x="116" y="462" type="line"/>
      <point x="63" y="462" type="line"/>
      <point x="51" y="399" type="line"/>
      <point x="117" y="399" type="line"/>
      <point x="119" y="299" type="line"/>
      <point x="30" y="299" type="line"/>
      <point x="18" y="236" type="line"/>
      <point x="120" y="236" type="line"/>
      <point x="124" y="0" type="line"/>
      <point x="213" y="0" type="line"/>
      <point x="309" y="236" type="line"/>
      <point x="473" y="236" type="line"/>
    </contour>
    <contour>
      <point x="185" y="403" type="line"/>
      <point x="312" y="403" type="line"/>
      <point x="248" y="247" type="line"/>
      <point x="189" y="77" type="line"/>
      <point x="180" y="77" type="line"/>
      <point x="185" y="247" type="line"/>
    </contour>
    <contour>
      <point x="533" y="403" type="line"/>
      <point x="662" y="403" type="line"/>
      <point x="600" y="247" type="line"/>
      <point x="542" y="77" type="line"/>
      <point x="532" y="77" type="line"/>
      <point x="537" y="247" type="line"/>
    </contour>
    <contour>
      <point x="333" y="295" type="line"/>
      <point x="392" y="441" type="line"/>
      <point x="458" y="611" type="line"/>
      <point x="468" y="611" type="line"/>
      <point x="470" y="441" type="line"/>
      <point x="472" y="295" type="line"/>
    </contour>
  </outline>
</glyph>
<glyph name="Euro" format="1">
  <advance width="547"/>
  <unicode hex="20AC"/>
  <outline>
    <contour>
      <point x="256" y="-12" type="curve" smooth="yes" name="hr00"/>
      <point x="369" y="-12"/>
      <point x="447" y="51"/>
      <point x="499" y="155" type="curve"/>
      <point x="435" y="187" type="line"/>
      <point x="402" y="104"/>
      <point x="350" y="56"/>
      <point x="263" y="56" type="curve" smooth="yes"/>
      <point x="169" y="56"/>
      <point x="126" y="117"/>
      <point x="126" y="221" type="curve" smooth="yes"/>
      <point x="126" y="226"/>
      <point x="126" y="231"/>
      <point x="126" y="237" type="curve"/>
      <point x="349" y="237" type="line"/>
      <point x="361" y="299" type="line"/>
      <point x="134" y="299" type="line"/>
      <point x="140" y="329"/>
      <point x="148" y="369"/>
      <point x="154" y="399" type="curve"/>
      <point x="381" y="399" type="line"/>
      <point x="393" y="461" type="line"/>
      <point x="167" y="461" type="line"/>
      <point x="197" y="576"/>
      <point x="254" y="642"/>
      <point x="355" y="642" type="curve" smooth="yes"/>
      <point x="436" y="642"/>
      <point x="478" y="599"/>
      <point x="490" y="522" type="curve"/>
      <point x="561" y="553" type="line"/>
      <point x="539" y="644"/>
      <point x="475" y="710"/>
      <point x="362" y="710" type="curve" smooth="yes"/>
      <point x="201" y="710"/>
      <point x="110" y="592"/>
      <point x="71" y="401" type="curve" smooth="yes"/>
      <point x="60" y="349"/>
      <point x="47" y="272"/>
      <point x="47" y="219" type="curve" smooth="yes"/>
      <point x="47" y="87"/>
      <point x="112" y="-12"/>
    </contour>
  </outline>
</glyph>
<glyph name="kip" format="1">
  <advance width="556"/>
  <unicode hex="20AD"/>
  <outline>
    <contour>
      <point x="180" y="330" type="line" name="hr00"/>
      <point x="248" y="330" type="line"/>
      <point x="384" y="0" type="line"/>
      <point x="472" y="0" type="line"/>
      <point x="358" y="262" type="line"/>
      <point x="317" y="330" type="line"/>
      <point x="507" y="330" type="line"/>
      <point x="520" y="393" type="line"/>
      <point x="327" y="393" type="line"/>
      <point x="396" y="461" type="line"/>
      <point x="596" y="698" type="line"/>
      <point x="506" y="698" type="line"/>
      <point x="255" y="393" type="line"/>
      <point x="193" y="393" type="line"/>
      <point x="253" y="698" type="line"/>
      <point x="176" y="698" type="line"/>
      <point x="116" y="393" type="line"/>
      <point x="45" y="393" type="line"/>
      <point x="32" y="330" type="line"/>
      <point x="103" y="330" type="line"/>
      <point x="37" y="0" type="line"/>
      <point x="114" y="0" type="line"/>
    </contour>
  </outline>
</glyph>
<glyph name="guarani" format="1">
  <advance width="588"/>
  <unicode hex="20B2"/>
  <outline>
    <contour>
      <point x="47" y="219" type="curve" smooth="yes"/>
      <point x="47" y="72"/>
      <point x="129" y="-2"/>
      <point x="255" y="-2" type="curve" smooth="yes"/>
      <point x="396" y="-2"/>
      <point x="489" y="83"/>
      <point x="518" y="228" type="curve" smooth="yes"/>
      <point x="544" y="358" type="line"/>
      <point x="291" y="358" type="line"/>
      <point x="291" y="291" type="line"/>
      <point x="455" y="291" type="line"/>
      <point x="443" y="231" type="line" smooth="yes"/>
      <point x="420" y="116"/>
      <point x="359" y="64"/>
      <point x="262" y="64" type="curve" smooth="yes"/>
      <point x="177" y="64"/>
      <point x="126" y="111"/>
      <point x="126" y="221" type="curve" smooth="yes"/>
      <point x="126" y="242"/>
      <point x="128" y="268"/>
      <point x="134" y="298" type="curve" smooth="yes"/>
      <point x="160" y="428" type="line" smooth="yes"/>
      <point x="186" y="558"/>
      <point x="242" y="634"/>
      <point x="354" y="634" type="curve" smooth="yes"/>
      <point x="435" y="634"/>
      <point x="486" y="597"/>
      <point x="499" y="525" type="curve"/>
      <point x="563" y="553" type="line"/>
      <point x="543" y="634"/>
      <point x="481" y="700"/>
      <point x="361" y="700" type="curve" smooth="yes"/>
      <point x="199" y="700"/>
      <point x="109" y="586"/>
      <point x="71" y="401" type="curve" smooth="yes"/>
      <point x="60" y="349"/>
      <point x="47" y="272"/>
    </contour>
    <contour>
      <point x="188" y="-82" type="line"/>
      <point x="231" y="40" type="line"/>
      <point x="232" y="50" type="line"/>
      <point x="441" y="647" type="line"/>
      <point x="446" y="658" type="line"/>
      <point x="489" y="780" type="line"/>
      <point x="423" y="780" type="line"/>
      <point x="380" y="658" type="line"/>
      <point x="379" y="647" type="line"/>
      <point x="170" y="50" type="line"/>
      <point x="165" y="40" type="line"/>
      <point x="122" y="-82" type="line"/>
    </contour>
  </outline>
</glyph>
<glyph name="cedi" format="1">
  <advance width="537"/>
  <unicode hex="20B5"/>
  <outline>
    <contour>
      <point x="47" y="219" type="curve" smooth="yes"/>
      <point x="47" y="72"/>
      <point x="129" y="-2"/>
      <point x="253" y="-2" type="curve" smooth="yes"/>
      <point x="366" y="-2"/>
      <point x="446" y="56"/>
      <point x="496" y="155" type="curve"/>
      <point x="432" y="187" type="line"/>
      <point x="401" y="108"/>
      <point x="346" y="64"/>
      <point x="260" y="64" type="curve" smooth="yes"/>
      <point x="175" y="64"/>
      <point x="126" y="111"/>
      <point x="126" y="221" type="curve" smooth="yes"/>
      <point x="126" y="242"/>
      <point x="128" y="268"/>
      <point x="134" y="298" type="curve" smooth="yes"/>
      <point x="160" y="428" type="line" smooth="yes"/>
      <point x="186" y="558"/>
      <point x="242" y="634"/>
      <point x="352" y="634" type="curve" smooth="yes"/>
      <point x="432" y="634"/>
      <point x="481" y="597"/>
      <point x="494" y="525" type="curve"/>
      <point x="558" y="553" type="line"/>
      <point x="538" y="634"/>
      <point x="473" y="700"/>
      <point x="359" y="700" type="curve" smooth="yes"/>
      <point x="199" y="700"/>
      <point x="109" y="586"/>
      <point x="71" y="401" type="curve" smooth="yes"/>
      <point x="60" y="349"/>
      <point x="47" y="272"/>
    </contour>
    <contour>
      <point x="191" y="-82" type="line"/>
      <point x="234" y="40" type="line"/>
      <point x="235" y="50" type="line"/>
      <point x="444" y="647" type="line"/>
      <point x="449" y="658" type="line"/>
      <point x="492" y="780" type="line"/>
      <point x="426" y="780" type="line"/>
      <point x="383" y="658" type="line"/>
      <point x="382" y="647" type="line"/>
      <point x="173" y="50" type="line"/>
      <point x="168" y="40" type="line"/>
      <point x="125" y="-82" type="line"/>
    </contour>
  </outline>
</glyph>
<glyph name="rupeeindian" format="1">
  <advance width="534"/>
  <unicode hex="20B9"/>
  <outline>
    <contour>
      <point x="381" y="0" type="line" name=""/>
      <point x="232" y="330" type="line"/>
      <point x="214" y="303" type="line"/>
      <point x="257" y="303" type="line" smooth="yes"/>
      <point x="375" y="303"/>
      <point x="443" y="381"/>
      <point x="460" y="479" type="curve"/>
      <point x="555" y="479" type="line"/>
      <point x="568" y="542" type="line"/>
      <point x="464" y="542" type="line"/>
      <point x="461" y="595"/>
      <point x="441" y="617"/>
      <point x="401" y="627" type="curve"/>
      <point x="403" y="635" type="line"/>
      <point x="586" y="635" type="line"/>
      <point x="599" y="698" type="line"/>
      <point x="136" y="698" type="line"/>
      <point x="123" y="635" type="line"/>
      <point x="321" y="635" type="line" smooth="yes"/>
      <point x="373" y="635"/>
      <point x="393" y="602"/>
      <point x="391" y="542" type="curve"/>
      <point x="105" y="542" type="line"/>
      <point x="92" y="479" type="line"/>
      <point x="382" y="479" type="line"/>
      <point x="377" y="424"/>
      <point x="344" y="366.0"/>
      <point x="270" y="366" type="curve" smooth="yes"/>
      <point x="70" y="366" type="line"/>
      <point x="57" y="303" type="line"/>
      <point x="164" y="303" type="line"/>
      <point x="295" y="0" type="line"/>
    </contour>
  </outline>
</glyph>
<glyph name="ruble" format="1">
  <advance width="549"/>
  <unicode hex="20BD"/>
  <outline>
    <contour>
      <point x="377" y="138" type="line" name="hr00"/>
      <point x="390" y="201" type="line"/>
      <point x="156" y="201" type="line"/>
      <point x="176" y="302" type="line"/>
      <point x="348" y="302" type="line" smooth="yes"/>
      <point x="478" y="302"/>
      <point x="559" y="403"/>
      <point x="559" y="540" type="curve" smooth="yes"/>
      <point x="559" y="637"/>
      <point x="519" y="698"/>
      <point x="410" y="698" type="curve" smooth="yes"/>
      <point x="179" y="698" type="line"/>
      <point x="113" y="369" type="line"/>
      <point x="44" y="369" type="line"/>
      <point x="30" y="302" type="line"/>
      <point x="100" y="302" type="line"/>
      <point x="79" y="201" type="line"/>
      <point x="10" y="201" type="line"/>
      <point x="-3" y="138" type="line"/>
      <point x="67" y="138" type="line"/>
      <point x="39" y="0" type="line"/>
      <point x="116" y="0" type="line"/>
      <point x="144" y="138" type="line"/>
    </contour>
    <contour>
      <point x="242" y="631" type="line"/>
      <point x="403" y="631" type="line" smooth="yes"/>
      <point x="460" y="631"/>
      <point x="480" y="603"/>
      <point x="480" y="560" type="curve" smooth="yes"/>
      <point x="480" y="537"/>
      <point x="478" y="523"/>
      <point x="466" y="463" type="curve" smooth="yes"/>
      <point x="454" y="402"/>
      <point x="414" y="369"/>
      <point x="360" y="369" type="curve" smooth="yes"/>
      <point x="190" y="369" type="line"/>
    </contour>
  </outline>
</glyph>
<glyph name="numerosign" format="1">
  <advance width="902"/>
  <unicode hex="2116"/>
  <outline>
    <contour>
      <point x="751" y="364" type="curve" smooth="yes"/>
      <point x="835" y="364"/>
      <point x="893" y="419"/>
      <point x="912" y="514" type="curve" smooth="yes"/>
      <point x="918" y="544"/>
      <point x="921" y="574"/>
      <point x="921" y="598" type="curve" smooth="yes"/>
      <point x="921" y="664"/>
      <point x="881" y="710"/>
      <point x="802" y="710" type="curve" smooth="yes"/>
      <point x="718" y="710"/>
      <point x="660" y="655"/>
      <point x="641" y="560" type="curve" smooth="yes"/>
      <point x="635" y="530"/>
      <point x="632" y="500"/>
      <point x="632" y="476" type="curve" smooth="yes"/>
      <point x="632" y="410"/>
      <point x="672" y="364"/>
    </contour>
    <contour>
      <point x="107" y="0" type="line"/>
      <point x="198" y="453" type="line"/>
      <point x="219" y="608" type="line"/>
      <point x="229" y="608" type="line"/>
      <point x="260" y="453" type="line"/>
      <point x="373" y="0" type="line"/>
      <point x="466" y="0" type="line"/>
      <point x="606" y="698" type="line" name="hr01"/>
      <point x="533" y="698" type="line"/>
      <point x="442" y="245" type="line"/>
      <point x="421" y="90" type="line"/>
      <point x="411" y="90" type="line"/>
      <point x="380" y="245" type="line"/>
      <point x="267" y="698" type="line"/>
      <point x="174" y="698" type="line"/>
      <point x="34" y="0" type="line"/>
    </contour>
    <contour>
      <point x="755" y="413" type="curve" smooth="yes"/>
      <point x="717" y="413"/>
      <point x="694" y="433"/>
      <point x="694" y="479" type="curve" smooth="yes"/>
      <point x="694" y="487"/>
      <point x="695" y="498"/>
      <point x="697" y="508" type="curve" smooth="yes"/>
      <point x="712" y="583" type="line" smooth="yes"/>
      <point x="722" y="633"/>
      <point x="751" y="661"/>
      <point x="798" y="661" type="curve" smooth="yes" name="hr02"/>
      <point x="836" y="661"/>
      <point x="859" y="641"/>
      <point x="859" y="595" type="curve" smooth="yes"/>
      <point x="859" y="587"/>
      <point x="858" y="576"/>
      <point x="856" y="566" type="curve" smooth="yes"/>
      <point x="841" y="491" type="line" smooth="yes"/>
      <point x="831" y="441"/>
      <point x="802" y="413"/>
    </contour>
    <contour>
      <point x="839" y="251" type="line"/>
      <point x="851" y="310" type="line"/>
      <point x="611" y="310" type="line"/>
      <point x="599" y="251" type="line"/>
    </contour>
  </outline>
</glyph>
<glyph name="trademark" format="1">
  <advance width="527"/>
  <unicode hex="2122"/>
  <outline>
    <contour>
      <point x="160" y="420" type="line" name="hr00"/>
      <point x="207" y="655" type="line"/>
      <point x="279" y="655" type="line"/>
      <point x="288" y="698" type="line"/>
      <point x="98" y="698" type="line"/>
      <point x="89" y="655" type="line"/>
      <point x="161" y="655" type="line"/>
      <point x="114" y="420" type="line"/>
    </contour>
    <contour>
      <point x="319" y="420" type="line"/>
      <point x="344" y="545" type="line"/>
      <point x="355" y="632" type="line"/>
      <point x="363" y="632" type="line"/>
      <point x="399" y="474" type="line"/>
      <point x="498" y="632" type="line"/>
      <point x="506" y="632" type="line"/>
      <point x="483" y="549" type="line"/>
      <point x="457" y="420" type="line"/>
      <point x="501" y="420" type="line"/>
      <point x="557" y="698" type="line"/>
      <point x="498" y="698" type="line"/>
      <point x="418" y="563" type="line"/>
      <point x="414" y="563" type="line"/>
      <point x="385" y="698" type="line"/>
      <point x="331" y="698" type="line"/>
      <point x="275" y="420" type="line"/>
    </contour>
  </outline>
</glyph>
<glyph name="arrowleft" format="1">
  <advance width="780"/>
  <unicode hex="2190"/>
  <outline>
    <contour>
      <point x="35" y="349" type="line" name="hr00"/>
      <point x="235" y="149" type="line"/>
      <point x="281" y="195" type="line"/>
      <point x="217" y="259" type="line"/>
      <point x="141" y="316" type="line"/>
      <point x="146" y="326" type="line"/>
      <point x="249" y="317" type="line"/>
      <point x="745" y="317" type="line"/>
      <point x="745" y="381" type="line"/>
      <point x="249" y="381" type="line"/>
      <point x="147" y="372" type="line"/>
      <point x="142" y="383" type="line"/>
      <point x="217" y="439" type="line"/>
      <point x="281" y="503" type="line"/>
      <point x="235" y="549" type="line"/>
    </contour>
  </outline>
</glyph>
<glyph name="arrowupleftcorner" format="1">
  <advance width="780"/>
  <unicode hex="21B0"/>
  <outline>
    <contour>
      <point x="109" y="510" type="line" name="hr00"/>
      <point x="309" y="310" type="line"/>
      <point x="355" y="356" type="line"/>
      <point x="291" y="420" type="line"/>
      <point x="215" y="477" type="line"/>
      <point x="220" y="487" type="line"/>
      <point x="323" y="478" type="line"/>
      <point x="537" y="478" type="line"/>
      <point x="537" y="0" type="line"/>
      <point x="601" y="0" type="line"/>
      <point x="601" y="542" type="line"/>
      <point x="323" y="542" type="line"/>
      <point x="221" y="533" type="line"/>
      <point x="216" y="544" type="line"/>
      <point x="291" y="600" type="line"/>
      <point x="355" y="664" type="line"/>
      <point x="309" y="710" type="line"/>
    </contour>
  </outline>
</glyph>
<glyph name="arrowuprightcorner" format="1">
  <advance width="780"/>
  <unicode hex="21B1"/>
  <outline>
    <contour>
      <point x="671" y="510" type="line" name="hr00"/>
      <point x="471" y="710" type="line"/>
      <point x="425" y="664" type="line"/>
      <point x="489" y="600" type="line"/>
      <point x="564" y="544" type="line"/>
      <point x="559" y="533" type="line"/>
      <point x="457" y="542" type="line"/>
      <point x="179" y="542" type="line"/>
      <point x="179" y="0" type="line"/>
      <point x="243" y="0" type="line"/>
      <point x="243" y="478" type="line"/>
      <point x="457" y="478" type="line"/>
      <point x="560" y="487" type="line"/>
      <point x="565" y="477" type="line"/>
      <point x="489" y="420" type="line"/>
      <point x="425" y="356" type="line"/>
      <point x="471" y="310" type="line"/>
    </contour>
  </outline>
</glyph>
<glyph name="arrowdownleftcorner" format="1">
  <advance width="780"/>
  <unicode hex="21B2"/>
  <outline>
    <contour>
      <point x="109" y="188" type="line" name="hr00"/>
      <point x="309" y="-12" type="line"/>
      <point x="355" y="34" type="line"/>
      <point x="291" y="98" type="line"/>
      <point x="216" y="154" type="line"/>
      <point x="221" y="165" type="line"/>
      <point x="323" y="156" type="line"/>
      <point x="601" y="156" type="line"/>
      <point x="601" y="698" type="line"/>
      <point x="537" y="698" type="line"/>
      <point x="537" y="220" type="line"/>
      <point x="323" y="220" type="line"/>
      <point x="220" y="211" type="line"/>
      <point x="215" y="221" type="line"/>
      <point x="291" y="278" type="line"/>
      <point x="355" y="342" type="line"/>
      <point x="309" y="388" type="line"/>
    </contour>
  </outline>
</glyph>
<glyph name="arrowdownrightcorner" format="1">
  <advance width="780"/>
  <unicode hex="21B3"/>
  <outline>
    <contour>
      <point x="671" y="188" type="line" name="hr00"/>
      <point x="471" y="388" type="line"/>
      <point x="425" y="342" type="line"/>
      <point x="489" y="278" type="line"/>
      <point x="565" y="221" type="line"/>
      <point x="560" y="211" type="line"/>
      <point x="457" y="220" type="line"/>
      <point x="243" y="220" type="line"/>
      <point x="243" y="698" type="line"/>
      <point x="179" y="698" type="line"/>
      <point x="179" y="156" type="line"/>
      <point x="457" y="156" type="line"/>
      <point x="559" y="165" type="line"/>
      <point x="564" y="154" type="line"/>
      <point x="489" y="98" type="line"/>
      <point x="425" y="34" type="line"/>
      <point x="471" y="-12" type="line"/>
    </contour>
  </outline>
</glyph>
<glyph name="arrowupleftcounterclock" format="1">
  <advance width="780"/>
  <unicode hex="21BA"/>
  <outline>
    <contour>
      <point x="376" y="698" type="line" name="hr00"/>
      <point x="376" y="415" type="line"/>
      <point x="441" y="415" type="line"/>
      <point x="441" y="506" type="line"/>
      <point x="428" y="598" type="line"/>
      <point x="439" y="603" type="line"/>
      <point x="511" y="526" type="line" smooth="yes"/>
      <point x="605" y="425"/>
      <point x="630" y="363"/>
      <point x="630" y="295" type="curve" smooth="yes"/>
      <point x="630" y="154"/>
      <point x="527" y="48"/>
      <point x="390" y="48" type="curve" smooth="yes"/>
      <point x="253" y="48"/>
      <point x="150" y="154"/>
      <point x="150" y="295" type="curve" smooth="yes"/>
      <point x="150" y="364"/>
      <point x="175" y="424"/>
      <point x="217" y="466" type="curve"/>
      <point x="172" y="511" type="line"/>
      <point x="118" y="458"/>
      <point x="86" y="382"/>
      <point x="86" y="295" type="curve" smooth="yes"/>
      <point x="86" y="120"/>
      <point x="216" y="-12"/>
      <point x="390" y="-12" type="curve" smooth="yes"/>
      <point x="564" y="-12"/>
      <point x="694" y="120"/>
      <point x="694" y="295" type="curve" smooth="yes"/>
      <point x="694" y="379"/>
      <point x="661" y="456"/>
      <point x="548" y="563" type="curve" smooth="yes"/>
      <point x="471" y="636" type="line"/>
      <point x="474" y="646" type="line"/>
      <point x="568" y="633" type="line"/>
      <point x="659" y="633" type="line"/>
      <point x="659" y="698" type="line"/>
    </contour>
  </outline>
</glyph>
<glyph name="product" format="1">
  <advance width="612"/>
  <unicode hex="220F"/>
  <outline>
    <contour>
      <point x="102" y="-200" type="line" name="hr00"/>
      <point x="268" y="631" type="line"/>
      <point x="494" y="631" type="line"/>
      <point x="328" y="-200" type="line"/>
      <point x="405" y="-200" type="line"/>
      <point x="571" y="631" type="line"/>
      <point x="643" y="631" type="line"/>
      <point x="657" y="698" type="line"/>
      <point x="133" y="698" type="line"/>
      <point x="119" y="631" type="line"/>
      <point x="191" y="631" type="line"/>
      <point x="25" y="-200" type="line"/>
    </contour>
  </outline>
</glyph>
<glyph name="summation" format="1">
  <advance width="471"/>
  <unicode hex="2211"/>
  <outline>
    <contour>
      <point x="358" y="-133" type="line" name="hr00"/>
      <point x="49" y="-133" type="line"/>
      <point x="332" y="231" type="line"/>
      <point x="337" y="256" type="line"/>
      <point x="186" y="631" type="line"/>
      <point x="511" y="631" type="line"/>
      <point x="525" y="698" type="line"/>
      <point x="127" y="698" type="line"/>
      <point x="112" y="627" type="line"/>
      <point x="261" y="259" type="line"/>
      <point x="259" y="251" type="line"/>
      <point x="-39" y="-129" type="line"/>
      <point x="-53" y="-200" type="line"/>
      <point x="345" y="-200" type="line"/>
    </contour>
  </outline>
</glyph>
<glyph name="radical" format="1">
  <advance width="540"/>
  <unicode hex="221A"/>
  <outline>
    <contour>
      <point x="270" y="0" type="line" name="hr00"/>
      <point x="592" y="698" type="line"/>
      <point x="517" y="698" type="line"/>
      <point x="318" y="256" type="line"/>
      <point x="235" y="63" type="line"/>
      <point x="225" y="63" type="line"/>
      <point x="219" y="256" type="line"/>
      <point x="205" y="516" type="line"/>
      <point x="66" y="516" type="line"/>
      <point x="55" y="460" type="line"/>
      <point x="140" y="460" type="line"/>
      <point x="165" y="0" type="line"/>
    </contour>
  </outline>
</glyph>
<glyph name="integral" format="1">
  <advance width="398"/>
  <unicode hex="222B"/>
  <outline>
    <contour>
      <point x="-32" y="-200" type="line" name="hr00"/>
      <point x="75" y="-200" type="line" smooth="yes"/>
      <point x="125" y="-200"/>
      <point x="148" y="-179"/>
      <point x="158" y="-129" type="curve" smooth="yes"/>
      <point x="319" y="676" type="line"/>
      <point x="421" y="676" type="line"/>
      <point x="434" y="740" type="line"/>
      <point x="327" y="740" type="line" smooth="yes"/>
      <point x="277" y="740"/>
      <point x="254" y="719"/>
      <point x="244" y="669" type="curve" smooth="yes"/>
      <point x="83" y="-136" type="line"/>
      <point x="-19" y="-136" type="line"/>
    </contour>
  </outline>
</glyph>
<glyph name="notequal" format="1">
  <advance width="540"/>
  <unicode hex="2260"/>
  <outline>
    <contour>
      <point x="159" y="74" type="line"/>
      <point x="227" y="175" type="line"/>
      <point x="463" y="175" type="line"/>
      <point x="475" y="237" type="line" name="hr01"/>
      <point x="269" y="237" type="line"/>
      <point x="361" y="373" type="line" name="hr02"/>
      <point x="503" y="373" type="line"/>
      <point x="515" y="435" type="line"/>
      <point x="403" y="435" type="line"/>
      <point x="473" y="538" type="line" name="hr03"/>
      <point x="401" y="538" type="line"/>
      <point x="331" y="435" type="line"/>
      <point x="97" y="435" type="line"/>
      <point x="85" y="373" type="line" name="hr04"/>
      <point x="289" y="373" type="line"/>
      <point x="197" y="237" type="line" name="hr05"/>
      <point x="57" y="237" type="line"/>
      <point x="45" y="175" type="line" name="hr06"/>
      <point x="155" y="175" type="line"/>
      <point x="87" y="74" type="line"/>
    </contour>
  </outline>
</glyph>
<glyph name="greaterequal" format="1">
  <advance width="540"/>
  <unicode hex="2265"/>
  <outline>
    <contour>
      <point x="58" y="118" type="line" name="hr00"/>
      <point x="462" y="311" type="line"/>
      <point x="479" y="396" type="line"/>
      <point x="152" y="592" type="line"/>
      <point x="138" y="519" type="line"/>
      <point x="401" y="364" type="line"/>
      <point x="399" y="354" type="line"/>
      <point x="74" y="199" type="line"/>
    </contour>
    <contour>
      <point x="34" y="0" type="line"/>
      <point x="400" y="0" type="line"/>
      <point x="412" y="62" type="line"/>
      <point x="46" y="62" type="line"/>
    </contour>
  </outline>
</glyph>
<glyph name="checkmark" format="1">
  <advance width="780"/>
  <unicode hex="2713"/>
  <outline>
    <contour>
      <point x="703" y="670" type="line" name="hr00"/>
      <point x="639" y="698" type="line"/>
      <point x="412" y="190" type="line"/>
      <point x="369" y="70" type="line"/>
      <point x="359" y="70" type="line"/>
      <point x="316" y="190" type="line"/>
      <point x="171" y="516" type="line"/>
      <point x="107" y="488" type="line"/>
      <point x="324" y="0" type="line"/>
      <point x="405" y="0" type="line"/>
    </contour>
  </outline>
</glyph>
<glyph name="crossmark" format="1">
  <advance width="780"/>
  <unicode hex="274C"/>
  <outline>
    <contour>
      <point x="684" y="40" type="line" name="hr00"/>
      <point x="432" y="349" type="line"/>
      <point x="684" y="658" type="line"/>
      <point x="632" y="698" type="line"/>
      <point x="390" y="401" type="line"/>
      <point x="148" y="698" type="line"/>
      <point x="96" y="658" type="line"/>
      <point x="348" y="349" type="line"/>
      <point x="96" y="40" type="line"/>
      <point x="148" y="0" type="line"/>
      <point x="390" y="297" type="line"/>
      <point x="632" y="0" type="line"/>
    </contour>
  </outline>
</glyph>
<glyph name="arrowleftdowncorner" format="1">
  <advance width="780"/>
  <unicode hex="2B10"/>
  <outline>
    <contour>
      <point x="229" y="122" type="line" name="hr00"/>
      <point x="429" y="322" type="line"/>
      <point x="383" y="368" type="line"/>
      <point x="319" y="304" type="line"/>
      <point x="262" y="228" type="line"/>
      <point x="252" y="233" type="line"/>
      <point x="261" y="336" type="line"/>
      <point x="261" y="550" type="line"/>
      <point x="739" y="550" type="line"/>
      <point x="739" y="614" type="line"/>
      <point x="197" y="614" type="line"/>
      <point x="197" y="336" type="line"/>
      <point x="206" y="234" type="line"/>
      <point x="195" y="229" type="line"/>
      <point x="139" y="304" type="line"/>
      <point x="75" y="368" type="line"/>
      <point x="29" y="322" type="line"/>
    </contour>
  </outline>
</glyph>
<glyph name="fi" format="1">
  <advance width="541"/>
  <unicode hex="FB01"/>
  <outline>
    <contour>
      <point x="69" y="452" type="line"/>
      <point x="144" y="452" type="line"/>
      <point x="27" y="-136" type="line"/>
      <point x="-55" y="-136" type="line"/>
      <point x="-68" y="-200" type="line"/>
      <point x="19" y="-200" type="line" smooth="yes"/>
      <point x="69" y="-200"/>
      <point x="92" y="-179"/>
      <point x="102" y="-129" type="curve" smooth="yes"/>
      <point x="218" y="452" type="line"/>
      <point x="412" y="452" type="line"/>
      <point x="337" y="75" type="line" smooth="yes"/>
      <point x="335" y="65"/>
      <point x="333" y="55"/>
      <point x="333" y="45" type="curve" smooth="yes"/>
      <point x="333" y="14"/>
      <point x="351" y="0"/>
      <point x="383" y="0" type="curve" smooth="yes"/>
      <point x="460" y="0" type="line"/>
      <point x="473" y="64" type="line"/>
      <point x="409" y="64" type="line"/>
      <point x="499" y="516" type="line"/>
      <point x="231" y="516" type="line"/>
      <point x="263" y="676" type="line"/>
      <point x="354" y="676" type="line"/>
      <point x="367" y="740" type="line"/>
      <point x="271" y="740" type="line" smooth="yes"/>
      <point x="221" y="740"/>
      <point x="198" y="719"/>
      <point x="188" y="669" type="curve" smooth="yes"/>
      <point x="157" y="516" type="line"/>
      <point x="82" y="516" type="line"/>
    </contour>
    <contour>
      <point x="488" y="641" type="curve" smooth="yes" name="hr01"/>
      <point x="518" y="641"/>
      <point x="534" y="657"/>
      <point x="540" y="680" type="curve" smooth="yes"/>
      <point x="543" y="691"/>
      <point x="544" y="699"/>
      <point x="544" y="704" type="curve" smooth="yes"/>
      <point x="544" y="728"/>
      <point x="528" y="739"/>
      <point x="504" y="739" type="curve" smooth="yes"/>
      <point x="474" y="739"/>
      <point x="458" y="723"/>
      <point x="452" y="700" type="curve" smooth="yes"/>
      <point x="449" y="689"/>
      <point x="448" y="681"/>
      <point x="448" y="676" type="curve" smooth="yes" name="hr02"/>
      <point x="448" y="652"/>
      <point x="464" y="641"/>
    </contour>
  </outline>
</glyph>
<glyph name=".notdef" format="1">
  <advance width="424"/>
  <outline>
    <contour>
      <point x="32" y="0" type="line" name="hr00"/>
      <point x="392" y="0" type="line"/>
      <point x="392" y="780" type="line"/>
      <point x="32" y="780" type="line"/>
    </contour>
    <contour>
      <point x="92" y="60" type="line"/>
      <point x="92" y="720" type="line"/>
      <point x="332" y="720" type="line"/>
      <point x="332" y="60" type="line"/>
    </contour>
  </outline>
</glyph>
<glyph name="a.alt01" format="1">
  <advance width="469"/>
  <outline>
    <contour>
      <point x="134" y="-12" type="curve" smooth="yes"/>
      <point x="204" y="-12"/>
      <point x="258" y="23"/>
      <point x="285" y="83" type="curve"/>
      <point x="325" y="83" type="line"/>
      <point x="300" y="113" type="line"/>
      <point x="294" y="77" type="line" smooth="yes"/>
      <point x="292" y="67"/>
      <point x="290" y="57"/>
      <point x="290" y="47" type="curve" smooth="yes"/>
      <point x="290" y="16"/>
      <point x="305" y="0"/>
      <point x="331" y="0" type="curve" smooth="yes" name=""/>
      <point x="407" y="0" type="line"/>
      <point x="420" y="64" type="line"/>
      <point x="356" y="64" type="line"/>
      <point x="410" y="335" type="line" smooth="yes"/>
      <point x="414" y="356"/>
      <point x="416" y="373"/>
      <point x="416" y="392" type="curve" smooth="yes"/>
      <point x="416" y="465"/>
      <point x="366" y="527"/>
      <point x="265" y="527" type="curve" smooth="yes"/>
      <point x="178" y="527"/>
      <point x="115" y="485"/>
      <point x="83" y="431" type="curve"/>
      <point x="127" y="389" type="line"/>
      <point x="158" y="439"/>
      <point x="191" y="463"/>
      <point x="254" y="463" type="curve" smooth="yes"/>
      <point x="311" y="463"/>
      <point x="342" y="433"/>
      <point x="342" y="383" type="curve" smooth="yes"/>
      <point x="342" y="369"/>
      <point x="341" y="359"/>
      <point x="338" y="345" type="curve" smooth="yes"/>
      <point x="328" y="293" type="line"/>
      <point x="223" y="293" type="line" smooth="yes"/>
      <point x="85" y="293"/>
      <point x="18" y="226"/>
      <point x="18" y="103" type="curve" smooth="yes"/>
      <point x="18" y="30"/>
      <point x="62" y="-12"/>
    </contour>
    <contour>
      <point x="164" y="52" type="curve" smooth="yes"/>
      <point x="115" y="52"/>
      <point x="93" y="75"/>
      <point x="93" y="117" type="curve" smooth="yes"/>
      <point x="93" y="124"/>
      <point x="94" y="131"/>
      <point x="99" y="157" type="curve" smooth="yes"/>
      <point x="110" y="214"/>
      <point x="146" y="238"/>
      <point x="217" y="238" type="curve" smooth="yes"/>
      <point x="317" y="238" type="line"/>
      <point x="299" y="149" type="line" smooth="yes"/>
      <point x="288" y="93"/>
      <point x="238" y="52"/>
    </contour>
    <contour>
      <point x="197.0" y="0.0" type="move" name="bottom"/>
    </contour>
    <contour>
      <point x="407.0" y="0.0" type="move" name="bottomright"/>
    </contour>
    <contour>
      <point x="273.0" y="540.0" type="move" name="top"/>
    </contour>
  </outline>
</glyph>
<glyph name="acute.case" format="1">
  <advance width="540"/>
  <outline>
    <contour>
      <point x="406" y="912" type="line" name="hr00"/>
      <point x="345" y="949" type="line"/>
      <point x="247" y="781" type="line"/>
      <point x="292" y="755" type="line"/>
    </contour>
    <contour>
      <point x="270" y="698" type="move" name="_top"/>
    </contour>
  </outline>
</glyph>
<glyph name="breve.alt01" format="1">
  <advance width="540"/>
  <outline>
    <contour>
      <point x="276" y="596" type="curve" smooth="yes" name="hr00"/>
      <point x="345" y="596"/>
      <point x="394" y="643"/>
      <point x="421" y="727" type="curve"/>
      <point x="379" y="743" type="line"/>
      <point x="367" y="723" type="line" smooth="yes"/>
      <point x="334" y="668"/>
      <point x="314" y="653"/>
      <point x="283" y="653" type="curve" smooth="yes"/>
      <point x="248" y="653"/>
      <point x="233" y="671"/>
      <point x="220" y="723" type="curve" smooth="yes"/>
      <point x="215" y="743" type="line"/>
      <point x="172" y="727" type="line"/>
      <point x="180" y="644"/>
      <point x="217" y="596"/>
    </contour>
    <contour>
      <point x="270" y="540" type="move" name="_top"/>
    </contour>
  </outline>
</glyph>
<glyph name="breve.case" format="1">
  <advance width="540"/>
  <outline>
    <contour>
      <point x="280" y="766" type="curve" smooth="yes" name="hr00"/>
      <point x="369" y="766"/>
      <point x="409" y="844"/>
      <point x="435" y="897" type="curve"/>
      <point x="393" y="913" type="line"/>
      <point x="378" y="893" type="line" smooth="yes"/>
      <point x="338" y="840"/>
      <point x="321" y="823"/>
      <point x="287" y="823" type="curve" smooth="yes"/>
      <point x="248" y="823"/>
      <point x="237" y="843"/>
      <point x="217" y="893" type="curve" smooth="yes"/>
      <point x="209" y="913" type="line"/>
      <point x="166" y="897" type="line"/>
      <point x="177" y="830"/>
      <point x="212" y="766"/>
    </contour>
    <contour>
      <point x="270" y="698" type="move" name="_top"/>
    </contour>
  </outline>
</glyph>
<glyph name="breveacute.case" format="1">
  <advance width="0"/>
  <outline>
    <contour>
      <point x="6" y="756" type="curve" smooth="yes" name="hr00"/>
      <point x="95" y="756"/>
      <point x="135" y="836"/>
      <point x="161" y="887" type="curve"/>
      <point x="116" y="904" type="line"/>
      <point x="102" y="880" type="line" smooth="yes"/>
      <point x="71" y="826"/>
      <point x="40" y="812"/>
      <point x="9" y="812" type="curve" smooth="yes"/>
      <point x="-27" y="812"/>
      <point x="-44" y="835"/>
      <point x="-60" y="883" type="curve" smooth="yes"/>
      <point x="-67" y="904" type="line"/>
      <point x="-112" y="887" type="line"/>
      <point x="-99" y="831"/>
      <point x="-77" y="756"/>
    </contour>
    <contour>
      <point x="142" y="1025" type="line"/>
      <point x="81" y="1062" type="line"/>
      <point x="-14" y="895" type="line"/>
      <point x="31" y="869" type="line"/>
    </contour>
    <contour>
      <point x="0" y="698" type="move" name="_top"/>
    </contour>
  </outline>
</glyph>
<glyph name="breveacute" format="1">
  <advance width="0"/>
  <outline>
    <contour>
      <point x="4" y="585" type="curve" smooth="yes" name="hr00"/>
      <point x="93" y="585"/>
      <point x="133" y="665"/>
      <point x="159" y="716" type="curve"/>
      <point x="114" y="733" type="line"/>
      <point x="100" y="709" type="line" smooth="yes"/>
      <point x="69" y="655"/>
      <point x="38" y="641"/>
      <point x="7" y="641" type="curve" smooth="yes"/>
      <point x="-29" y="641"/>
      <point x="-46" y="664"/>
      <point x="-62" y="712" type="curve" smooth="yes"/>
      <point x="-69" y="733" type="line"/>
      <point x="-114" y="716" type="line"/>
      <point x="-101" y="660"/>
      <point x="-79" y="585"/>
    </contour>
    <contour>
      <point x="140" y="854" type="line"/>
      <point x="79" y="891" type="line"/>
      <point x="-16" y="724" type="line"/>
      <point x="29" y="698" type="line"/>
    </contour>
    <contour>
      <point x="0" y="540" type="move" name="_top"/>
    </contour>
  </outline>
</glyph>
<glyph name="brevehook" format="1">
  <advance width="0"/>
  <outline>
    <contour>
      <point x="4" y="585" type="curve" smooth="yes" name="hr00"/>
      <point x="93" y="585"/>
      <point x="133" y="665"/>
      <point x="159" y="716" type="curve"/>
      <point x="114" y="733" type="line"/>
      <point x="100" y="709" type="line" smooth="yes"/>
      <point x="69" y="655"/>
      <point x="38" y="641"/>
      <point x="7" y="641" type="curve" smooth="yes"/>
      <point x="-29" y="641"/>
      <point x="-46" y="664"/>
      <point x="-62" y="712" type="curve" smooth="yes"/>
      <point x="-69" y="733" type="line"/>
      <point x="-114" y="716" type="line"/>
      <point x="-101" y="660"/>
      <point x="-79" y="585"/>
    </contour>
    <contour>
      <point x="-54" y="822" type="line"/>
      <point x="49" y="822" type="line"/>
      <point x="-14" y="714" type="line"/>
      <point x="24" y="692" type="line"/>
      <point x="60" y="733" type="line" smooth="yes"/>
      <point x="97" y="776"/>
      <point x="110" y="802"/>
      <point x="110" y="834" type="curve" smooth="yes"/>
      <point x="110" y="865"/>
      <point x="92" y="880"/>
      <point x="61" y="880" type="curve" smooth="yes"/>
      <point x="-42" y="880" type="line"/>
    </contour>
    <contour>
      <point x="0" y="540" type="move" name="_top"/>
    </contour>
  </outline>
</glyph>
<glyph name="brevetilde.case" format="1">
  <advance width="0"/>
  <outline>
    <contour>
      <point x="93" y="942" type="curve" smooth="yes"/>
      <point x="134" y="942"/>
      <point x="163" y="968"/>
      <point x="184" y="994" type="curve"/>
      <point x="159" y="1029" type="line"/>
      <point x="139" y="1011"/>
      <point x="125" y="999"/>
      <point x="104" y="999" type="curve" smooth="yes"/>
      <point x="89" y="999"/>
      <point x="75" y="1006"/>
      <point x="47" y="1026" type="curve" smooth="yes"/>
      <point x="30" y="1038"/>
      <point x="7" y="1054"/>
      <point x="-20" y="1054" type="curve" smooth="yes" name="hr01"/>
      <point x="-61" y="1054"/>
      <point x="-90" y="1028"/>
      <point x="-111" y="1002" type="curve"/>
      <point x="-86" y="967" type="line"/>
      <point x="-66" y="985"/>
      <point x="-52" y="997"/>
      <point x="-31" y="997" type="curve" smooth="yes"/>
      <point x="-16" y="997"/>
      <point x="-2" y="990"/>
      <point x="26" y="970" type="curve" smooth="yes"/>
      <point x="43" y="958"/>
      <point x="66" y="942"/>
    </contour>
    <contour>
      <point x="6" y="756" type="curve" smooth="yes"/>
      <point x="95" y="756"/>
      <point x="135" y="836"/>
      <point x="161" y="887" type="curve"/>
      <point x="116" y="904" type="line"/>
      <point x="102" y="880" type="line" smooth="yes"/>
      <point x="71" y="826"/>
      <point x="40" y="812"/>
      <point x="9" y="812" type="curve" smooth="yes"/>
      <point x="-27" y="812"/>
      <point x="-44" y="835"/>
      <point x="-60" y="883" type="curve" smooth="yes"/>
      <point x="-67" y="904" type="line"/>
      <point x="-112" y="887" type="line"/>
      <point x="-99" y="831"/>
      <point x="-77" y="756"/>
    </contour>
    <contour>
      <point x="0" y="698" type="move" name="_top"/>
    </contour>
  </outline>
</glyph>
<glyph name="brevetilde" format="1">
  <advance width="0"/>
  <outline>
    <contour>
      <point x="4" y="585" type="curve" smooth="yes"/>
      <point x="93" y="585"/>
      <point x="133" y="665"/>
      <point x="159" y="716" type="curve"/>
      <point x="114" y="733" type="line"/>
      <point x="100" y="709" type="line" smooth="yes"/>
      <point x="69" y="655"/>
      <point x="38" y="641"/>
      <point x="7" y="641" type="curve" smooth="yes"/>
      <point x="-29" y="641"/>
      <point x="-46" y="664"/>
      <point x="-62" y="712" type="curve" smooth="yes"/>
      <point x="-69" y="733" type="line"/>
      <point x="-114" y="716" type="line"/>
      <point x="-101" y="660"/>
      <point x="-79" y="585"/>
    </contour>
    <contour>
      <point x="91" y="771" type="curve" smooth="yes"/>
      <point x="132" y="771"/>
      <point x="161" y="797"/>
      <point x="182" y="823" type="curve"/>
      <point x="157" y="858" type="line"/>
      <point x="137" y="840"/>
      <point x="123" y="828"/>
      <point x="102" y="828" type="curve" smooth="yes"/>
      <point x="87" y="828"/>
      <point x="73" y="835"/>
      <point x="45" y="855" type="curve" smooth="yes"/>
      <point x="28" y="867"/>
      <point x="5" y="883"/>
      <point x="-22" y="883" type="curve" smooth="yes" name="hr01"/>
      <point x="-63" y="883"/>
      <point x="-92" y="857"/>
      <point x="-113" y="831" type="curve"/>
      <point x="-88" y="796" type="line"/>
      <point x="-68" y="814"/>
      <point x="-54" y="826"/>
      <point x="-33" y="826" type="curve" smooth="yes"/>
      <point x="-18" y="826"/>
      <point x="-4" y="819"/>
      <point x="24" y="799" type="curve" smooth="yes"/>
      <point x="41" y="787"/>
      <point x="64" y="771"/>
    </contour>
    <contour>
      <point x="0" y="540" type="move" name="_top"/>
    </contour>
  </outline>
</glyph>
<glyph name="caron.case" format="1">
  <advance width="540"/>
  <outline>
    <contour>
      <point x="321" y="769" type="line" name="hr00"/>
      <point x="452" y="913" type="line"/>
      <point x="413" y="943" type="line"/>
      <point x="285" y="825" type="line"/>
      <point x="203" y="943" type="line"/>
      <point x="162" y="916" type="line"/>
      <point x="238" y="769" type="line"/>
    </contour>
    <contour>
      <point x="270" y="698" type="move" name="_top"/>
    </contour>
  </outline>
</glyph>
<glyph name="circumflex.alt01" format="1">
  <advance width="540"/>
  <outline>
    <contour>
      <point x="197" y="591" type="line" name="hr00"/>
      <point x="315" y="709" type="line"/>
      <point x="387" y="591" type="line"/>
      <point x="428" y="618" type="line"/>
      <point x="362" y="765" type="line"/>
      <point x="279" y="765" type="line"/>
      <point x="158" y="621" type="line"/>
    </contour>
    <contour>
      <point x="270" y="540" type="move" name="_top"/>
    </contour>
  </outline>
</glyph>
<glyph name="circumflex.case" format="1">
  <advance width="540"/>
  <outline>
    <contour>
      <point x="260" y="935" type="line" name="hr00"/>
      <point x="129" y="791" type="line"/>
      <point x="168" y="761" type="line"/>
      <point x="296" y="879" type="line"/>
      <point x="378" y="761" type="line"/>
      <point x="419" y="788" type="line"/>
      <point x="343" y="935" type="line"/>
    </contour>
    <contour>
      <point x="270" y="698" type="move" name="_top"/>
    </contour>
  </outline>
</glyph>
<glyph name="circumflexacute.case" format="1">
  <advance width="0"/>
  <outline>
    <contour>
      <point x="263" y="1027" type="line" name="hr00"/>
      <point x="205" y="1062" type="line"/>
      <point x="106" y="892" type="line"/>
      <point x="148" y="868" type="line"/>
    </contour>
    <contour>
      <point x="-8" y="915" type="line"/>
      <point x="-143" y="781" type="line"/>
      <point x="-104" y="751" type="line"/>
      <point x="24" y="867" type="line"/>
      <point x="106" y="751" type="line"/>
      <point x="147" y="778" type="line"/>
      <point x="62" y="915" type="line"/>
    </contour>
    <contour>
      <point x="0" y="698" type="move" name="_top"/>
    </contour>
  </outline>
</glyph>
<glyph name="circumflexacute" format="1">
  <advance width="0"/>
  <outline>
    <contour>
      <point x="260" y="857" type="line" name="hr00"/>
      <point x="202" y="892" type="line"/>
      <point x="103" y="722" type="line"/>
      <point x="145" y="698" type="line"/>
    </contour>
    <contour>
      <point x="-11" y="745" type="line"/>
      <point x="-146" y="611" type="line"/>
      <point x="-107" y="581" type="line"/>
      <point x="21" y="697" type="line"/>
      <point x="103" y="581" type="line"/>
      <point x="144" y="608" type="line"/>
      <point x="59" y="745" type="line"/>
    </contour>
    <contour>
      <point x="0" y="540" type="move" name="_top"/>
    </contour>
  </outline>
</glyph>
<glyph name="circumflexbreve.case" format="1">
  <advance width="0"/>
  <outline>
    <contour>
      <point x="7" y="890" type="line" name="hr00"/>
      <point x="-118" y="788" type="line"/>
      <point x="-87" y="754" type="line"/>
      <point x="39" y="842" type="line"/>
      <point x="130" y="754" type="line"/>
      <point x="166" y="789" type="line"/>
      <point x="77" y="890" type="line"/>
    </contour>
    <contour>
      <point x="49" y="917" type="curve" smooth="yes"/>
      <point x="138" y="917"/>
      <point x="178" y="997"/>
      <point x="204" y="1048" type="curve"/>
      <point x="159" y="1065" type="line"/>
      <point x="145" y="1041" type="line" smooth="yes"/>
      <point x="114" y="987"/>
      <point x="83" y="973"/>
      <point x="52" y="973" type="curve" smooth="yes"/>
      <point x="16" y="973"/>
      <point x="-1" y="996"/>
      <point x="-17" y="1044" type="curve" smooth="yes"/>
      <point x="-24" y="1065" type="line"/>
      <point x="-69" y="1048" type="line"/>
      <point x="-56" y="992"/>
      <point x="-34" y="917"/>
    </contour>
    <contour>
      <point x="0" y="698" type="move" name="_top"/>
    </contour>
  </outline>
</glyph>
<glyph name="circumflexgrave" format="1">
  <advance width="0"/>
  <outline>
    <contour>
      <point x="-116" y="697" type="line" name="hr00"/>
      <point x="-75" y="716" type="line"/>
      <point x="-129" y="892" type="line"/>
      <point x="-193" y="864" type="line"/>
    </contour>
    <contour>
      <point x="-11" y="745" type="line"/>
      <point x="-146" y="611" type="line"/>
      <point x="-107" y="581" type="line"/>
      <point x="21" y="697" type="line"/>
      <point x="103" y="581" type="line"/>
      <point x="144" y="608" type="line"/>
      <point x="59" y="745" type="line"/>
    </contour>
    <contour>
      <point x="0" y="540" type="move" name="_top"/>
    </contour>
  </outline>
</glyph>
<glyph name="circumflexhook" format="1">
  <advance width="0"/>
  <outline>
    <contour>
      <point x="70" y="822" type="line" name="hr00"/>
      <point x="173" y="822" type="line"/>
      <point x="110" y="714" type="line"/>
      <point x="148" y="692" type="line"/>
      <point x="184" y="733" type="line" smooth="yes"/>
      <point x="221" y="776"/>
      <point x="234" y="802"/>
      <point x="234" y="834" type="curve" smooth="yes"/>
      <point x="234" y="865"/>
      <point x="216" y="880"/>
      <point x="185" y="880" type="curve" smooth="yes"/>
      <point x="82" y="880" type="line"/>
    </contour>
    <contour>
      <point x="-11" y="745" type="line"/>
      <point x="-146" y="611" type="line"/>
      <point x="-107" y="581" type="line"/>
      <point x="21" y="697" type="line"/>
      <point x="103" y="581" type="line"/>
      <point x="144" y="608" type="line"/>
      <point x="59" y="745" type="line"/>
    </contour>
    <contour>
      <point x="0" y="540" type="move" name="_top"/>
    </contour>
  </outline>
</glyph>
<glyph name="circumflextilde" format="1">
  <advance width="0"/>
  <outline>
    <contour>
      <point x="-28" y="883" type="curve" smooth="yes"/>
      <point x="-69" y="883"/>
      <point x="-98" y="857"/>
      <point x="-119" y="831" type="curve"/>
      <point x="-94" y="796" type="line"/>
      <point x="-74" y="814"/>
      <point x="-60" y="826"/>
      <point x="-39" y="826" type="curve" smooth="yes"/>
      <point x="-24" y="826"/>
      <point x="-10" y="820"/>
      <point x="18" y="799" type="curve" smooth="yes"/>
      <point x="34" y="787"/>
      <point x="58" y="771"/>
      <point x="85" y="771" type="curve" smooth="yes" name="hr01"/>
      <point x="126" y="771"/>
      <point x="155" y="797"/>
      <point x="176" y="823" type="curve"/>
      <point x="151" y="858" type="line"/>
      <point x="131" y="840"/>
      <point x="117" y="828"/>
      <point x="96" y="828" type="curve" smooth="yes"/>
      <point x="81" y="828"/>
      <point x="67" y="834"/>
      <point x="39" y="855" type="curve" smooth="yes"/>
      <point x="23" y="867"/>
      <point x="-1" y="883"/>
    </contour>
    <contour>
      <point x="-11" y="745" type="line"/>
      <point x="-146" y="611" type="line"/>
      <point x="-107" y="581" type="line"/>
      <point x="21" y="697" type="line"/>
      <point x="103" y="581" type="line"/>
      <point x="144" y="608" type="line"/>
      <point x="59" y="745" type="line"/>
    </contour>
    <contour>
      <point x="0" y="540" type="move" name="_top"/>
    </contour>
  </outline>
</glyph>
<glyph name="dieresis.alt01" format="1">
  <advance width="540"/>
  <outline>
    <contour>
      <point x="356" y="620" type="curve" smooth="yes" name="hr00"/>
      <point x="390" y="620"/>
      <point x="405" y="631"/>
      <point x="412" y="661" type="curve" smooth="yes"/>
      <point x="415" y="674"/>
      <point x="416" y="680"/>
      <point x="416" y="689" type="curve" smooth="yes"/>
      <point x="416" y="707"/>
      <point x="402" y="718"/>
      <point x="376" y="718" type="curve" smooth="yes"/>
      <point x="342" y="718"/>
      <point x="327" y="707"/>
      <point x="320" y="677" type="curve" smooth="yes"/>
      <point x="317" y="664"/>
      <point x="316" y="658"/>
      <point x="316" y="649" type="curve" smooth="yes"/>
      <point x="316" y="631"/>
      <point x="330" y="620"/>
    </contour>
    <contour>
      <point x="208" y="620" type="curve" smooth="yes"/>
      <point x="242" y="620"/>
      <point x="257" y="631"/>
      <point x="264" y="661" type="curve" smooth="yes"/>
      <point x="267" y="674"/>
      <point x="268" y="680"/>
      <point x="268" y="689" type="curve" smooth="yes"/>
      <point x="268" y="707"/>
      <point x="254" y="718"/>
      <point x="228" y="718" type="curve" smooth="yes"/>
      <point x="194" y="718"/>
      <point x="179" y="707"/>
      <point x="172" y="677" type="curve" smooth="yes"/>
      <point x="169" y="664"/>
      <point x="168" y="658"/>
      <point x="168" y="649" type="curve" smooth="yes"/>
      <point x="168" y="631"/>
      <point x="182" y="620"/>
    </contour>
    <contour>
      <point x="270" y="540" type="move" name="_top"/>
    </contour>
  </outline>
</glyph>
<glyph name="dieresis.case" format="1">
  <advance width="540"/>
  <outline>
    <contour>
      <point x="203" y="792" type="curve" smooth="yes" name="hr00"/>
      <point x="237" y="792"/>
      <point x="252" y="803"/>
      <point x="259" y="833" type="curve" smooth="yes"/>
      <point x="262" y="846"/>
      <point x="263" y="852"/>
      <point x="263" y="861" type="curve" smooth="yes"/>
      <point x="263" y="879"/>
      <point x="249" y="890"/>
      <point x="223" y="890" type="curve" smooth="yes"/>
      <point x="189" y="890"/>
      <point x="174" y="879"/>
      <point x="167" y="849" type="curve" smooth="yes"/>
      <point x="164" y="836"/>
      <point x="163" y="830"/>
      <point x="163" y="821" type="curve" smooth="yes"/>
      <point x="163" y="803"/>
      <point x="177" y="792"/>
    </contour>
    <contour>
      <point x="371" y="792" type="curve" smooth="yes"/>
      <point x="405" y="792"/>
      <point x="420" y="803"/>
      <point x="427" y="833" type="curve" smooth="yes"/>
      <point x="430" y="846"/>
      <point x="431" y="852"/>
      <point x="431" y="861" type="curve" smooth="yes"/>
      <point x="431" y="879"/>
      <point x="417" y="890"/>
      <point x="391" y="890" type="curve" smooth="yes"/>
      <point x="357" y="890"/>
      <point x="342" y="879"/>
      <point x="335" y="849" type="curve" smooth="yes"/>
      <point x="332" y="836"/>
      <point x="331" y="830"/>
      <point x="331" y="821" type="curve" smooth="yes"/>
      <point x="331" y="803"/>
      <point x="345" y="792"/>
    </contour>
    <contour>
      <point x="270" y="698" type="move" name="_top"/>
    </contour>
  </outline>
</glyph>
<glyph name="dieresisacute.case" format="1">
  <advance width="0"/>
  <outline>
    <contour>
      <point x="149" y="1026" type="line" name="hr00"/>
      <point x="91" y="1061" type="line"/>
      <point x="-8" y="891" type="line"/>
      <point x="34" y="867" type="line"/>
    </contour>
    <contour>
      <point x="-74" y="767" type="curve" smooth="yes"/>
      <point x="-41" y="767"/>
      <point x="-26" y="778"/>
      <point x="-19" y="808" type="curve" smooth="yes"/>
      <point x="-16" y="821"/>
      <point x="-15" y="827"/>
      <point x="-15" y="836" type="curve" smooth="yes"/>
      <point x="-15" y="854"/>
      <point x="-29" y="865"/>
      <point x="-54" y="865" type="curve" smooth="yes"/>
      <point x="-87" y="865"/>
      <point x="-102" y="854"/>
      <point x="-109" y="824" type="curve" smooth="yes"/>
      <point x="-112" y="811"/>
      <point x="-113" y="805"/>
      <point x="-113" y="796" type="curve" smooth="yes"/>
      <point x="-113" y="778"/>
      <point x="-99" y="767"/>
    </contour>
    <contour>
      <point x="92" y="767" type="curve" smooth="yes"/>
      <point x="125" y="767"/>
      <point x="140" y="778"/>
      <point x="147" y="808" type="curve" smooth="yes"/>
      <point x="150" y="821"/>
      <point x="151" y="827"/>
      <point x="151" y="836" type="curve" smooth="yes"/>
      <point x="151" y="854"/>
      <point x="137" y="865"/>
      <point x="112" y="865" type="curve" smooth="yes"/>
      <point x="79" y="865"/>
      <point x="64" y="854"/>
      <point x="57" y="824" type="curve" smooth="yes"/>
      <point x="54" y="811"/>
      <point x="53" y="805"/>
      <point x="53" y="796" type="curve" smooth="yes"/>
      <point x="53" y="778"/>
      <point x="67" y="767"/>
    </contour>
    <contour>
      <point x="0" y="698" type="move" name="_top"/>
    </contour>
  </outline>
</glyph>
<glyph name="dieresisgrave" format="1">
  <advance width="0"/>
  <outline>
    <contour>
      <point x="28" y="697" type="line" name="hr00"/>
      <point x="72" y="717" type="line"/>
      <point x="19" y="891" type="line"/>
      <point x="-49" y="862" type="line"/>
    </contour>
    <contour>
      <point x="-74" y="598" type="curve" smooth="yes"/>
      <point x="-41" y="598"/>
      <point x="-26" y="609"/>
      <point x="-19" y="639" type="curve" smooth="yes"/>
      <point x="-16" y="652"/>
      <point x="-15" y="658"/>
      <point x="-15" y="667" type="curve" smooth="yes"/>
      <point x="-15" y="685"/>
      <point x="-29" y="696"/>
      <point x="-54" y="696" type="curve" smooth="yes"/>
      <point x="-87" y="696"/>
      <point x="-102" y="685"/>
      <point x="-109" y="655" type="curve" smooth="yes"/>
      <point x="-112" y="642"/>
      <point x="-113" y="636"/>
      <point x="-113" y="627" type="curve" smooth="yes"/>
      <point x="-113" y="609"/>
      <point x="-99" y="598"/>
    </contour>
    <contour>
      <point x="92" y="598" type="curve" smooth="yes"/>
      <point x="125" y="598"/>
      <point x="140" y="609"/>
      <point x="147" y="639" type="curve" smooth="yes"/>
      <point x="150" y="652"/>
      <point x="151" y="658"/>
      <point x="151" y="667" type="curve" smooth="yes"/>
      <point x="151" y="685"/>
      <point x="137" y="696"/>
      <point x="112" y="696" type="curve" smooth="yes"/>
      <point x="79" y="696"/>
      <point x="64" y="685"/>
      <point x="57" y="655" type="curve" smooth="yes"/>
      <point x="54" y="642"/>
      <point x="53" y="636"/>
      <point x="53" y="627" type="curve" smooth="yes"/>
      <point x="53" y="609"/>
      <point x="67" y="598"/>
    </contour>
    <contour>
      <point x="0" y="540" type="move" name="_top"/>
    </contour>
  </outline>
</glyph>
<glyph name="dieresismacron.case" format="1">
  <advance width="0"/>
  <outline>
    <contour>
      <point x="-83" y="919" type="line" name="hr00"/>
      <point x="163" y="919" type="line"/>
      <point x="175" y="981" type="line"/>
      <point x="-71" y="981" type="line"/>
    </contour>
    <contour>
      <point x="-74" y="767" type="curve" smooth="yes"/>
      <point x="-41" y="767"/>
      <point x="-26" y="778"/>
      <point x="-19" y="808" type="curve" smooth="yes"/>
      <point x="-16" y="821"/>
      <point x="-15" y="827"/>
      <point x="-15" y="836" type="curve" smooth="yes"/>
      <point x="-15" y="854"/>
      <point x="-29" y="865"/>
      <point x="-54" y="865" type="curve" smooth="yes"/>
      <point x="-87" y="865"/>
      <point x="-102" y="854"/>
      <point x="-109" y="824" type="curve" smooth="yes"/>
      <point x="-112" y="811"/>
      <point x="-113" y="805"/>
      <point x="-113" y="796" type="curve" smooth="yes"/>
      <point x="-113" y="778"/>
      <point x="-99" y="767"/>
    </contour>
    <contour>
      <point x="92" y="767" type="curve" smooth="yes"/>
      <point x="125" y="767"/>
      <point x="140" y="778"/>
      <point x="147" y="808" type="curve" smooth="yes"/>
      <point x="150" y="821"/>
      <point x="151" y="827"/>
      <point x="151" y="836" type="curve" smooth="yes"/>
      <point x="151" y="854"/>
      <point x="137" y="865"/>
      <point x="112" y="865" type="curve" smooth="yes"/>
      <point x="79" y="865"/>
      <point x="64" y="854"/>
      <point x="57" y="824" type="curve" smooth="yes"/>
      <point x="54" y="811"/>
      <point x="53" y="805"/>
      <point x="53" y="796" type="curve" smooth="yes"/>
      <point x="53" y="778"/>
      <point x="67" y="767"/>
    </contour>
    <contour>
      <point x="0" y="698" type="move" name="_top"/>
    </contour>
  </outline>
</glyph>
<glyph name="dotaccent.case" format="1">
  <advance width="540"/>
  <outline>
    <contour>
      <point x="289" y="792" type="curve" smooth="yes" name="hr00"/>
      <point x="323" y="792"/>
      <point x="338" y="803"/>
      <point x="345" y="833" type="curve" smooth="yes"/>
      <point x="348" y="846"/>
      <point x="349" y="852"/>
      <point x="349" y="861" type="curve" smooth="yes"/>
      <point x="349" y="879"/>
      <point x="335" y="890"/>
      <point x="309" y="890" type="curve" smooth="yes"/>
      <point x="275" y="890"/>
      <point x="260" y="879"/>
      <point x="253" y="849" type="curve" smooth="yes"/>
      <point x="250" y="836"/>
      <point x="249" y="830"/>
      <point x="249" y="821" type="curve" smooth="yes"/>
      <point x="249" y="803"/>
      <point x="263" y="792"/>
    </contour>
    <contour>
      <point x="270" y="698" type="move" name="_top"/>
    </contour>
  </outline>
</glyph>
<glyph name="eight.tosf" format="1">
  <advance width="540"/>
  <outline>
    <contour>
      <point x="230" y="-12" type="curve" smooth="yes"/>
      <point x="381" y="-12"/>
      <point x="464" y="88"/>
      <point x="464" y="220" type="curve" smooth="yes"/>
      <point x="464" y="298"/>
      <point x="436" y="343"/>
      <point x="363" y="360" type="curve"/>
      <point x="365" y="370" type="line"/>
      <point x="455" y="386"/>
      <point x="507" y="467"/>
      <point x="507" y="558" type="curve" smooth="yes" name=""/>
      <point x="507" y="649"/>
      <point x="456" y="710"/>
      <point x="343" y="710" type="curve" smooth="yes"/>
      <point x="206" y="710"/>
      <point x="129" y="620"/>
      <point x="129" y="506" type="curve" smooth="yes"/>
      <point x="129" y="434"/>
      <point x="160" y="392"/>
      <point x="217" y="375" type="curve"/>
      <point x="215" y="365" type="line"/>
      <point x="108" y="354"/>
      <point x="46" y="264"/>
      <point x="46" y="159" type="curve" smooth="yes"/>
      <point x="46" y="52"/>
      <point x="109" y="-12"/>
    </contour>
    <contour>
      <point x="238" y="55" type="curve" smooth="yes"/>
      <point x="164" y="55"/>
      <point x="123" y="89"/>
      <point x="123" y="147" type="curve" smooth="yes"/>
      <point x="123" y="170"/>
      <point x="129" y="210"/>
      <point x="135" y="232" type="curve" smooth="yes"/>
      <point x="152" y="295"/>
      <point x="191" y="335"/>
      <point x="273" y="335" type="curve" smooth="yes"/>
      <point x="347" y="335"/>
      <point x="388" y="301"/>
      <point x="388" y="243" type="curve" smooth="yes" name=""/>
      <point x="388" y="220"/>
      <point x="382" y="180"/>
      <point x="376" y="158" type="curve" smooth="yes"/>
      <point x="359" y="95"/>
      <point x="320" y="55"/>
    </contour>
    <contour>
      <point x="301" y="399" type="curve" smooth="yes"/>
      <point x="229" y="399"/>
      <point x="203" y="431"/>
      <point x="203" y="488" type="curve" smooth="yes"/>
      <point x="203" y="503"/>
      <point x="205" y="519"/>
      <point x="209" y="538" type="curve" smooth="yes"/>
      <point x="224" y="606"/>
      <point x="252" y="643"/>
      <point x="330" y="643" type="curve" smooth="yes"/>
      <point x="402" y="643"/>
      <point x="428" y="611"/>
      <point x="428" y="554" type="curve" smooth="yes" name=""/>
      <point x="428" y="539"/>
      <point x="426" y="523"/>
      <point x="422" y="504" type="curve" smooth="yes"/>
      <point x="407" y="436"/>
      <point x="379" y="399"/>
    </contour>
  </outline>
</glyph>
<glyph name="five.tosf" format="1">
  <advance width="540"/>
  <outline>
    <contour>
      <point x="489" y="536" type="line" name=""/>
      <point x="163" y="536" type="line"/>
      <point x="70" y="145" type="line"/>
      <point x="134" y="135" type="line"/>
      <point x="162" y="176"/>
      <point x="199" y="206"/>
      <point x="256" y="206" type="curve" smooth="yes"/>
      <point x="332" y="206"/>
      <point x="360" y="169"/>
      <point x="360" y="103" type="curve" smooth="yes"/>
      <point x="360" y="84"/>
      <point x="355" y="55"/>
      <point x="351" y="32" type="curve" smooth="yes"/>
      <point x="334" y="-61"/>
      <point x="287" y="-105"/>
      <point x="207" y="-105" type="curve" smooth="yes"/>
      <point x="125" y="-105"/>
      <point x="92" y="-67"/>
      <point x="75" y="-9" type="curve"/>
      <point x="11" y="-51" type="line"/>
      <point x="32" y="-115"/>
      <point x="88" y="-173"/>
      <point x="197" y="-173" type="curve" smooth="yes"/>
      <point x="353" y="-173"/>
      <point x="438" y="-67"/>
      <point x="438" y="102" type="curve" smooth="yes"/>
      <point x="438" y="222"/>
      <point x="382" y="273"/>
      <point x="290" y="273" type="curve" smooth="yes"/>
      <point x="223" y="273"/>
      <point x="183" y="247"/>
      <point x="155" y="189" type="curve"/>
      <point x="145" y="189" type="line"/>
      <point x="211" y="469" type="line"/>
      <point x="475" y="469" type="line"/>
    </contour>
  </outline>
</glyph>
<glyph name="fraction.alt01" format="1">
  <advance width="96"/>
  <outline>
    <contour>
      <point x="101" y="434" type="line" name="hr00"/>
      <point x="170" y="434" type="line"/>
      <point x="384" y="698" type="line"/>
      <point x="315" y="698" type="line"/>
    </contour>
    <contour>
      <point x="-251" y="0" type="line"/>
      <point x="-182" y="0" type="line"/>
      <point x="24" y="254" type="line"/>
      <point x="-45" y="254" type="line"/>
    </contour>
  </outline>
</glyph>
<glyph name="fraction.rvrn" format="1">
  <advance width="96"/>
  <outline>
    <contour>
      <point x="101" y="434" type="line" name=""/>
      <point x="170" y="434" type="line"/>
      <point x="384" y="698" type="line"/>
      <point x="315" y="698" type="line"/>
    </contour>
    <contour>
      <point x="-251" y="0" type="line"/>
      <point x="-182" y="0" type="line"/>
      <point x="24" y="254" type="line"/>
      <point x="-45" y="254" type="line"/>
    </contour>
  </outline>
</glyph>
<glyph name="g.alt02" format="1">
  <advance width="469"/>
  <outline>
    <contour>
      <point x="417" y="-39" type="curve" smooth="yes"/>
      <point x="417" y="36"/>
      <point x="383" y="76"/>
      <point x="283" y="76" type="curve" smooth="yes"/>
      <point x="164" y="76" type="line" smooth="yes"/>
      <point x="128" y="76"/>
      <point x="111" y="86"/>
      <point x="111" y="114" type="curve" smooth="yes"/>
      <point x="111" y="149"/>
      <point x="138" y="167"/>
      <point x="183" y="174" type="curve"/>
      <point x="195" y="173"/>
      <point x="209" y="172"/>
      <point x="221" y="172" type="curve" smooth="yes"/>
      <point x="350" y="172"/>
      <point x="427" y="260"/>
      <point x="427" y="370" type="curve" smooth="yes" name="hr01"/>
      <point x="427" y="421"/>
      <point x="410" y="439"/>
      <point x="366" y="446" type="curve"/>
      <point x="368" y="456" type="line"/>
      <point x="477" y="456" type="line"/>
      <point x="489" y="516" type="line"/>
      <point x="348" y="516" type="line"/>
      <point x="329" y="523"/>
      <point x="307" y="528"/>
      <point x="278" y="528" type="curve" smooth="yes" name="hr02"/>
      <point x="155" y="528"/>
      <point x="79" y="439"/>
      <point x="79" y="314" type="curve" smooth="yes"/>
      <point x="79" y="257"/>
      <point x="95" y="209"/>
      <point x="140" y="190" type="curve"/>
      <point x="138" y="180" type="line"/>
      <point x="77" y="168"/>
      <point x="43" y="139"/>
      <point x="43" y="86" type="curve" smooth="yes" name="hr03"/>
      <point x="43" y="56"/>
      <point x="54" y="34"/>
      <point x="80" y="24" type="curve"/>
      <point x="78" y="14" type="line"/>
      <point x="13" y="0"/>
      <point x="-17" y="-46"/>
      <point x="-17" y="-101" type="curve" smooth="yes" name="hr04"/>
      <point x="-17" y="-180"/>
      <point x="40" y="-212"/>
      <point x="163" y="-212" type="curve" smooth="yes"/>
      <point x="336" y="-212"/>
      <point x="417" y="-151"/>
    </contour>
    <contour>
      <point x="236" y="230" type="curve" smooth="yes"/>
      <point x="176" y="230"/>
      <point x="152" y="259"/>
      <point x="152" y="301" type="curve" smooth="yes"/>
      <point x="152" y="316"/>
      <point x="155" y="342"/>
      <point x="161" y="368" type="curve" smooth="yes"/>
      <point x="175" y="429"/>
      <point x="201" y="469"/>
      <point x="271" y="469" type="curve" smooth="yes"/>
      <point x="330" y="469"/>
      <point x="354" y="440"/>
      <point x="354" y="398" type="curve" smooth="yes" name="hr05"/>
      <point x="354" y="383"/>
      <point x="351" y="357"/>
      <point x="345" y="331" type="curve" smooth="yes"/>
      <point x="330" y="266"/>
      <point x="302" y="230"/>
    </contour>
    <contour>
      <point x="341" y="-53" type="curve" smooth="yes" name="hr06"/>
      <point x="341" y="-119"/>
      <point x="297" y="-152"/>
      <point x="199" y="-152" type="curve" smooth="yes"/>
      <point x="142" y="-152" type="line" smooth="yes"/>
      <point x="76" y="-152"/>
      <point x="55" y="-124"/>
      <point x="55" y="-77" type="curve" smooth="yes"/>
      <point x="55" y="-34"/>
      <point x="73" y="-8"/>
      <point x="108" y="7" type="curve"/>
      <point x="275" y="7" type="line" smooth="yes"/>
      <point x="325" y="7"/>
      <point x="341" y="-11"/>
    </contour>
    <contour>
      <point x="282" y="540" type="move" name="top"/>
    </contour>
  </outline>
</glyph>
<glyph name="hookcomb.case" format="1">
  <advance width="0"/>
  <outline>
    <contour>
      <point x="-63" y="877" type="line" name="hr00"/>
      <point x="45" y="877" type="line"/>
      <point x="-18" y="769" type="line"/>
      <point x="20" y="747" type="line"/>
      <point x="56" y="788" type="line" smooth="yes"/>
      <point x="93" y="831"/>
      <point x="106" y="857"/>
      <point x="106" y="889" type="curve" smooth="yes"/>
      <point x="106" y="920"/>
      <point x="88" y="935"/>
      <point x="57" y="935" type="curve" smooth="yes"/>
      <point x="-51" y="935" type="line"/>
    </contour>
    <contour>
      <point x="0" y="698" type="move" name="_top"/>
    </contour>
  </outline>
</glyph>
<glyph name="hungarumlaut.case" format="1">
  <advance width="540"/>
  <outline>
    <contour>
      <point x="331" y="914" type="line" name="hr00"/>
      <point x="274" y="949" type="line"/>
      <point x="175" y="778" type="line"/>
      <point x="216" y="755" type="line"/>
    </contour>
    <contour>
      <point x="475" y="914" type="line"/>
      <point x="418" y="949" type="line"/>
      <point x="319" y="778" type="line"/>
      <point x="360" y="755" type="line"/>
    </contour>
    <contour>
      <point x="270" y="698" type="move" name="_top"/>
    </contour>
  </outline>
</glyph>
<glyph name="macron.alt01" format="1">
  <advance width="540"/>
  <outline>
    <contour>
      <point x="170" y="640" type="line" name="hr00"/>
      <point x="396" y="640" type="line"/>
      <point x="408" y="702" type="line"/>
      <point x="182" y="702" type="line"/>
    </contour>
    <contour>
      <point x="270" y="540" type="move" name="_top"/>
    </contour>
  </outline>
</glyph>
<glyph name="macron.case" format="1">
  <advance width="540"/>
  <outline>
    <contour>
      <point x="166" y="810" type="line" name="hr00"/>
      <point x="412" y="810" type="line"/>
      <point x="424" y="872" type="line"/>
      <point x="178" y="872" type="line"/>
    </contour>
    <contour>
      <point x="270" y="698" type="move" name="_top"/>
    </contour>
  </outline>
</glyph>
<glyph name="naira.alt01" format="1">
  <advance width="626"/>
  <outline>
    <contour>
      <point x="111" y="0" type="line"/>
      <point x="202" y="453" type="line"/>
      <point x="224" y="608" type="line"/>
      <point x="234" y="608" type="line"/>
      <point x="269" y="453" type="line"/>
      <point x="392" y="0" type="line" name="hr00"/>
      <point x="487" y="0" type="line"/>
      <point x="627" y="698" type="line"/>
      <point x="553" y="698" type="line"/>
      <point x="462" y="245" type="line"/>
      <point x="440" y="90" type="line"/>
      <point x="430" y="90" type="line"/>
      <point x="395" y="245" type="line"/>
      <point x="272" y="698" type="line"/>
      <point x="177" y="698" type="line"/>
      <point x="37" y="0" type="line"/>
    </contour>
    <contour>
      <point x="20" y="236" type="line"/>
      <point x="120" y="236" type="line"/>
      <point x="140" y="236" type="line"/>
      <point x="500" y="236" type="line"/>
      <point x="520" y="236" type="line"/>
      <point x="598" y="236" type="line"/>
      <point x="610" y="299" type="line"/>
      <point x="520" y="299" type="line"/>
      <point x="500" y="295" type="line"/>
      <point x="140" y="295" type="line"/>
      <point x="120" y="299" type="line"/>
      <point x="32" y="299" type="line"/>
    </contour>
    <contour>
      <point x="53" y="399" type="line"/>
      <point x="143" y="399" type="line"/>
      <point x="163" y="403" type="line"/>
      <point x="523" y="403" type="line"/>
      <point x="543" y="399" type="line"/>
      <point x="631" y="399" type="line"/>
      <point x="643" y="462" type="line"/>
      <point x="543" y="462" type="line"/>
      <point x="523" y="462" type="line"/>
      <point x="163" y="462" type="line"/>
      <point x="143" y="462" type="line"/>
      <point x="65" y="462" type="line"/>
    </contour>
  </outline>
</glyph>
<glyph name="nine.tosf" format="1">
  <advance width="540"/>
  <outline>
    <contour>
      <point x="484" y="358" type="curve" smooth="yes" name=""/>
      <point x="484" y="479"/>
      <point x="423" y="548"/>
      <point x="304" y="548" type="curve" smooth="yes"/>
      <point x="178" y="548"/>
      <point x="104" y="471"/>
      <point x="81" y="361" type="curve" smooth="yes"/>
      <point x="77" y="342"/>
      <point x="72" y="310"/>
      <point x="72" y="279" type="curve" smooth="yes"/>
      <point x="72" y="175"/>
      <point x="131" y="103"/>
      <point x="232" y="103" type="curve" smooth="yes"/>
      <point x="293" y="103"/>
      <point x="340" y="129"/>
      <point x="376" y="202" type="curve"/>
      <point x="386" y="202" type="line"/>
      <point x="347" y="70"/>
      <point x="226" y="-61"/>
      <point x="68" y="-161" type="curve"/>
      <point x="177" y="-161" type="line"/>
      <point x="308" y="-80"/>
      <point x="431" y="58"/>
      <point x="472" y="253" type="curve" smooth="yes"/>
      <point x="478" y="282"/>
      <point x="484" y="320"/>
    </contour>
    <contour>
      <point x="260" y="171" type="curve" smooth="yes"/>
      <point x="188" y="171"/>
      <point x="153" y="213"/>
      <point x="153" y="289" type="curve" smooth="yes"/>
      <point x="153" y="311"/>
      <point x="156" y="331"/>
      <point x="158" y="341" type="curve" smooth="yes"/>
      <point x="174" y="426"/>
      <point x="219" y="480"/>
      <point x="301" y="480" type="curve" smooth="yes"/>
      <point x="373" y="480"/>
      <point x="408" y="438"/>
      <point x="408" y="362" type="curve" smooth="yes"/>
      <point x="408" y="340"/>
      <point x="405" y="320"/>
      <point x="403" y="310" type="curve" smooth="yes"/>
      <point x="387" y="225"/>
      <point x="342" y="171"/>
    </contour>
  </outline>
</glyph>
<glyph name="ring.case" format="1">
  <advance width="540"/>
  <outline>
    <contour>
      <point x="280" y="746" type="curve" smooth="yes" name="hr00"/>
      <point x="356" y="746"/>
      <point x="408" y="796"/>
      <point x="408" y="879" type="curve" smooth="yes"/>
      <point x="408" y="948"/>
      <point x="372" y="976"/>
      <point x="316" y="976" type="curve" smooth="yes"/>
      <point x="240" y="976"/>
      <point x="188" y="926"/>
      <point x="188" y="843" type="curve" smooth="yes"/>
      <point x="188" y="774"/>
      <point x="224" y="746"/>
    </contour>
    <contour>
      <point x="289" y="792" type="curve" smooth="yes"/>
      <point x="256" y="792"/>
      <point x="240" y="807"/>
      <point x="240" y="831" type="curve" smooth="yes"/>
      <point x="240" y="841"/>
      <point x="244" y="865"/>
      <point x="249" y="889" type="curve" smooth="yes"/>
      <point x="254" y="912"/>
      <point x="269" y="930"/>
      <point x="306" y="930" type="curve" smooth="yes"/>
      <point x="339" y="930"/>
      <point x="355" y="915"/>
      <point x="355" y="891" type="curve" smooth="yes"/>
      <point x="355" y="881"/>
      <point x="351" y="857"/>
      <point x="346" y="833" type="curve" smooth="yes"/>
      <point x="341" y="810"/>
      <point x="326" y="792"/>
    </contour>
    <contour>
      <point x="270" y="698" type="move" name="_top"/>
    </contour>
  </outline>
</glyph>
<glyph name="three.tosf" format="1">
  <advance width="540"/>
  <outline>
    <contour>
      <point x="181" y="237" type="line"/>
      <point x="167" y="170" type="line"/>
      <point x="229" y="170" type="line" smooth="yes"/>
      <point x="299" y="170"/>
      <point x="334" y="130"/>
      <point x="334" y="75" type="curve" smooth="yes"/>
      <point x="334" y="56"/>
      <point x="331" y="36"/>
      <point x="328" y="20" type="curve" smooth="yes"/>
      <point x="312" y="-65"/>
      <point x="273" y="-106"/>
      <point x="191" y="-106" type="curve" smooth="yes"/>
      <point x="109" y="-106"/>
      <point x="83" y="-71"/>
      <point x="64" y="-10" type="curve"/>
      <point x="1" y="-52" type="line"/>
      <point x="24" y="-118"/>
      <point x="80" y="-174"/>
      <point x="185" y="-174" type="curve" smooth="yes"/>
      <point x="338" y="-174"/>
      <point x="412" y="-75"/>
      <point x="412" y="60" type="curve" smooth="yes"/>
      <point x="412" y="141"/>
      <point x="371" y="189"/>
      <point x="301" y="198" type="curve"/>
      <point x="303" y="208" type="line"/>
      <point x="388" y="221"/>
      <point x="455" y="289"/>
      <point x="455" y="396" type="curve" smooth="yes" name=""/>
      <point x="455" y="487"/>
      <point x="400" y="548"/>
      <point x="298" y="548" type="curve" smooth="yes"/>
      <point x="200" y="548"/>
      <point x="140" y="501"/>
      <point x="98" y="437" type="curve"/>
      <point x="150" y="392" type="line"/>
      <point x="185" y="456"/>
      <point x="223" y="480"/>
      <point x="284" y="480" type="curve" smooth="yes"/>
      <point x="341" y="480"/>
      <point x="375" y="453"/>
      <point x="375" y="398" type="curve" smooth="yes"/>
      <point x="375" y="382"/>
      <point x="373" y="371"/>
      <point x="369" y="352" type="curve" smooth="yes"/>
      <point x="351" y="265"/>
      <point x="309" y="237"/>
      <point x="242" y="237" type="curve" smooth="yes"/>
    </contour>
  </outline>
</glyph>
<glyph name="tilde.alt01" format="1">
  <advance width="540"/>
  <outline>
    <contour>
      <point x="341" y="618" type="curve" smooth="yes"/>
      <point x="376" y="618"/>
      <point x="406" y="642"/>
      <point x="426" y="667" type="curve"/>
      <point x="399" y="706" type="line"/>
      <point x="380" y="689"/>
      <point x="364" y="679"/>
      <point x="346" y="679" type="curve" smooth="yes"/>
      <point x="332" y="679"/>
      <point x="320" y="685"/>
      <point x="298" y="700" type="curve" smooth="yes"/>
      <point x="279" y="713"/>
      <point x="263" y="722"/>
      <point x="241" y="722" type="curve" smooth="yes" name="hr01"/>
      <point x="206" y="722"/>
      <point x="175" y="698"/>
      <point x="156" y="673" type="curve"/>
      <point x="183" y="634" type="line"/>
      <point x="201" y="651"/>
      <point x="218" y="661"/>
      <point x="236" y="661" type="curve" smooth="yes"/>
      <point x="250" y="661"/>
      <point x="262" y="655"/>
      <point x="284" y="640" type="curve" smooth="yes"/>
      <point x="303" y="627"/>
      <point x="319" y="618"/>
    </contour>
    <contour>
      <point x="270" y="540" type="move" name="_top"/>
    </contour>
  </outline>
</glyph>
<glyph name="two.tosf" format="1">
  <advance width="540"/>
  <outline>
    <contour>
      <point x="33" y="0" type="line" name=""/>
      <point x="422" y="0" type="line"/>
      <point x="435" y="68" type="line"/>
      <point x="137" y="68" type="line"/>
      <point x="249" y="140" type="line" smooth="yes"/>
      <point x="314" y="182"/>
      <point x="454" y="261"/>
      <point x="454" y="405" type="curve" smooth="yes"/>
      <point x="454" y="496"/>
      <point x="396" y="548"/>
      <point x="308" y="548" type="curve" smooth="yes"/>
      <point x="204" y="548"/>
      <point x="142" y="501"/>
      <point x="100" y="413" type="curve"/>
      <point x="160" y="380" type="line"/>
      <point x="189" y="449"/>
      <point x="230" y="480"/>
      <point x="293" y="480" type="curve" smooth="yes"/>
      <point x="345" y="480"/>
      <point x="374" y="448"/>
      <point x="374" y="402" type="curve" smooth="yes"/>
      <point x="374" y="391"/>
      <point x="371" y="369"/>
      <point x="369" y="359" type="curve" smooth="yes"/>
      <point x="356" y="284"/>
      <point x="266" y="225"/>
      <point x="218" y="193" type="curve" smooth="yes"/>
      <point x="48" y="82" type="line"/>
    </contour>
  </outline>
</glyph>
<glyph name="won.alt01" format="1">
  <advance width="796"/>
  <outline>
    <contour>
      <point x="124.0" y="0.0" type="line"/>
      <point x="213.0" y="0.0" type="line"/>
      <point x="392" y="441" type="line"/>
      <point x="458.0" y="611.0" type="line"/>
      <point x="468.0" y="611.0" type="line"/>
      <point x="470" y="441" type="line"/>
      <point x="478.0" y="0.0" type="line" name="hr00"/>
      <point x="565.0" y="0.0" type="line"/>
      <point x="858.0" y="698.0" type="line"/>
      <point x="780.0" y="698.0" type="line"/>
      <point x="600" y="247" type="line"/>
      <point x="542.0" y="77.0" type="line"/>
      <point x="532.0" y="77.0" type="line"/>
      <point x="537" y="247" type="line"/>
      <point x="527.0" y="698.0" type="line"/>
      <point x="434.0" y="698.0" type="line"/>
      <point x="248" y="247" type="line"/>
      <point x="189.0" y="77.0" type="line"/>
      <point x="180.0" y="77.0" type="line"/>
      <point x="185" y="247" type="line"/>
      <point x="185.0" y="698.0" type="line"/>
      <point x="113.0" y="698.0" type="line"/>
    </contour>
    <contour>
      <point x="18" y="236" type="line"/>
      <point x="118" y="236" type="line"/>
      <point x="138" y="236" type="line"/>
      <point x="673" y="236" type="line"/>
      <point x="693" y="236" type="line"/>
      <point x="771" y="236" type="line"/>
      <point x="783" y="299" type="line"/>
      <point x="693" y="299" type="line"/>
      <point x="673" y="295" type="line"/>
      <point x="138" y="295" type="line"/>
      <point x="118" y="299" type="line"/>
      <point x="30" y="299" type="line"/>
    </contour>
    <contour>
      <point x="51" y="399" type="line"/>
      <point x="141" y="399" type="line"/>
      <point x="161" y="403" type="line"/>
      <point x="696" y="403" type="line"/>
      <point x="716" y="399" type="line"/>
      <point x="804" y="399" type="line"/>
      <point x="816" y="462" type="line"/>
      <point x="716" y="462" type="line"/>
      <point x="696" y="462" type="line"/>
      <point x="161" y="462" type="line"/>
      <point x="141" y="462" type="line"/>
      <point x="63" y="462" type="line"/>
    </contour>
  </outline>
</glyph>
<glyph name="won.rvrn" format="1">
  <advance width="796"/>
  <outline>
    <contour>
      <point x="124.0" y="0.0" type="line"/>
      <point x="213.0" y="0.0" type="line"/>
      <point x="392" y="441" type="line"/>
      <point x="458.0" y="611.0" type="line"/>
      <point x="468.0" y="611.0" type="line"/>
      <point x="470" y="441" type="line"/>
      <point x="478.0" y="0.0" type="line" name=""/>
      <point x="565.0" y="0.0" type="line"/>
      <point x="858.0" y="698.0" type="line"/>
      <point x="780.0" y="698.0" type="line"/>
      <point x="600" y="247" type="line"/>
      <point x="542.0" y="77.0" type="line"/>
      <point x="532.0" y="77.0" type="line"/>
      <point x="537" y="247" type="line"/>
      <point x="527.0" y="698.0" type="line"/>
      <point x="434.0" y="698.0" type="line"/>
      <point x="248" y="247" type="line"/>
      <point x="189.0" y="77.0" type="line"/>
      <point x="180.0" y="77.0" type="line"/>
      <point x="185" y="247" type="line"/>
      <point x="185.0" y="698.0" type="line"/>
      <point x="113.0" y="698.0" type="line"/>
    </contour>
    <contour>
      <point x="18" y="236" type="line"/>
      <point x="118" y="236" type="line"/>
      <point x="138" y="236" type="line"/>
      <point x="673" y="236" type="line"/>
      <point x="693" y="236" type="line"/>
      <point x="771" y="236" type="line"/>
      <point x="783" y="299" type="line"/>
      <point x="693" y="299" type="line"/>
      <point x="673" y="295" type="line"/>
      <point x="138" y="295" type="line"/>
      <point x="118" y="299" type="line"/>
      <point x="30" y="299" type="line"/>
    </contour>
    <contour>
      <point x="51" y="399" type="line"/>
      <point x="141" y="399" type="line"/>
      <point x="161" y="403" type="line"/>
      <point x="696" y="403" type="line"/>
      <point x="716" y="399" type="line"/>
      <point x="804" y="399" type="line"/>
      <point x="816" y="462" type="line"/>
      <point x="716" y="462" type="line"/>
      <point x="696" y="462" type="line"/>
      <point x="161" y="462" type="line"/>
      <point x="141" y="462" type="line"/>
      <point x="63" y="462" type="line"/>
    </contour>
  </outline>
</glyph>
<glyph name="zero.alt02" format="1">
  <advance width="540"/>
  <outline>
    <contour>
      <point x="236" y="-12" type="curve" smooth="yes" name=""/>
      <point x="378" y="-12"/>
      <point x="449" y="100"/>
      <point x="487" y="267" type="curve" smooth="yes"/>
      <point x="501" y="329"/>
      <point x="525" y="449"/>
      <point x="525" y="517" type="curve" smooth="yes"/>
      <point x="525" y="624"/>
      <point x="467" y="710"/>
      <point x="342" y="710" type="curve" smooth="yes"/>
      <point x="200" y="710"/>
      <point x="129" y="598"/>
      <point x="91" y="431" type="curve" smooth="yes"/>
      <point x="77" y="369"/>
      <point x="53" y="249"/>
      <point x="53" y="181" type="curve" smooth="yes"/>
      <point x="53" y="74"/>
      <point x="111" y="-12"/>
    </contour>
    <contour>
      <point x="242" y="54" type="curve" smooth="yes"/>
      <point x="176" y="54"/>
      <point x="143" y="88"/>
      <point x="132" y="149" type="curve"/>
      <point x="280" y="298" type="line"/>
      <point x="444" y="476" type="line"/>
      <point x="454" y="476" type="line"/>
      <point x="449" y="456"/>
      <point x="443" y="433"/>
      <point x="438" y="412" type="curve" smooth="yes"/>
      <point x="433" y="393"/>
      <point x="427" y="369"/>
      <point x="422" y="349" type="curve"/>
      <point x="400" y="240" type="line" smooth="yes"/>
      <point x="376" y="121"/>
      <point x="331" y="54"/>
    </contour>
    <contour>
      <point x="336" y="644" type="curve" smooth="yes"/>
      <point x="402" y="644"/>
      <point x="435" y="610"/>
      <point x="446" y="549" type="curve"/>
      <point x="298" y="400" type="line"/>
      <point x="134" y="222" type="line"/>
      <point x="124" y="222" type="line"/>
      <point x="129" y="242"/>
      <point x="135" y="265"/>
      <point x="140" y="286" type="curve" smooth="yes"/>
      <point x="145" y="305"/>
      <point x="151" y="329"/>
      <point x="156" y="349" type="curve"/>
      <point x="178" y="458" type="line" smooth="yes"/>
      <point x="202" y="577"/>
      <point x="247" y="644"/>
    </contour>
  </outline>
</glyph>
<glyph name="zero.tosf.alt01" format="1">
  <advance width="540"/>
  <outline>
    <contour>
      <point x="227" y="-12" type="curve" smooth="yes" name=""/>
      <point x="388" y="-12"/>
      <point x="487" y="138"/>
      <point x="487" y="337" type="curve" smooth="yes"/>
      <point x="487" y="469"/>
      <point x="427" y="548"/>
      <point x="309" y="548" type="curve" smooth="yes"/>
      <point x="148" y="548"/>
      <point x="49" y="398"/>
      <point x="49" y="200" type="curve" smooth="yes"/>
      <point x="49" y="67"/>
      <point x="110" y="-12"/>
    </contour>
    <contour>
      <point x="235" y="54" type="curve" smooth="yes"/>
      <point x="165" y="54"/>
      <point x="121" y="101"/>
      <point x="121" y="181" type="curve" smooth="yes"/>
      <point x="121" y="200"/>
      <point x="124" y="216"/>
      <point x="125" y="226" type="curve" smooth="yes"/>
      <point x="141" y="311" type="line" smooth="yes"/>
      <point x="160" y="414"/>
      <point x="218" y="482"/>
      <point x="301" y="482" type="curve" smooth="yes"/>
      <point x="371" y="482"/>
      <point x="415" y="435"/>
      <point x="415" y="355" type="curve" smooth="yes"/>
      <point x="415" y="336"/>
      <point x="412" y="320"/>
      <point x="411" y="310" type="curve" smooth="yes"/>
      <point x="395" y="225" type="line" smooth="yes"/>
      <point x="376" y="122"/>
      <point x="318" y="54"/>
    </contour>
    <contour>
      <point x="258" y="220" type="curve" smooth="yes"/>
      <point x="292" y="220"/>
      <point x="306" y="234"/>
      <point x="311" y="254" type="curve" smooth="yes"/>
      <point x="315" y="270"/>
      <point x="317" y="284"/>
      <point x="317" y="289" type="curve" smooth="yes"/>
      <point x="317" y="306"/>
      <point x="304" y="316"/>
      <point x="278" y="316" type="curve" smooth="yes"/>
      <point x="244" y="316"/>
      <point x="230" y="302"/>
      <point x="225" y="282" type="curve" smooth="yes"/>
      <point x="221" y="266"/>
      <point x="219" y="252"/>
      <point x="219" y="247" type="curve" smooth="yes"/>
      <point x="219" y="230"/>
      <point x="232" y="220"/>
    </contour>
  </outline>
</glyph>
<glyph name="zero.tosf.alt02" format="1">
  <advance width="540"/>
  <outline>
    <contour>
      <point x="227" y="-12" type="curve" smooth="yes"/>
      <point x="388" y="-12"/>
      <point x="487" y="138"/>
      <point x="487" y="337" type="curve" smooth="yes"/>
      <point x="487" y="469"/>
      <point x="427" y="548"/>
      <point x="309" y="548" type="curve" smooth="yes"/>
      <point x="148" y="548"/>
      <point x="49" y="398"/>
      <point x="49" y="200" type="curve" smooth="yes"/>
      <point x="49" y="67"/>
      <point x="110" y="-12"/>
    </contour>
    <contour>
      <point x="235" y="54" type="curve" smooth="yes"/>
      <point x="191" y="54"/>
      <point x="156" y="73"/>
      <point x="137" y="108" type="curve"/>
      <point x="275" y="236" type="line"/>
      <point x="415" y="375" type="line"/>
      <point x="424" y="375" type="line"/>
      <point x="422" y="367"/>
      <point x="419" y="351"/>
      <point x="417" y="342" type="curve"/>
      <point x="415" y="333"/>
      <point x="412" y="318.0"/>
      <point x="410" y="310" type="curve"/>
      <point x="394" y="225" type="line" smooth="yes"/>
      <point x="375" y="122"/>
      <point x="318" y="54"/>
    </contour>
    <contour>
      <point x="301" y="482" type="curve" smooth="yes"/>
      <point x="345" y="482"/>
      <point x="380" y="463"/>
      <point x="399" y="428" type="curve"/>
      <point x="261" y="300" type="line"/>
      <point x="121" y="161" type="line"/>
      <point x="112" y="161" type="line"/>
      <point x="114" y="169.0"/>
      <point x="117" y="184"/>
      <point x="119" y="193" type="curve"/>
      <point x="121" y="202"/>
      <point x="124" y="218"/>
      <point x="126" y="226" type="curve"/>
      <point x="142" y="311" type="line" smooth="yes"/>
      <point x="161" y="414"/>
      <point x="218" y="482"/>
    </contour>
  </outline>
</glyph>
<glyph name="zero.tosf" format="1">
  <advance width="540"/>
  <outline>
    <contour>
      <point x="227" y="-12" type="curve" smooth="yes" name=""/>
      <point x="388" y="-12"/>
      <point x="487" y="138"/>
      <point x="487" y="337" type="curve" smooth="yes"/>
      <point x="487" y="469"/>
      <point x="427" y="548"/>
      <point x="309" y="548" type="curve" smooth="yes"/>
      <point x="148" y="548"/>
      <point x="49" y="398"/>
      <point x="49" y="200" type="curve" smooth="yes"/>
      <point x="49" y="67"/>
      <point x="110" y="-12"/>
    </contour>
    <contour>
      <point x="235" y="54" type="curve" smooth="yes"/>
      <point x="165" y="54"/>
      <point x="122" y="101"/>
      <point x="122" y="181" type="curve" smooth="yes"/>
      <point x="122" y="200"/>
      <point x="125" y="216"/>
      <point x="126" y="226" type="curve" smooth="yes"/>
      <point x="142" y="311" type="line" smooth="yes"/>
      <point x="161" y="414"/>
      <point x="218" y="482"/>
      <point x="301" y="482" type="curve" smooth="yes"/>
      <point x="371" y="482"/>
      <point x="414" y="435"/>
      <point x="414" y="355" type="curve" smooth="yes"/>
      <point x="414" y="336"/>
      <point x="411" y="320"/>
      <point x="410" y="310" type="curve" smooth="yes"/>
      <point x="394" y="225" type="line" smooth="yes"/>
      <point x="375" y="122"/>
      <point x="318" y="54"/>
    </contour>
  </outline>
</glyph>
